<?xml version="1.0" encoding="utf-8"?>
<!-- Generator: Adobe Illustrator 25.0.1, SVG Export Plug-In . SVG Version: 6.00 Build 0)  -->
<svg version="1.1" id="Vrstva_1" xmlns="http://www.w3.org/2000/svg" xmlns:xlink="http://www.w3.org/1999/xlink" x="0px" y="0px"
	 viewBox="0 0 1080 1080" style="enable-background:new 0 0 1080 1080;" xml:space="preserve">
<style type="text/css">
	.st0{fill:#030303;}
	.st1{fill:none;stroke:#030303;stroke-linecap:round;stroke-miterlimit:2;}
	.st2{fill:#FEF9EF;}
	.st3{fill:#E56E45;}
	.st4{fill:#FE9A66;}
	.st5{fill:#000002;}
	.st6{fill:none;stroke:#030303;stroke-linecap:round;stroke-linejoin:round;}
	.st7{fill:none;stroke:#FFFAF2;stroke-linecap:round;stroke-miterlimit:10;}
</style>
<ellipse class="st0" cx="496.1" cy="141.1" rx="2.4" ry="5.3"/>
<path class="st1" d="M502,129.7c0,0-2.5-6.7-9.6-6.7"/>
<path class="st2" d="M509.5,383.3c0,0,21.6,13.6,43.1,21.3s36,4.7,36,4.7l-7.4,34.7l-74-19.4L509.5,383.3z"/>
<path class="st3" d="M625.5,333.2c0,0-7.5-67,60.1-53.4c78.7,15.9,19.9,146.1,13.1,163.7c-10.8,7.4-84.4,19.5-116.7-13.8
	S542.7,324.6,625.5,333.2z"/>
<path class="st4" d="M565.5,429.6c0,0,35.7-14.1,39.3-13.4s3.9,3.4,2.3,4.6s-19.3,7.2-18.5,12.1c0.5,2.9,9.5,2.3,16.1,2.6
	c7.1,0.3,22.9,1.1,25,1.6c2.6,0.6,2.5,5.4,0,6.4c3.8,0.6,5.8,0.8,5.9,3.4s-1.6,3-3.5,3.4s-9,0.5-9,0.5s6.9,0,8.4,0.7s1.5,4.3-2.5,5
	s-21.4,3.4-37,2.8c-9-0.3-18-1.6-26.7-3.9L565.5,429.6z"/>
<path class="st5" d="M367.5,972.5c0,0-4.2,15.2-2.6,28.3s7.4,16.8,20.6,18.2s45.2,8.1,59,10.4s37.9,3.2,40.3-6.2s-1.9-11.7-1.9-11.7
	s41.8,2.9,50.9-2.1s9.7-11.8-1.8-18.2s-40.5-12.8-57.2-13.6s-20.6-2.4-20.9-7.7s-32.9-8-32.9-8L367.5,972.5z"/>
<path class="st3" d="M381.2,493.5c0,0-11.2,252.3-13.8,287.5s-9.3,196-9.3,196s29.4,4.8,46.4,2.2s16.6-6.1,16.6-6.1l1.6-6.1
	c0,0,11.2,5.1,21.4,5.4s12.8-1.6,12.8-1.6s38-180.4,46.6-224.8c8.5-44.3,25.9-128.8,29-176.5c3.3-51.3,1.1-73.8,1.1-73.8
	L381.2,493.5z"/>
<path class="st2" d="M378.5,501.7c0,0,43.1,25,75,23.9s46.5-10.2,46.5-10.2c4.2,0.6,8.5,0.2,12.5-1.1c6.8-2.3,21.6-11.4,21.6-11.4
	s-0.8-12.5-1.8-22s-2-14.6-2-14.6h2.7l1.1,2.5c0,0,24,1.3,28-1.7l3.9-3c1.3-7.5,1.9-15,1.8-22.6c-0.3-11.6-1.4-16.4-5.5-17.8
	s-26.1-7.5-26.1-7.5l-0.8,1.7l-11.5-3.4c0,0-11.7-55.3-12.3-67.1s-0.5-62.4-1-74.5s-16.3-34.5-22.1-40S406,201,406,201
	s-30.3,24.7-41.6,44.1s-11.3,45-10,62.9l16.6,62.9c0,0,7.9,54.6,7.9,78.2S378.5,501.7,378.5,501.7z"/>
<path class="st4" d="M408.7,204.4c0,0,20.9,16,38.7,23.7s40.4,9,40.4,9s-9.3-4.8-11.8-14.2c-1.5-5.8-2-11.8-1.4-17.7
	c0,0,5.4,3.2,11.7-2.9s7.5-13,8.5-23.7s0-12.3,0-12.3s9.6-1.3,9-9s-6.9-12.5-8-17.6s-0.4-40.4-0.4-40.4l-88.4,11.3
	c0,0,6.3,74.5,4.5,83.1S408.7,204.4,408.7,204.4z"/>
<path class="st5" d="M476.3,104.4c7.4-1,7.3,9.1,19.4,8.2s24-13.8,21.3-31.5s-13.6-35.9-33.3-31.1S466.2,70,458.2,72.5
	s-9.2-5.8-19.8-2.2c-9.5,3.3-6.3,11.6-13.1,14.8s-14.9-8.2-25.5,4.4s2.7,45.2,2.6,55.4s0.1,21.1,1.4,28.6s4.1,9.5,8,9.1
	s12.1-18,12.1-18l5.7-10.7c0,0-6.8,2.7-9.8-6.2s-1.8-18,6.1-19.3s6.5,20.3,13,18.4s0.8-36.1,7.8-37.9s3.3,9.3,14.6,7.8
	S467.3,105.6,476.3,104.4z"/>
<path class="st1" d="M500.2,550.8l-79.3,423c0,0-17.1,12.3-62.7,3.2c0,0,9.6-196.6,12.2-250.1S380.8,503,380.8,503
	s36.9,20.9,64.3,22.3c33.1,1.7,55-10,55-10s3.8,2.4,11.5-0.8c7.7-3.2,22.7-11.7,22.7-11.7s2.2,63.9-8.9,129.6
	C514.8,694.9,457,970.9,457,970.9s-9.8,3.2-18.7,1s-15.7-4.6-15.7-4.6"/>
<path class="st1" d="M388.7,555.1c0,0,28.7,7.6,36.6-23.1"/>
<path class="st1" d="M408.2,776.1c0,0,8.5,13.2,25.1,13.2s20.4-10,20.4-10"/>
<path class="st1" d="M470.9,782.7c0,0,10.1,11.8,18,11.4c4.6-0.2,5.6-4.8,5.6-4.8"/>
<path class="st1" d="M429.3,154.3c0,0-1.7,14.4,1.4,20.7s24.8,19.1,24.8,19.1"/>
<path class="st1" d="M497.8,114.5c0,0,10.9,1.3,16.4-4.2s5.7-8.7,5.7-8.7"/>
<path class="st1" d="M425,134.7c0,0,4.4,1.2,5.2,7.4s-0.7,7.5-0.7,7.5"/>
<path class="st6" d="M411.3,180.3c0.5,4.1,0.7,8.3,0.4,12.4c-0.6,4-1.6,7.9-3,11.7c0,0,24.8,18,38.2,23.4s39.7,9.4,40.9,9.2
	c0,0-8.6-4.2-11.3-12.5s-1.9-19.4-1.9-19.4s2.1,1.6,6.8,0.1s12.9-7.9,13.4-26.7c0.3-4.2,0.3-8.4,0-12.6c0,0,8.5-1.3,9-7
	s-7.4-15.8-8.1-19.7s-0.5-27.4-0.5-27.4"/>
<path class="st1" d="M409.6,201.7L406,201c0,0-38.7,27.8-44.9,50.6s-13,41.3,0,81.9c11.8,36.8,16.1,79,16.9,98.1s0.4,70,0.4,70
	l2.3,1.4"/>
<path class="st1" d="M530.3,466.2c0,0,1.9,12.5,2.6,21.2s1.2,15.4,1.2,15.4"/>
<path class="st1" d="M400.8,214.6c0,0,53.8,40.1,72.8,57.2c-1.1-20.4,11.3-34.7,11.3-34.7l25.7,33.5c0,0-5.8-18-13.8-27.8
	s-7.8-10.1-10.9-11.6c-2.3-1.1-4.7-2-7.1-2.8"/>
<path class="st1" d="M566,464.1c-1.2,1.6-2.9,2.8-4.8,3.4c-3.5,1.3-23.2,1.4-27.1,1.3c-1.5-4.1-5.9-27.5-3.8-43.3
	c8.1-0.5,34.6,0,34.6,0s3.9,7.9,3.3,21.6S566,464.1,566,464.1z"/>
<path class="st1" d="M533,466.2c-0.2,0-119.2-25.8-132.2-43.8s-37.6-73.3-44.4-106.4"/>
<path class="st1" d="M530.1,427.5l-92.9-34.2c0,0-7.3-65.5-17.2-88.9"/>
<path class="st1" d="M411.9,287c0,0-10.1-27.3-32.1-33.2"/>
<circle class="st0" cx="553.6" cy="462.9" r="2.2"/>
<path class="st1" d="M484.8,237.1c0,0,8.1,111.1,9.9,141.1s3,37.5,3,37.5"/>
<path class="st1" d="M500.2,458.5c0,0,2.8,43.6-0.2,56.8"/>
<path class="st1" d="M510.1,270.2c0,0-1.2,62,2.1,81.8c3.3,19.8,13.1,73.3,13.1,73.3"/>
<path class="st1" d="M518.8,389c0,0,21.2,11.4,31,14.6s17.5,5,17.5,5"/>
<path class="st1" d="M548.3,403c0,0-3.1,2.7-5.6,10.6s-2.1,11.6-2.1,11.6"/>
<circle class="st0" cx="479.4" cy="302.3" r="2.2"/>
<circle class="st0" cx="483.7" cy="353.1" r="2.2"/>
<circle class="st0" cx="487" cy="399.9" r="2.2"/>
<circle class="st0" cx="491.3" cy="461.6" r="2.2"/>
<circle class="st0" cx="491.3" cy="507.8" r="2.2"/>
<path class="st1" d="M566.3,429.3c0,0,32.8-13,38-13.1s4.5,3.9,2.5,4.9s-18,6.5-18.1,12c-0.1,4.2,36.5,2.4,41.2,4.2s1.8,5.8,0,6.4
	c0,0,4-0.3,5.3,1.6c1.1,1.3,0.9,3.2-0.4,4.3c0,0,0,0-0.1,0c-1.1,1.1-9.5,1.3-9.5,1.3s5,0.1,6.5,0.6s1.9,3.9-1.1,4.6s-23.6,4-35,3.3
	s-27.2-3.3-27.2-3.3"/>
<path class="st1" d="M593.8,443.4c0,0,27.1,1.5,36,0.2"/>
<line class="st1" x1="594.8" y1="451.5" x2="625.2" y2="450.9"/>
<path class="st1" d="M578.5,424.6c0,0-28.5-31.7-15.2-67.2c12.3-33,62.2-24.1,62.2-24.1s-4.1-33,17.3-47.9s65.3-7.2,78.4,22.7
	c16.7,38.2-12,114.8-22.5,135.5c-13.7,10.7-67.1,8-67.1,8"/>
<path class="st1" d="M466.9,166.1c0,0,0.4,8,9.2,12.4s14.3,0,14.3,0"/>
<path class="st1" d="M462.7,163.4c0.8-1,1.9-1.6,3.2-1.6"/>
<ellipse class="st0" cx="479.2" cy="140" rx="2.5" ry="5.3"/>
<path class="st1" d="M467.9,129.9c0,0,3.4-7.8,11.9-8"/>
<path class="st0" d="M469.1,173.3c0.1,0.1,4.5,8.8,11.1,9.5c3.9,0.4,7.8-1.1,10.5-4c-3.4,1.5-7.1,1.9-10.7,1.3
	C474.2,178.9,469.1,173.3,469.1,173.3z"/>
<path class="st7" d="M467.9,105.2c0,0,0.5-5.5,7.4-6.8s9.1,5.9,12.4,6.8c1.9,0.5,3.9-0.2,5.1-1.8"/>
<path class="st7" d="M576.7,353.8c0,0,21.7-21.4,52.1-12c27.6,8.5,30.9,29.3,30.9,29.3"/>
<path class="st7" d="M466.8,998.4c-6.7-1.3-13.6,0.2-19.1,4.1c-5.6,3.7-9,10-9,16.7"/>
<path class="st7" d="M364.9,1000.8c2.4,4,5.7,7.4,9.6,9.8c6.6,3.9,87.8,13.3,96.6,12.6c5.2-0.4,10.2-2.2,14.4-5.3"/>
<path class="st7" d="M473.8,1004.1c0,0,39.9,2.7,48.3,1.8s17.7-8,17.7-8"/>
<path class="st7" d="M511.1,983.2c0,0-8.1-3.4-16,0.1c-11.6,5.2-11.2,21-11.2,21"/>
</svg>
