<?xml version="1.0" encoding="utf-8"?>
<!-- Generator: Adobe Illustrator 23.1.0, SVG Export Plug-In . SVG Version: 6.00 Build 0)  -->
<svg version="1.1" id="Vrstva_1" xmlns="http://www.w3.org/2000/svg" xmlns:xlink="http://www.w3.org/1999/xlink" x="0px" y="0px"
	 viewBox="0 0 387.3 448.7" style="enable-background:new 0 0 387.3 448.7;" xml:space="preserve">
<style type="text/css">
	.st0{fill:#030303;}
	.st1{fill:none;stroke:#030303;stroke-linecap:round;stroke-miterlimit:2;}
	.st2{fill:#FEF9EF;}
	.st3{fill:#E56E45;}
	.st4{fill:#FE9A66;}
	.st5{fill:#000002;}
	.st6{fill:none;stroke:#030303;stroke-linecap:round;stroke-linejoin:round;}
	.st7{fill:none;stroke:#FFFAF2;stroke-linecap:round;stroke-miterlimit:10;}
	.st8{fill:none;}
</style>
<ellipse class="st0" cx="147.2" cy="97.3" rx="2.4" ry="5.3"/>
<path class="st1" d="M153.1,85.9c0,0-2.5-6.7-9.6-6.7"/>
<path class="st2" d="M160.6,339.5c0,0,21.6,13.6,43.1,21.3s36,4.7,36,4.7l-7.4,34.7l-74-19.4L160.6,339.5z"/>
<path class="st3" d="M276.6,289.4c0,0-7.5-67,60.1-53.4c78.7,15.9,19.9,146.1,13.1,163.7c-10.8,7.4-84.4,19.5-116.7-13.8
	S193.8,280.8,276.6,289.4z"/>
<path class="st4" d="M216.6,385.8c0,0,35.7-14.1,39.3-13.3c3.7,0.7,3.9,3.4,2.3,4.6s-19.3,7.2-18.5,12.1c0.5,2.9,9.5,2.3,16.1,2.6
	c7.1,0.3,22.9,1.1,25,1.6c2.6,0.6,2.5,5.4,0,6.4c3.8,0.6,5.8,0.8,5.9,3.4s-1.6,3-3.5,3.4s-9,0.5-9,0.5s6.9,0,8.4,0.7s1.5,4.3-2.5,5
	s-21.4,3.4-37,2.8c-9-0.3-18-1.6-26.7-3.9L216.6,385.8z"/>
<path class="st2" d="M184.5,449.7h-32H32.3h-2.7c0.1-10.3,0.3-28.5,0.3-44.3c0-4.4-0.3-10-0.7-16v-0.1c-1.3-17.6-4.1-39.5-5.8-52.1
	v-0.1c-0.8-6.1-1.4-9.9-1.4-9.9l-2-7.8l0,0l-6.8-25.8c0-0.1-0.1-0.2-0.1-0.2l-1-3.6c0,0,0,0,0-0.1L7,270.5l0,0l-1.6-6.2
	c-0.2-3.2-0.4-6.7-0.5-10.3l0,0c-0.1-4.2-0.1-8.5,0.2-13c0-0.1,0-0.1,0-0.2c0.6-11,2.6-22.5,7.1-32.8c0,0,0,0,0-0.1
	c1-2.2,2-4.4,3.3-6.4c10.7-18.4,38.5-41.6,41.3-44l0.1-0.1c0.1,0,0.1-0.1,0.1-0.1s76.9,26.4,82.6,31.9s21.5,27.9,22.1,40
	s0.4,62.7,1,74.5c0.3,6.4,3.9,25.2,7,41.3c2.8,13.9,5.3,25.8,5.3,25.8l11.5,3.4l0.8-1.7c0,0,22,6.1,26.1,7.5
	c2.2,0.7,3.5,2.4,4.3,5.5c0.4,1.6,0.7,3.7,0.9,6.2l0,0c0.1,1.5,0.2,3.2,0.3,5.1c0,0.3,0,0.6,0,1c0.1,4.8-0.1,9.6-0.7,14.4
	c-0.3,2.6-0.6,5.3-1.1,7.9l0,0c0,0.1,0,0.2,0,0.3l-0.2,0.1l-3.8,2.9c-0.1,0.1-0.3,0.2-0.5,0.3h-0.1c-4.7,2.3-22.7,1.6-26.7,1.4
	c-0.1,0-0.2,0-0.3,0c-0.3,0-0.5,0-0.5,0l-0.2-0.3c0,0,0,0,0-0.1l-1-2.1l0,0l0,0h-2.6l0,0c0,0,0,0.1,0,0.2v0.1
	c0.3,1.3,1.1,6.2,1.9,14.2c0.1,0.8,0.1,1.5,0.2,2.3c0,0.3,0.1,0.6,0.1,0.9c0.1,1.3,0.2,2.6,0.3,3.9c0.1,1.2,0.2,2.4,0.3,3.4
	c0,0.4,0,0.7,0.1,1.1C184.5,449,184.5,449.4,184.5,449.7L184.5,449.7z"/>
<path class="st4" d="M59.8,160.6c0,0,20.9,16,38.7,23.7s40.4,9,40.4,9s-9.3-4.8-11.8-14.2c-1.5-5.8-2-11.8-1.4-17.7
	c0,0,5.4,3.2,11.7-2.9c6.4-6.1,7.5-13,8.5-23.7s0-12.3,0-12.3s9.6-1.3,9-9s-6.9-12.5-8-17.6s-0.4-40.4-0.4-40.4L58.1,66.8
	c0,0,6.3,74.5,4.5,83.1S59.8,160.6,59.8,160.6z"/>
<path class="st5" d="M127.4,60.6c7.4-1,7.3,9.1,19.4,8.2s24-13.8,21.3-31.5c-2.7-17.7-13.6-35.9-33.3-31.1
	c-19.6,4.8-17.5,20.1-25.5,22.6s-9.2-5.8-19.8-2.1C80,30,83.2,38.3,76.4,41.5s-14.9-8.2-25.5,4.4s2.7,45.2,2.6,55.4
	c-0.1,10.2,0.1,21.1,1.4,28.6s4.1,9.5,8,9.1S75,121,75,121l5.7-10.7c0,0-6.8,2.7-9.8-6.2s-1.8-18,6.1-19.3s6.5,20.3,13,18.4
	s0.8-36.1,7.8-37.9s3.3,9.3,14.6,7.8C123.6,71.4,118.4,61.8,127.4,60.6z"/>
<path class="st1" d="M80.4,110.5c0,0-1.7,14.4,1.4,20.7c3.1,6.3,24.8,19.1,24.8,19.1"/>
<path class="st1" d="M148.9,70.7c0,0,10.9,1.3,16.4-4.2c5.5-5.5,5.7-8.7,5.7-8.7"/>
<path class="st1" d="M76.1,90.9c0,0,4.4,1.2,5.2,7.4c0.9,6.2-0.7,7.5-0.7,7.5"/>
<path class="st6" d="M62.4,136.5c0.5,4.1,0.7,8.3,0.4,12.4c-0.6,4-1.6,7.9-3,11.7c0,0,24.8,18,38.2,23.4c13.4,5.5,39.7,9.4,40.9,9.2
	c0,0-8.6-4.2-11.3-12.5c-2.6-8.3-1.9-19.4-1.9-19.4s2.1,1.6,6.8,0.1c4.6-1.5,12.9-7.9,13.4-26.7c0.3-4.2,0.3-8.4,0-12.6
	c0,0,8.5-1.3,9-7s-7.4-15.8-8.1-19.7S146.3,68,146.3,68"/>
<path class="st1" d="M60.7,157.9l-3.6-0.7c0,0,0,0-0.1,0.1l-0.1,0.1c-3.3,2.4-38.7,28.6-44.6,50.4c0,0,0,0,0,0.1
	c-2.9,11-6.1,20.9-7.1,32.8c0,0.1,0,0.1,0,0.2c-0.3,4.1-0.4,8.4-0.2,13l0,0c0.3,5,1,10.5,2.2,16.5l0,0c1.2,5.8,2.8,12.2,5.1,19.2
	c0,0,0,0,0,0.1c0.9,2.9,1.8,5.7,2.6,8.7l0,0c2,6.9,3.7,14,5.2,21l0,0c1.3,6,2.4,11.9,3.4,17.7v0.1c3.6,20.9,5.2,39.6,5.7,50.6
	c0,0.5,0,1,0.1,1.5v0.1c0.6,15,0.5,45.2,0.4,59.8"/>
<path class="st1" d="M184.5,449.2c0-0.3,0-0.2,0-0.5s-0.1-0.7-0.1-1.1c-0.1-1.1-0.2-2.3-0.3-3.4c0-0.2,0-0.4,0-0.5
	c-0.1-1.1-0.2-2.2-0.3-3.4c0-0.3-0.1-0.6-0.1-0.9c-0.8-7.1-1.9-14.9-2.2-16.6v-0.1c0-0.1,0-0.2,0-0.2"/>
<path class="st1" d="M51.9,170.8c0,0,53.8,40.1,72.8,57.2c-1.1-20.4,11.3-34.7,11.3-34.7l25.7,33.5c0,0-5.8-18-13.8-27.8
	s-7.8-10.1-10.9-11.6c-2.3-1.1-4.7-2-7.1-2.8"/>
<path class="st1" d="M217.1,420.3c-1.2,1.6-2.9,2.8-4.8,3.4c-3.5,1.3-23.2,1.4-27.1,1.3c-1.5-4.1-5.9-27.5-3.8-43.3
	c8.1-0.5,34.6,0,34.6,0s3.9,7.9,3.3,21.6S217.1,420.3,217.1,420.3z"/>
<path class="st1" d="M184.1,422.4c-0.2,0-119.2-25.8-132.2-43.8S14.3,305.3,7.5,272.2"/>
<path class="st1" d="M181.2,383.7l-92.9-34.2c0,0-7.3-65.5-17.2-88.9"/>
<path class="st1" d="M63,243.2c0,0-10.1-27.3-32.1-33.2"/>
<circle class="st0" cx="204.7" cy="419" r="2.2"/>
<path class="st1" d="M135.9,193.3c0,0,8.1,111.1,9.9,141.1s3,37.5,3,37.5"/>
<path class="st1" d="M151.3,414.7c0,0,1.2,18,1.2,34.5"/>
<path class="st1" d="M161.2,226.4c0,0-1.2,62,2.1,81.8c3.3,19.8,13.1,73.3,13.1,73.3"/>
<path class="st1" d="M169.9,345.2c0,0,21.2,11.4,31,14.6c9.8,3.2,17.5,5,17.5,5"/>
<path class="st1" d="M199.4,359.2c0,0-3.1,2.7-5.6,10.6c-2.5,8-2.1,11.6-2.1,11.6"/>
<circle class="st0" cx="130.5" cy="258.5" r="2.2"/>
<circle class="st0" cx="134.8" cy="309.3" r="2.2"/>
<circle class="st0" cx="138.1" cy="356" r="2.2"/>
<circle class="st0" cx="142.4" cy="417.8" r="2.2"/>
<path class="st1" d="M217.4,385.5c0,0,32.8-13,38-13.1c5.2-0.1,4.5,3.9,2.5,4.9c-2,1-18,6.5-18.1,12c-0.1,4.2,36.5,2.4,41.2,4.2
	s1.8,5.8,0,6.4c0,0,4-0.3,5.3,1.6c1.1,1.3,0.9,3.2-0.4,4.3c0,0,0,0-0.1,0c-1.1,1.1-9.5,1.3-9.5,1.3s5,0.1,6.5,0.6
	c1.4,0.5,1.9,3.9-1.1,4.6c-3,0.7-23.6,4-35,3.3c-11.4-0.7-27.2-3.3-27.2-3.3"/>
<path class="st1" d="M244.9,399.6c0,0,27.1,1.5,36,0.2"/>
<line class="st1" x1="245.9" y1="407.7" x2="276.3" y2="407.1"/>
<path class="st1" d="M229.6,380.8c0,0-28.5-31.7-15.2-67.2c12.3-33,62.2-24.2,62.2-24.2s-4.1-33,17.3-47.9s65.3-7.2,78.4,22.7
	c16.7,38.2-12,114.8-22.5,135.5c-13.7,10.7-67.1,8-67.1,8"/>
<path class="st1" d="M118,122.3c0,0,0.4,8,9.2,12.4s14.3,0,14.3,0"/>
<path class="st1" d="M113.8,119.6c0.8-1,1.9-1.6,3.2-1.6"/>
<ellipse class="st0" cx="130.3" cy="96.2" rx="2.5" ry="5.3"/>
<path class="st1" d="M119,86.1c0,0,3.4-7.8,11.9-8"/>
<path class="st0" d="M120.2,129.5c0.1,0.1,4.5,8.8,11.1,9.5c3.9,0.4,7.8-1.1,10.5-4c-3.4,1.5-7.1,1.9-10.7,1.3
	C125.3,135.1,120.2,129.5,120.2,129.5z"/>
<path class="st7" d="M119,61.4c0,0,0.5-5.5,7.4-6.8s9.1,5.9,12.4,6.8c1.9,0.5,3.9-0.2,5.1-1.8"/>
<path class="st7" d="M227.8,310c0,0,21.7-21.3,52.1-12c27.6,8.5,30.9,29.3,30.9,29.3"/>
<polyline class="st8" points="305.8,449.7 184.5,449.7 184.5,449.7 152.5,449.7 32.3,449.7 29.7,449.7 29.6,449.7 16,449.7 "/>
</svg>
