<?xml version="1.0" encoding="utf-8"?>
<!-- Generator: Adobe Illustrator 25.0.1, SVG Export Plug-In . SVG Version: 6.00 Build 0)  -->
<svg version="1.1" id="Vrstva_1" xmlns="http://www.w3.org/2000/svg" xmlns:xlink="http://www.w3.org/1999/xlink" x="0px" y="0px"
	 viewBox="0 0 1116.4 635.6" style="enable-background:new 0 0 1116.4 635.6;" xml:space="preserve">
<style type="text/css">
	.st0{fill:#FFFFFF;stroke:#131313;stroke-width:4.3975;stroke-miterlimit:10;}
	.st1{fill:#EF356B;}
	.st2{fill:none;stroke:#000000;stroke-miterlimit:10;}
	.st3{fill:none;stroke:#FFFFFF;stroke-width:15;stroke-miterlimit:10;}
	.st4{fill:#EDDECA;}
	.st5{opacity:0.6;}
	.st6{fill:none;stroke:#000000;stroke-width:25;stroke-linecap:round;stroke-linejoin:round;stroke-miterlimit:10;}
	.st7{fill:#87C13D;}
	.st8{fill:none;stroke:#F72626;stroke-width:4.5021;stroke-linecap:round;stroke-linejoin:round;stroke-miterlimit:10;}
	.st9{fill:none;stroke:#F72626;stroke-width:10.4833;stroke-linecap:round;stroke-linejoin:round;stroke-miterlimit:10;}
	.st10{fill:none;stroke:#131313;stroke-width:17.2529;stroke-linecap:round;stroke-linejoin:round;stroke-miterlimit:10;}
	.st11{fill:none;stroke:#131313;stroke-width:9.3322;stroke-linecap:round;stroke-linejoin:round;stroke-miterlimit:10;}
	.st12{fill:none;stroke:#000000;stroke-width:14;stroke-linecap:round;stroke-linejoin:round;stroke-miterlimit:10;}
	.st13{fill:none;stroke:#000000;stroke-width:22;stroke-linecap:round;stroke-linejoin:round;stroke-miterlimit:10;}
	.st14{fill:#C94B4B;}
	.st15{opacity:0.5;}
	.st16{fill:none;stroke:#000000;stroke-width:3.5635;stroke-linecap:round;stroke-linejoin:round;stroke-miterlimit:10;}
	.st17{fill:none;stroke:#000000;stroke-width:3.5636;stroke-linecap:round;stroke-linejoin:round;stroke-miterlimit:10;}
	.st18{fill:none;stroke:#C94141;stroke-width:26.7284;stroke-linecap:round;stroke-linejoin:round;stroke-miterlimit:10;}
	.st19{fill:#C94141;}
	.st20{fill:#E66D45;}
</style>
<g id="Group_2" transform="translate(-446.381 -864.603)">
	<path id="Path_1" class="st20" d="M1437.6,864.6c-44.6,0-85.9,23.8-108.3,62.4c-34.6-59.8-111.2-80.2-171-45.5
		c-18.9,10.9-34.6,26.6-45.5,45.5c-34.6-59.8-111.2-80.2-171-45.5c-18.9,10.9-34.6,26.6-45.5,45.5c-34.6-59.8-111.2-80.2-171-45.5
		c-18.9,10.9-34.6,26.6-45.5,45.5c-34.7-59.8-111.2-80.2-171-45.5c-38.6,22.4-62.4,63.7-62.4,108.3c0,64.4,37.7,141,112.2,227.7
		c33.8,39.3,70.7,75.9,110.1,109.6l0.5,0.4c3,2.3,6.6,3.5,10.3,3.5h0.1l108.5-0.4c44.6,0,85.9-23.8,108.3-62.4
		c34.7,59.8,111.3,80.2,171.1,45.5c38.6-22.4,62.4-63.6,62.4-108.3V989.8c0.1-50.4,41-91.3,91.4-91.2c50.4,0.1,91.2,40.9,91.2,91.2
		c0,135.6-208.6,309.5-210.7,311.2c-7.2,5.9-8.2,16.6-2.3,23.8c3.2,3.9,8,6.2,13.1,6.2h0.1l108.5-0.4c44.6,0,85.9-23.8,108.3-62.4
		c34.7,59.8,111.3,80.2,171.1,45.5c38.6-22.4,62.4-63.6,62.4-108.3V989.8C1562.7,920.7,1506.7,864.7,1437.6,864.6z M679.5,1291.7
		c-42.9-37.9-199.3-184.3-199.3-301.9c0.1-50.4,41-91.3,91.4-91.2c50.4,0.1,91.2,40.9,91.2,91.2c-0.3,9.3,7.1,17.1,16.4,17.4
		c9.3,0.3,17.1-7.1,17.4-16.4c0-0.3,0-0.7,0-1c0.1-50.4,41-91.3,91.4-91.2c50.4,0.1,91.2,40.9,91.2,91.2
		C879.4,1107.5,722.5,1253.8,679.5,1291.7z M1095.9,1205.4c0.1,50.4-40.8,91.4-91.2,91.4c-50.4,0.1-91.4-40.8-91.4-91.2
		c0-0.1,0-0.1,0-0.2c0.3-9.3-7.1-17.1-16.4-17.4c-9.3-0.3-17.1,7.1-17.4,16.4c0,0.3,0,0.7,0,1c-0.1,50.4-40.9,91.3-91.4,91.3
		l-63.9,0.2c26.9-25.1,52.5-51.7,76.6-79.5c74.6-86.6,112.5-163.2,112.5-227.7c-0.1-50.4,40.8-91.4,91.2-91.4
		c50.4-0.1,91.4,40.8,91.4,91.2c0,0.1,0,0.1,0,0.2L1095.9,1205.4z M1528.9,1205.4c-0.1,50.4-41,91.3-91.4,91.2
		c-50.4-0.1-91.2-40.9-91.2-91.2c0.3-9.3-7.1-17.1-16.4-17.4c-9.3-0.3-17.1,7.1-17.4,16.4c0,0.3,0,0.7,0,1
		c-0.1,50.4-40.9,91.3-91.4,91.3l-63.9,0.2c26.9-25.1,52.5-51.7,76.6-79.5c74.7-86.6,112.5-163.2,112.5-227.7
		c0.1-50.4,41-91.3,91.4-91.2c50.4,0.1,91.2,40.9,91.2,91.2L1528.9,1205.4z"/>
	<g id="Group_1" transform="translate(481.697 940.525)">
		<path id="Path_2" d="M274.7,495.7c0,2.2-1.8,3.9-3.9,3.9h-7.6l-5.4,16.3h5.3c2.1,0,3.9,1.7,3.9,3.8c0,0,0,0.1,0,0.1
			c0,2.2-1.7,4-3.9,4c0,0,0,0,0,0h-7.9l-4.8,14.3c-0.7,2.3-3.1,3.5-5.4,2.8c-1.8-0.6-3-2.3-3-4.2c0-0.5,0.1-1,0.2-1.4l3.9-11.5h-9.4
			l-4.8,14.3c-0.6,1.7-2.3,2.9-4.1,2.9c-2.4,0-4.4-1.9-4.4-4.3c0-0.5,0.1-1,0.3-1.4l3.8-11.5h-4.7c-2.2,0-3.9-1.8-3.9-4c0,0,0,0,0,0
			c0-2.1,1.7-3.9,3.8-3.9c0,0,0.1,0,0.1,0h7.4l5.3-16.3h-5c-2.2,0-3.9-1.7-4-3.9c0-2.2,1.7-3.9,3.9-4c0,0,0,0,0.1,0h7.7l4.7-14.5
			c0.8-2.3,3.3-3.5,5.6-2.7c1.7,0.6,2.9,2.2,2.9,4.1c0,0.5,0,0.9-0.1,1.4l-3.9,11.8h9.2l4.8-14.5c0.7-2.3,3.2-3.5,5.4-2.8
			c1.8,0.6,3,2.3,3,4.2c0,0.5-0.1,0.9-0.2,1.4l-3.9,11.8h5C272.9,491.9,274.6,493.6,274.7,495.7z M253.9,499.7h-9.2l-5.3,16.3h9.1
			L253.9,499.7z"/>
		<path id="Path_3" d="M283.4,533v-50.6c-0.4-3.7,2.2-6.9,5.9-7.3c0.5-0.1,1-0.1,1.4,0h18.4c20.5,0,34.7,13,34.7,32.7
			c0,19.7-14.2,32.6-34.7,32.6h-18.4c-3.7,0.4-7-2.3-7.4-6C283.3,534,283.3,533.5,283.4,533z M309.2,528.2
			c10.8,0.5,20-7.8,20.5-18.6c0-0.6,0-1.2,0-1.8c0.8-10.5-7.1-19.7-17.7-20.5c-0.9-0.1-1.9-0.1-2.8,0h-11.9v40.9H309.2z"/>
		<path id="Path_4" d="M352.2,477.9c0-4.1,3.3-7.4,7.4-7.4c4.1,0,7.4,3.3,7.4,7.4c0,4.1-3.3,7.4-7.4,7.4
			C355.6,485.3,352.2,482,352.2,477.9z M353.5,534.8v-36.2c0-3.4,2.8-6.2,6.2-6.3c3.4,0,6.2,2.8,6.3,6.2c0,0,0,0,0,0.1v36.2
			c0,3.5-2.8,6.3-6.3,6.3C356.2,541.1,353.5,538.3,353.5,534.8L353.5,534.8z"/>
		<path id="Path_5" d="M421.5,534.8c0.1,3.3-2.5,6.2-5.8,6.3c-0.1,0-0.2,0-0.3,0c-1.8,0-3.6-0.8-4.8-2.2l-13.9-16.7l-5.9,5.5v7.1
			c0,3.5-2.8,6.3-6.3,6.3c-3.4,0-6.2-2.8-6.2-6.3v-54.2c0-3.4,2.8-6.2,6.2-6.3c3.4,0,6.2,2.8,6.3,6.2c0,0,0,0,0,0.1V514l19.6-19.9
			c1.1-1.1,2.6-1.7,4.1-1.7c3.2,0,5.8,2.6,5.8,5.8v0c0,1.5-0.6,3-1.7,4.1l-12.8,12.5l14.5,16.2C421.1,532.1,421.6,533.4,421.5,534.8
			z"/>
		<path id="Path_6" d="M434.1,548.6c0.2,0,0.4-0.1,0.6-0.1c3.2-0.1,5.3-0.9,6.5-3.4l1.8-4l-16.3-40.3c-0.3-0.7-0.4-1.5-0.4-2.3
			c-0.1-3.3,2.6-6.1,6-6.2c0,0,0.1,0,0.1,0c2.5-0.1,4.8,1.5,5.7,3.8l11.4,30.2l11.3-30.2c1.3-3.2,5-4.7,8.1-3.4
			c2.3,1,3.8,3.2,3.8,5.7c0,0.8-0.2,1.6-0.5,2.4l-19.2,47.2c-2.5,7.2-9.5,11.9-17.2,11.5c-0.5,0-0.9,0-1.4-0.1c-3,0-5.5-2.4-5.6-5.5
			c0,0,0-0.1,0-0.1C428.8,551,431.1,548.7,434.1,548.6z"/>
		<path id="Path_7" d="M477.5,533.2c0.1-2.3,1.2-4.4,3-5.8c24.9-18.1,32.2-24.6,32.2-32.4c0-5.7-5.2-8.5-10.7-8.5
			c-5,0-9.8,1.5-13.8,4.4c-1,0.7-2.2,1.1-3.4,1.1c-3.4,0-6.2-2.7-6.2-6.1c0,0,0,0,0,0c0-2,1-3.8,2.5-5c6-4.4,13.2-6.7,20.7-6.7
			c13.9,0,25,7.8,25,20.9c0,11.2-9.2,20.9-26.8,33.2h21.8c3.4-0.2,6.3,2.4,6.4,5.8c0.2,3.4-2.4,6.3-5.8,6.4c-0.2,0-0.4,0-0.6,0
			h-37.2C480.7,540.4,477.5,537.2,477.5,533.2z"/>
		<path id="Path_8" d="M562.8,474.1c18.6,0,27.1,16.9,27.1,33.7c0,16.9-8.4,33.8-27.1,33.8s-27-17-27-33.8
			C535.7,490.9,544,474.1,562.8,474.1z M562.8,486.4c-9.4,0-13,9.3-13,21.4c0,12.1,3.5,21.5,13,21.5c9.4,0,12.8-9.4,12.8-21.5
			C575.6,495.7,572.1,486.4,562.8,486.4L562.8,486.4z"/>
		<path id="Path_9" d="M595.8,533.2c0-2.3,1.2-4.4,3-5.8c24.9-18.1,32.2-24.6,32.2-32.4c0-5.7-5.2-8.5-10.7-8.5
			c-5,0-9.8,1.5-13.8,4.4c-1,0.7-2.2,1.1-3.4,1.1c-3.4,0-6.2-2.7-6.2-6.1c0,0,0,0,0,0c0-2,1-3.8,2.5-5c6-4.4,13.2-6.7,20.7-6.7
			c13.9,0,25,7.8,25,20.9c0,11.2-9.2,20.9-26.8,33.2h21.8c3.4-0.2,6.3,2.4,6.4,5.8c0.2,3.4-2.4,6.3-5.8,6.4c-0.2,0-0.4,0-0.6,0H603
			C599,540.4,595.8,537.2,595.8,533.2z"/>
		<path id="Path_10" d="M681.1,474.1c18.6,0,27.1,16.9,27.1,33.7c0,16.9-8.4,33.8-27.1,33.8s-27.1-17-27.1-33.8
			C654,490.9,662.3,474.1,681.1,474.1z M681.1,486.4c-9.4,0-13,9.3-13,21.4c0,12.1,3.5,21.5,13,21.5c9.4,0,12.8-9.4,12.8-21.5
			C693.9,495.7,690.4,486.4,681.1,486.4L681.1,486.4z"/>
		<path id="Path_11" d="M721.9,525.6c4.4,0,7.9,3.5,7.9,7.9c0,4.4-3.5,7.9-7.9,7.9c-4.4,0-7.9-3.5-7.9-7.9l0,0
			C714.1,529.2,717.6,525.7,721.9,525.6z"/>
		<path id="Path_12" d="M762.3,491.9c5.2-0.2,10.2,1.4,14.4,4.4c2.6,1.7,3.2,5.2,1.5,7.7c-1,1.5-2.8,2.5-4.6,2.5
			c-1.2,0-2.3-0.4-3.2-1.1c-2.1-1.6-4.8-2.5-7.4-2.5c-7.6,0.5-13.3,7.2-12.8,14.8c0.5,6.8,5.9,12.3,12.8,12.8
			c2.7,0.1,5.3-0.8,7.4-2.5c0.9-0.7,2.1-1.1,3.2-1.1c3.1-0.1,5.6,2.4,5.7,5.5c0,1.9-0.9,3.7-2.4,4.7c-4.2,3-9.2,4.6-14.4,4.4
			c-13.7,0-24.8-11.1-24.8-24.8C737.5,503,748.6,491.9,762.3,491.9L762.3,491.9z"/>
		<path id="Path_13" d="M785.9,534.2c0-1.4,0.5-2.8,1.4-3.9l20.7-26.3h-16.6c-3,0-5.5-2.4-5.5-5.4c0-3,2.4-5.5,5.4-5.5
			c0,0,0.1,0,0.1,0h28.1c3.3,0,6,2.6,6,5.9c0,0,0,0,0,0.1c0,1.4-0.4,2.7-1.3,3.7l-21.1,26.8h17.3c3,0.1,5.3,2.6,5.2,5.6
			c-0.1,2.8-2.4,5.1-5.2,5.2h-28.4C788.6,540.4,785.8,537.6,785.9,534.2C785.9,534.2,785.9,534.2,785.9,534.2z"/>
	</g>
</g>
</svg>
