<?xml version="1.0" encoding="utf-8"?>
<!-- Generator: Adobe Illustrator 23.1.0, SVG Export Plug-In . SVG Version: 6.00 Build 0)  -->
<svg version="1.1" id="Vrstva_1" xmlns="http://www.w3.org/2000/svg" xmlns:xlink="http://www.w3.org/1999/xlink" x="0px" y="0px"
	 viewBox="0 0 1942.2 1105.4" style="enable-background:new 0 0 1942.2 1105.4;" xml:space="preserve">
<style type="text/css">
	.st0{fill:#FFFFFF;stroke:#131313;stroke-width:4.3975;stroke-miterlimit:10;}
	.st1{fill:#EF356B;}
	.st2{fill:none;stroke:#000000;stroke-miterlimit:10;}
	.st3{fill:none;stroke:#FFFFFF;stroke-width:15;stroke-miterlimit:10;}
	.st4{fill:#EDDECA;}
	.st5{opacity:0.6;}
	.st6{fill:none;stroke:#000000;stroke-width:25;stroke-linecap:round;stroke-linejoin:round;stroke-miterlimit:10;}
	.st7{fill:#87C13D;}
	.st8{fill:none;stroke:#F72626;stroke-width:4.5021;stroke-linecap:round;stroke-linejoin:round;stroke-miterlimit:10;}
	.st9{fill:none;stroke:#F72626;stroke-width:10.4833;stroke-linecap:round;stroke-linejoin:round;stroke-miterlimit:10;}
	.st10{fill:none;stroke:#131313;stroke-width:17.2529;stroke-linecap:round;stroke-linejoin:round;stroke-miterlimit:10;}
	.st11{fill:none;stroke:#131313;stroke-width:9.3322;stroke-linecap:round;stroke-linejoin:round;stroke-miterlimit:10;}
	.st12{fill:none;stroke:#000000;stroke-width:14;stroke-linecap:round;stroke-linejoin:round;stroke-miterlimit:10;}
	.st13{fill:none;stroke:#000000;stroke-width:22;stroke-linecap:round;stroke-linejoin:round;stroke-miterlimit:10;}
	.st14{fill:#C94B4B;}
	.st15{opacity:0.5;}
	.st16{fill:none;stroke:#000000;stroke-width:3.5635;stroke-linecap:round;stroke-linejoin:round;stroke-miterlimit:10;}
	.st17{fill:none;stroke:#000000;stroke-width:3.5636;stroke-linecap:round;stroke-linejoin:round;stroke-miterlimit:10;}
	.st18{fill:none;stroke:#C94141;stroke-width:26.7284;stroke-linecap:round;stroke-linejoin:round;stroke-miterlimit:10;}
	.st19{fill:#C94141;}
</style>
<path class="st0" d="M4729.2-2777.7l-365.4-362.6c-24.8-24.6-58.2-38.3-93.1-38.3h-207.9c-28.7,0-52.9,20.5-58.6,48.7
	c-22.6,110.2-120.1,193.2-237,193.2s-214.4-82.9-237-193.2c-5.7-28.1-29.9-48.7-58.6-48.7h-207.9c-34.9,0-68.3,13.8-93.1,38.3
	l-365.4,362.6c-23.3,23.3-23.3,61.1,0,84.4l217.2,217.2c23.3,23.3,61.1,23.3,84.4,0c12.2-12.2,27.1-17.6,41.8-17.6
	c30.7,0,60.1,23.8,60.1,59.8v1003c0,32.9,26.7,59.7,59.7,59.7h498.8H4266c32.9,0,59.7-26.7,59.7-59.7v-1003
	c0-36,29.4-59.8,60.1-59.8c14.6,0,29.6,5.4,41.8,17.6c23.3,23.3,61.1,23.3,84.4,0l217.2-217.2
	C4752.5-2716.6,4752.5-2754.4,4729.2-2777.7z"/>
<text transform="matrix(1 0 0 1 5463.0186 -4852.564)" style="fill:#131313; font-family:'ArialMT'; font-size:147.0308px;">#NTTZ</text>
<text transform="matrix(1 0 0 1 5625.1201 -4987.5562)" style="fill:#131313; font-family:'ArialMT'; font-size:20.9895px;">Františkovo</text>
<path class="st1" d="M5774.7-4999c-0.2,0.5-0.5,1.1-0.8,1.6c-0.4,0.6-0.7,1.3-1.2,1.9c-0.5,0.7-1.1,1.5-1.7,2.2
	c-0.7,0.8-1.5,1.7-2.2,2.4c-0.9,0.9-1.9,1.8-2.9,2.7c-1.2,1-2.4,2-3.6,3c-1.2-1-2.5-1.9-3.6-3c-1-0.9-2-1.8-2.9-2.7
	c-0.8-0.8-1.5-1.6-2.2-2.4c-0.6-0.7-1.1-1.4-1.7-2.2c-0.4-0.6-0.8-1.2-1.2-1.9c-0.3-0.5-0.5-1-0.8-1.6c-0.6-1.4-0.8-3-0.5-4.5
	c0.1-0.7,0.4-1.4,0.8-1.9c0.6-1,1.5-1.8,2.5-2.3s2-0.8,3.1-0.8c3.6,0,6.5,2.9,6.5,6.5c0-3.6,2.9-6.5,6.5-6.5c1.1,0,2.2,0.3,3.1,0.8
	c1,0.5,1.9,1.4,2.5,2.3c0.4,0.6,0.6,1.3,0.8,1.9C5775.6-5001.9,5775.3-5000.4,5774.7-4999z"/>
<rect x="-1578.4" y="-5858" class="st2" width="283.5" height="283.5"/>
<rect x="-1578.4" y="-5575" class="st2" width="283.5" height="283.5"/>
<rect x="-1578.4" y="-5292" class="st2" width="283.5" height="283.5"/>
<circle class="st2" cx="-1436.3" cy="-5716.5" r="141.7"/>
<path class="st2" d="M-1294.5-5716.5c15.5,120.7-283.9,424.5-283.9,424.5h283.5"/>
<path class="st2" d="M-182-5574.5c0-78.3,63.5-141.7,141.7-141.7s141.7,63.5,141.7,141.7"/>
<path class="st2" d="M101.5-5574.5c0,190.3-283.9,424.5-283.9,424.5l283.8-0.4"/>
<path class="st2" d="M102.1-5574.8c0-78.3,63.5-141.7,141.7-141.7s141.7,63.5,141.7,141.7"/>
<path class="st2" d="M385.6-5574.8c0,190.3-283.9,424.5-283.9,424.5l283.8-0.4"/>
<path class="st2" d="M-839-5574.5c0-78.3,63.5-141.7,141.7-141.7s141.7,63.5,141.7,141.7"/>
<path class="st2" d="M-555.5-5574.5c0,190.3-283.9,424.5-283.9,424.5l283.8-0.4"/>
<path class="st2" d="M-554.9-5574.8c0-78.3,63.5-141.7,141.7-141.7s141.7,63.5,141.7,141.7"/>
<path class="st2" d="M-271.4-5574.8c0,190.3-283.9,424.5-283.9,424.5l283.8-0.4"/>
<path class="st2" d="M2244.6-6973.9c0-78.3,63.5-141.7,141.7-141.7s141.7,63.5,141.7,141.7"/>
<path class="st2" d="M2528.1-6691.7c0,78.3-63.5,141.7-141.7,141.7s-141.7-63.5-141.7-141.7"/>
<path class="st2" d="M2812.1-6691.7c0,78.3-63.5,141.7-141.7,141.7s-141.7-63.5-141.7-141.7"/>
<path class="st2" d="M2528.1-6973.9c0,190.3-283.9,424.5-283.9,424.5l283.8-0.4"/>
<path class="st2" d="M2528.7-6974.2c0-78.3,63.5-141.7,141.7-141.7c78.3,0,141.7,63.5,141.7,141.7"/>
<path class="st2" d="M2812.2-6974.2c0,190.3-283.9,424.5-283.9,424.5l283.8-0.4"/>
<path class="st2" d="M2244.6-6122.9c0-78.3,63.5-141.7,141.7-141.7s141.7,63.5,141.7,141.7"/>
<path class="st2" d="M2528.1-5840.7c0,78.3-63.5,141.7-141.7,141.7s-141.7-63.5-141.7-141.7"/>
<path class="st2" d="M2812.1-5840.7c0,78.3-63.5,141.7-141.7,141.7s-141.7-63.5-141.7-141.7"/>
<path class="st2" d="M2528.1-6122.9c0,190.3-283.9,424.5-283.9,424.5"/>
<path class="st2" d="M2528.7-6123.2c0-78.3,63.5-141.7,141.7-141.7c78.3,0,141.7,63.5,141.7,141.7"/>
<path class="st2" d="M2812.2-6123.2c0,190.3-283.9,424.5-283.9,424.5"/>
<path class="st2" d="M2244.6-4875.9c0-78.3,63.5-141.7,141.7-141.7s141.7,63.5,141.7,141.7"/>
<path class="st2" d="M1961.6-4875.9c0-78.3,63.5-141.7,141.7-141.7c78.3,0,141.7,63.5,141.7,141.7"/>
<path class="st2" d="M2528.1-4593.7c0,78.3-63.5,141.7-141.7,141.7s-141.7-63.5-141.7-141.7"/>
<path class="st2" d="M2812.1-4593.7c0,78.3-63.5,141.7-141.7,141.7s-141.7-63.5-141.7-141.7"/>
<path class="st2" d="M3096.1-4593.7c0,78.3-63.5,141.7-141.7,141.7s-141.7-63.5-141.7-141.7"/>
<path class="st2" d="M2528.1-4875.9c0,190.3-283.9,424.5-283.9,424.5"/>
<path class="st2" d="M2528.7-4876.2c0-78.3,63.5-141.7,141.7-141.7c78.3,0,141.7,63.5,141.7,141.7"/>
<path class="st2" d="M2812.2-4876.2c0,190.3-283.9,424.5-283.9,424.5"/>
<path class="st2" d="M-5786-2309.1c0-78.3,63.5-141.7,141.7-141.7c78.3,0,141.7,63.5,141.7,141.7"/>
<path class="st2" d="M-6069-2309.1c0-78.3,63.5-141.7,141.7-141.7c78.3,0,141.7,63.5,141.7,141.7"/>
<path class="st2" d="M-5502.5-2026.9c0,78.3-63.5,141.7-141.7,141.7"/>
<path class="st2" d="M-5218.5-2026.9c0,78.3-63.5,141.7-141.7,141.7c-78.3,0-141.7-63.5-141.7-141.7"/>
<path class="st2" d="M-4934.5-2026.9c0,78.3-63.5,141.7-141.7,141.7c-78.3,0-141.7-63.5-141.7-141.7"/>
<path class="st2" d="M-5502.5-2309.1c0,190.3-283.9,424.5-283.9,424.5l142.1-0.5"/>
<path class="st2" d="M-5501.9-2309.4c0-78.3,63.5-141.7,141.7-141.7c78.3,0,141.7,63.5,141.7,141.7"/>
<path class="st2" d="M-5218.4-2309.4c0,190.3-283.9,424.5-283.9,424.5h142"/>
<path class="st2" d="M-4289-3505.4c0-78.3,63.5-141.7,141.7-141.7c78.3,0,141.7,63.5,141.7,141.7"/>
<path class="st2" d="M-3430.5-3219.1c0,78.3-63.5,141.7-141.7,141.7s-148.7-67.5-148.7-145.7"/>
<path class="st2" d="M-4006-3505.4c0-78.3,63.5-141.7,141.7-141.7s141.7,63.5,141.7,141.7c0,190.3-283.9,424.5-283.9,424.5
	l142.1-0.5c78.3,0,141.7-63.5,141.7-141.7"/>
<path class="st2" d="M-3580.2-3081.1"/>
<path class="st2" d="M-4289-1362.1c0-78.3,63.5-141.7,141.7-141.7c78.3,0,141.7,63.5,141.7,141.7"/>
<path class="st2" d="M-4572-1362.1c0-78.3,63.5-141.7,141.7-141.7c78.3,0,141.7,63.5,141.7,141.7"/>
<path class="st2" d="M-4005.5-1079.9c0,78.3-63.5,141.7-141.7,141.7"/>
<path class="st2" d="M-3721.5-1079.9c0,78.3-63.5,141.7-141.7,141.7s-141.7-63.5-141.7-141.7"/>
<path class="st2" d="M-3437.5-1079.9c0,78.3-63.5,141.7-141.7,141.7s-141.7-63.5-141.7-141.7"/>
<path class="st2" d="M-4005.5-1362.1c0,190.3-283.9,424.5-283.9,424.5l142.1-0.5"/>
<path class="st2" d="M-4004.9-1362.4c0-78.3,63.5-141.7,141.7-141.7c78.3,0,141.7,63.5,141.7,141.7"/>
<path class="st2" d="M-3721.4-1362.4c0,190.3-283.9,424.5-283.9,424.5h142"/>
<path class="st2" d="M-3935-2380.1c0-78.3,63.5-141.7,141.7-141.7s141.7,63.5,141.7,141.7"/>
<path class="st2" d="M-4218-2380.1c0-78.3,63.5-141.7,141.7-141.7s141.7,63.5,141.7,141.7"/>
<path class="st2" d="M-3651.5-2097.9c0,78.3-63.5,141.7-141.7,141.7s-141.7-63.5-141.7-141.7"/>
<path class="st2" d="M-3367.5-2097.9c0,78.3-63.5,141.7-141.7,141.7s-141.7-63.5-141.7-141.7"/>
<path class="st2" d="M-3083.5-2097.9c0,78.3-63.5,141.7-141.7,141.7s-141.7-63.5-141.7-141.7"/>
<path class="st2" d="M-3651.5-2380.1c0,190.3-283.9,424.5-283.9,424.5"/>
<path class="st2" d="M-3650.9-2380.4c0-78.3,63.5-141.7,141.7-141.7c78.3,0,141.7,63.5,141.7,141.7"/>
<path class="st2" d="M-3367.4-2380.4c0,190.3-283.9,424.5-283.9,424.5"/>
<path class="st2" d="M3324.6-6122.9c0-78.3,63.5-141.7,141.7-141.7s141.7,63.5,141.7,141.7"/>
<path class="st2" d="M3608.1-6122.9c0,190.3-283.9,424.5-283.9,424.5"/>
<path class="st2" d="M3608.7-6123.2c0-78.3,63.5-141.7,141.7-141.7c78.3,0,141.7,63.5,141.7,141.7"/>
<path class="st2" d="M3892.2-6123.2c0,190.3-283.9,424.5-283.9,424.5"/>
<path class="st2" d="M3324.6-5575.4c0,78.3,63.5,141.7,141.7,141.7s141.7-63.5,141.7-141.7"/>
<path class="st2" d="M3608.1-5575.4c0-190.3-283.9-424.5-283.9-424.5"/>
<path class="st2" d="M3608.7-5575.1c0,78.3,63.5,141.7,141.7,141.7c78.3,0,141.7-63.5,141.7-141.7"/>
<path class="st2" d="M3892.2-5575.1c0-190.3-283.9-424.5-283.9-424.5"/>
<path d="M5512-30.9c0-78.3-63.5-141.7-141.7-141.7c-77.4,0-140.3,62.1-141.7,139.1c-1.4-77.1-64.3-139.1-141.7-139.1
	c-78.3,0-141.7,63.5-141.7,141.7c0,184.2,265.9,409.5,283,423.8v0.7c0,0,0.1-0.1,0.4-0.4c0.3,0.2,0.4,0.4,0.4,0.4v-0.7
	C5246,378.6,5512,153.2,5512-30.9z"/>
<g>
	<path class="st3" d="M5018.4-56.8c0-60.1,48.7-108.8,108.8-108.8S5236-116.9,5236-56.8"/>
	<path class="st3" d="M5235.9-56.8c0,146-217.8,325.8-217.8,325.8l217.8-0.3"/>
	<path class="st3" d="M5236.4-57c0-60.1,48.7-108.8,108.8-108.8S5454-117.1,5454-57"/>
	<path class="st3" d="M5453.9-57c0,146-217.8,325.8-217.8,325.8l217.8-0.3"/>
</g>
<rect x="-4221" y="-2249.5" class="st4" width="2834.3" height="2834.3"/>
<rect x="2872.8" y="1423.4" class="st4" width="2324.4" height="1020.5"/>
<g class="st5">
	<g>
		<g>
			<path class="st6" d="M6088.6-2784.2c0-53.1-43.1-96.2-96.2-96.2s-96.2,43.1-96.2,96.2"/>
			<path class="st6" d="M5511.7-2784.2c0-53.1,43.1-96.2,96.2-96.2s96.2,43.1,96.2,96.2c0-53.1,43.1-96.2,96.2-96.2
				s96.2,43.1,96.2,96.2c0,129.1-192.6,288-192.6,288l96.4-0.4c53.1,0,96.2-43.1,96.2-96.2c0,53.1,43.1,96.2,96.2,96.2
				s96.2-43.1,96.2-96.2"/>
		</g>
	</g>
	<g>
		<g>
			<path class="st6" d="M5511.7-2592.7c0,53.1,43.1,96.2,96.2,96.2s96.2-43.1,96.2-96.2"/>
		</g>
	</g>
	<g>
		<g>
			<path class="st6" d="M5127-2784.2c0-53.1,43.1-96.2,96.2-96.2s96.2,43.1,96.2,96.2c0-53.1,43.1-96.2,96.2-96.2
				s96.2,43.1,96.2,96.2c0,129.1-192.6,288-192.6,288l96.4-0.4c53.1,0,96.2-43.1,96.2-96.2"/>
			<path class="st6" d="M5528.1-2595.2"/>
		</g>
	</g>
</g>
<rect x="-20.1" y="-4372.7" class="st7" width="1920" height="1080"/>
<g class="st5">
	<g>
		<g>
			<path class="st6" d="M1420.7-3928.6c0-53.1-43.1-96.2-96.2-96.2s-96.2,43.1-96.2,96.2"/>
			<path class="st6" d="M843.8-3928.6c0-53.1,43.1-96.2,96.2-96.2s96.2,43.1,96.2,96.2c0-53.1,43.1-96.2,96.2-96.2
				s96.2,43.1,96.2,96.2c0,129.1-192.6,288-192.6,288l96.4-0.4c53.1,0,96.2-43.1,96.2-96.2c0,53.1,43.1,96.2,96.2,96.2
				s96.2-43.1,96.2-96.2"/>
		</g>
	</g>
	<g>
		<g>
			<path class="st6" d="M843.8-3737.1c0,53.1,43.1,96.2,96.2,96.2s96.2-43.1,96.2-96.2"/>
		</g>
	</g>
	<g>
		<g>
			<path class="st6" d="M459.1-3928.6c0-53.1,43.1-96.2,96.2-96.2s96.2,43.1,96.2,96.2c0-53.1,43.1-96.2,96.2-96.2
				c53.1,0,96.2,43.1,96.2,96.2c0,129.1-192.6,288-192.6,288l96.4-0.4c53.1,0,96.2-43.1,96.2-96.2"/>
			<path class="st6" d="M860.2-3739.7"/>
		</g>
	</g>
</g>
<g>
	<g>
		<g>
			<path class="st8" d="M2270.1-1605.7c0-9.6-7.8-17.3-17.3-17.3s-17.3,7.8-17.3,17.3"/>
			<path class="st8" d="M2166.2-1605.7c0-9.6,7.8-17.3,17.3-17.3c9.6,0,17.3,7.8,17.3,17.3c0-9.6,7.8-17.3,17.3-17.3
				c9.6,0,17.3,7.8,17.3,17.3c0,23.2-34.7,51.9-34.7,51.9l17.4-0.1c9.6,0,17.3-7.8,17.3-17.3c0,9.6,7.8,17.3,17.3,17.3
				s17.3-7.8,17.3-17.3"/>
		</g>
	</g>
	<g>
		<g>
			<path class="st8" d="M2166.2-1571.2c0,9.6,7.8,17.3,17.3,17.3c9.6,0,17.3-7.8,17.3-17.3"/>
		</g>
	</g>
	<g>
		<g>
			<path class="st8" d="M2096.9-1605.7c0-9.6,7.8-17.3,17.3-17.3s17.3,7.8,17.3,17.3c0-9.6,7.8-17.3,17.3-17.3
				c9.6,0,17.3,7.8,17.3,17.3c0,23.2-34.7,51.9-34.7,51.9l17.4-0.1c9.6,0,17.3-7.8,17.3-17.3"/>
			<path class="st8" d="M2169.2-1571.7"/>
		</g>
	</g>
</g>
<g>
	<g>
		<g>
			<path class="st9" d="M3948.8-2644.6c0-20.1-16.3-36.3-36.3-36.3s-36.3,16.3-36.3,36.3"/>
			<path class="st9" d="M3730.9-2644.6c0-20.1,16.3-36.3,36.3-36.3c20.1,0,36.3,16.3,36.3,36.3c0-20.1,16.3-36.3,36.3-36.3
				s36.3,16.3,36.3,36.3c0,48.7-72.7,108.8-72.7,108.8l36.4-0.1c20.1,0,36.3-16.3,36.3-36.3c0,20.1,16.3,36.3,36.3,36.3
				s36.3-16.3,36.3-36.3"/>
		</g>
	</g>
	<g>
		<g>
			<path class="st9" d="M3730.9-2572.3c0,20.1,16.3,36.3,36.3,36.3c20.1,0,36.3-16.3,36.3-36.3"/>
		</g>
	</g>
	<g>
		<g>
			<path class="st9" d="M3585.7-2644.6c0-20.1,16.3-36.3,36.3-36.3s36.3,16.3,36.3,36.3c0-20.1,16.3-36.3,36.3-36.3
				c20.1,0,36.3,16.3,36.3,36.3c0,48.7-72.7,108.8-72.7,108.8l36.4-0.1c20.1,0,36.3-16.3,36.3-36.3"/>
			<path class="st9" d="M3737.1-2573.2"/>
		</g>
	</g>
</g>
<g>
	<g>
		<g>
			<path class="st9" d="M7414.3-3845.9c0-20.1-16.3-36.3-36.3-36.3c-20.1,0-36.3,16.3-36.3,36.3"/>
			<path class="st9" d="M7196.5-3845.9c0-20.1,16.3-36.3,36.3-36.3s36.3,16.3,36.3,36.3c0-20.1,16.3-36.3,36.3-36.3
				s36.3,16.3,36.3,36.3c0,48.7-72.7,108.8-72.7,108.8l36.4-0.1c20.1,0,36.3-16.3,36.3-36.3c0,20.1,16.3,36.3,36.3,36.3
				c20.1,0,36.3-16.3,36.3-36.3"/>
		</g>
	</g>
	<g>
		<g>
			<path class="st9" d="M7196.5-3773.6c0,20.1,16.3,36.3,36.3,36.3s36.3-16.3,36.3-36.3"/>
		</g>
	</g>
	<g>
		<g>
			<path class="st9" d="M7051.3-3845.9c0-20.1,16.3-36.3,36.3-36.3s36.3,16.3,36.3,36.3c0-20.1,16.3-36.3,36.3-36.3
				s36.3,16.3,36.3,36.3c0,48.7-72.7,108.8-72.7,108.8l36.4-0.1c20.1,0,36.3-16.3,36.3-36.3"/>
			<path class="st9" d="M7202.7-3774.5"/>
		</g>
	</g>
</g>
<g>
	<g>
		<g>
			<path class="st10" d="M3051.6-1522c0-36.7-29.7-66.4-66.4-66.4s-66.4,29.7-66.4,66.4"/>
			<path class="st10" d="M2653.4-1522c0-36.7,29.7-66.4,66.4-66.4s66.4,29.7,66.4,66.4c0-36.7,29.7-66.4,66.4-66.4
				s66.4,29.7,66.4,66.4c0,89.1-132.9,198.8-132.9,198.8l66.6-0.3c36.7,0,66.4-29.7,66.4-66.4c0,36.7,29.7,66.4,66.4,66.4
				s66.4-29.7,66.4-66.4"/>
		</g>
	</g>
	<g>
		<g>
			<path class="st10" d="M2653.4-1389.9c0,36.7,29.7,66.4,66.4,66.4s66.4-29.7,66.4-66.4"/>
		</g>
	</g>
	<g>
		<g>
			<path class="st10" d="M2387.9-1522c0-36.7,29.7-66.4,66.4-66.4s66.4,29.7,66.4,66.4c0-36.7,29.7-66.4,66.4-66.4
				s66.4,29.7,66.4,66.4c0,89.1-132.9,198.8-132.9,198.8l66.6-0.3c36.7,0,66.4-29.7,66.4-66.4"/>
			<path class="st10" d="M2664.7-1391.6"/>
		</g>
	</g>
</g>
<g>
	<g>
		<g>
			<path class="st11" d="M2832.9-2187.4c0-19.8-16.1-35.9-35.9-35.9s-35.9,16.1-35.9,35.9"/>
			<path class="st11" d="M2689.2-2079.8l36-0.1c19.8,0,35.9-16.1,35.9-35.9c0,19.8,16.1,35.9,35.9,35.9s35.9-16.1,35.9-35.9"/>
			<path class="st11" d="M2617.5-2187.4c0-19.8,16.1-35.9,35.9-35.9s35.9,16.1,35.9,35.9c0-19.8,16.1-35.9,35.9-35.9
				s35.9,16.1,35.9,35.9"/>
		</g>
	</g>
	<g>
		<g>
			<path class="st11" d="M2617.5-2115.9c0,19.8,16.1,35.9,35.9,35.9s35.9-16.1,35.9-35.9"/>
		</g>
	</g>
	<g>
		<g>
			<path class="st11" d="M2545.6-2079.8l36-0.1c19.8,0,35.9-16.1,35.9-35.9"/>
			<path class="st11" d="M2473.9-2187.4c0-19.8,16.1-35.9,35.9-35.9s35.9,16.1,35.9,35.9c0-19.8,16.1-35.9,35.9-35.9
				s35.9,16.1,35.9,35.9"/>
			<path class="st11" d="M2623.6-2116.8"/>
		</g>
	</g>
</g>
<g>
	<g>
		<path class="st12" d="M-560.8,3370.7c0-53.1,43.1-96.2,96.2-96.2s96.2,43.1,96.2,96.2c0-53.1,43.1-96.2,96.2-96.2
			s96.2,43.1,96.2,96.2c0,129.1-192.6,288-192.6,288l96.4-0.4c53.1,0,96.2-43.1,96.2-96.2c0,53.1,43.1,96.2,96.2,96.2
			s96.2-43.1,96.2-96.2"/>
	</g>
	<g>
		<path class="st12" d="M208.5,3370.7c0-53.1,43.1-96.2,96.2-96.2s96.2,43.1,96.2,96.2"/>
		<path class="st12" d="M-176.1,3370.7c0-53.1,43.1-96.2,96.2-96.2s96.2,43.1,96.2,96.2c0-53.1,43.1-96.2,96.2-96.2
			s96.2,43.1,96.2,96.2c0,129.1-192.6,288-192.6,288l96.4-0.4c53.1,0,96.2-43.1,96.2-96.2c0,53.1,43.1,96.2,96.2,96.2
			s96.2-43.1,96.2-96.2"/>
	</g>
</g>
<g>
	<g>
		<path class="st12" d="M2079.7,3683.2c0-53.1,43.1-96.2,96.2-96.2c53.1,0,96.2,43.1,96.2,96.2c0-53.1,43.1-96.2,96.2-96.2
			c53.1,0,96.2,43.1,96.2,96.2c0,129.1-192.6,288-192.6,288l96.4-0.4c53.1,0,96.2-43.1,96.2-96.2c0,53.1,43.1,96.2,96.2,96.2
			c53.1,0,96.2-43.1,96.2-96.2"/>
	</g>
	<g>
		<path class="st12" d="M2849,3683.2c0-53.1,43.1-96.2,96.2-96.2c53.1,0,96.2,43.1,96.2,96.2"/>
		<path class="st12" d="M2464.3,3683.2c0-53.1,43.1-96.2,96.2-96.2c53.1,0,96.2,43.1,96.2,96.2c0-53.1,43.1-96.2,96.2-96.2
			c53.1,0,96.2,43.1,96.2,96.2c0,129.1-192.6,288-192.6,288l96.4-0.4c53.1,0,96.2-43.1,96.2-96.2c0,53.1,43.1,96.2,96.2,96.2
			c53.1,0,96.2-43.1,96.2-96.2"/>
	</g>
</g>
<text transform="matrix(1 0 0 1 2816.8564 4389.7021)" style="font-family:'ArialMT'; font-size:49.7007px;">#LOVE2020</text>
<g>
	<g>
		<path class="st13" d="M840-7019.5v191.5c0,53.1-43.1,96.2-96.2,96.2s-96.2-43.1-96.2-96.2c0,53.1-43.1,96.2-96.2,96.2l-96.4,0.4
			c0,0,192.6-159,192.6-288c0-53.1-43.1-96.2-96.2-96.2s-96.2,43.1-96.2,96.2c0-53.1-43.1-96.2-96.2-96.2s-96.2,43.1-96.2,96.2"/>
	</g>
	<g>
		<path class="st13" d="M647.6-7019.5c0-53.1,43.1-96.2,96.2-96.2s96.2,43.1,96.2,96.2c0-53.1,43.1-96.2,96.2-96.2
			c53.1,0,96.2,43.1,96.2,96.2c0,129.1-192.6,288-192.6,288l96.4-0.4c53.1,0,96.2-43.1,96.2-96.2c0,53.1,43.1,96.2,96.2,96.2
			s96.2-43.1,96.2-96.2v-191.5c0-53.1-43.1-96.2-96.2-96.2s-96.2,43.1-96.2,96.2"/>
	</g>
</g>
<g>
	<g>
		<path class="st13" d="M455.6-6731.5c0,0-192.6-159-192.6-288"/>
		<path class="st13" d="M664.1-6639"/>
		<path class="st13" d="M664.1-6830.6"/>
	</g>
</g>
<g>
	<g>
		<path class="st13" d="M5622.9-4244.5v191.5c0,53.1-43.1,96.2-96.2,96.2s-96.2-43.1-96.2-96.2c0,53.1-43.1,96.2-96.2,96.2
			l-96.4,0.4c0,0,192.6-159,192.6-288c0-53.1-43.1-96.2-96.2-96.2s-96.2,43.1-96.2,96.2c0-53.1-43.1-96.2-96.2-96.2
			s-96.2,43.1-96.2,96.2"/>
	</g>
	<g>
		<path class="st13" d="M5430.6-4244.5c0-53.1,43.1-96.2,96.2-96.2s96.2,43.1,96.2,96.2c0-53.1,43.1-96.2,96.2-96.2
			s96.2,43.1,96.2,96.2c0,129.1-192.6,288-192.6,288l96.4-0.4c53.1,0,96.2-43.1,96.2-96.2c0,53.1,43.1,96.2,96.2,96.2
			s96.2-43.1,96.2-96.2v-191.5c0-53.1-43.1-96.2-96.2-96.2s-96.2,43.1-96.2,96.2"/>
	</g>
</g>
<g>
	<g>
		<path class="st13" d="M5238.5-3956.5c0,0-192.6-159-192.6-288"/>
		<path class="st13" d="M5447-3864"/>
		<path class="st13" d="M5447-4055.6"/>
	</g>
</g>
<g>
	<path class="st14" d="M2206.7-2426.3c0,0.2-0.1,0.5-0.1,0.7l-5.1,12.6c-0.4,1-1.4,1.7-2.5,1.7c-1.2,0-2.1-0.7-2.5-1.7l-5.2-12.7
		c-0.1-0.2-0.1-0.4-0.1-0.6c0-1,0.8-1.8,1.7-1.8c0.7,0,1.4,0.5,1.7,1.1l4.4,11.4l4.4-11.4c0.2-0.6,0.9-1.1,1.7-1.1
		C2205.9-2428.1,2206.7-2427.3,2206.7-2426.3z"/>
	<path class="st14" d="M2223.3-2422.3v9.3c0,1-0.8,1.8-1.8,1.8c-0.9,0-1.8-0.8-1.8-1.8v-0.2c-1.2,1.4-3.1,2.2-5.3,2.2
		c-2.7,0-5.7-1.8-5.7-5.4c0-3.8,3-5.3,5.7-5.3c2.2,0,4.1,0.7,5.3,2.1v-2.4c0-1.9-1.6-3-3.8-3c-1.4,0-2.6,0.4-3.8,1.2
		c-0.2,0.1-0.5,0.2-0.8,0.2c-0.8,0-1.4-0.6-1.4-1.4c0-0.5,0.3-0.9,0.6-1.2c1.8-1.3,3.8-1.9,6-1.9
		C2220.1-2428.3,2223.3-2426.7,2223.3-2422.3z M2219.7-2415.2v-2.5c-0.8-1.1-2.3-1.7-3.9-1.7c-2,0-3.5,1.2-3.5,2.9
		c0,1.8,1.5,2.9,3.5,2.9C2217.4-2413.5,2218.9-2414.1,2219.7-2415.2z M2215.8-2431.7c0-0.2,0.1-0.5,0.3-0.6l3.3-3.4
		c0.2-0.2,0.5-0.3,0.8-0.3c0.6,0,1.1,0.5,1.1,1.1c0,0.3-0.1,0.6-0.4,0.8l-3.6,3.1c-0.1,0.1-0.4,0.2-0.6,0.2
		C2216.2-2430.8,2215.8-2431.2,2215.8-2431.7z"/>
	<path class="st14" d="M2251.5-2423.3v10.2c0,1-0.8,1.8-1.8,1.8c-0.9,0-1.8-0.8-1.8-1.8v-9.1c0-1.8-0.8-2.9-2.7-2.9
		c-1.6,0-3.1,1.1-3.8,2.2v9.9c0,1-0.8,1.8-1.8,1.8c-0.9,0-1.8-0.8-1.8-1.8v-9.1c0-1.8-0.8-2.9-2.7-2.9c-1.6,0-3,1.1-3.8,2.2v9.8
		c0,1-0.8,1.8-1.8,1.8s-1.8-0.8-1.8-1.8v-13.2c0-1,0.8-1.8,1.8-1.8s1.8,0.8,1.8,1.8v0.6c0.7-1,2.8-2.6,5.3-2.6c2.4,0,3.9,1.2,4.5,3
		c0.9-1.5,3.1-3,5.6-3C2249.8-2428.3,2251.5-2426.6,2251.5-2423.3z"/>
	<path class="st14" d="M2278.8-2426.3c0,0.2-0.1,0.5-0.1,0.7l-5.1,12.6c-0.4,1-1.4,1.7-2.5,1.7c-1.2,0-2.1-0.7-2.5-1.7l-5.2-12.7
		c-0.1-0.2-0.1-0.4-0.1-0.6c0-1,0.8-1.8,1.7-1.8c0.7,0,1.4,0.5,1.7,1.1l4.4,11.4l4.4-11.4c0.2-0.6,0.9-1.1,1.7-1.1
		C2278.1-2428.1,2278.8-2427.3,2278.8-2426.3z"/>
	<path class="st14" d="M2280.7-2414.1c0-0.8,0.7-1.5,1.5-1.5c0.3,0,0.6,0.1,0.8,0.2c1.3,0.8,2.9,1.5,4.5,1.5c2.1,0,3.2-0.8,3.2-2
		c0-1.4-1.7-1.9-3.7-2.4c-2.8-0.6-6.2-1.4-6.2-5c0-2.7,2.3-5,6.4-5c2.2,0,4,0.6,5.5,1.6c0.4,0.3,0.6,0.7,0.6,1.2
		c0,0.8-0.6,1.4-1.4,1.4c-0.3,0-0.6-0.1-0.8-0.2c-1-0.7-2.4-1.1-3.9-1.1c-1.9,0-3,0.7-3,1.8c0,1.3,1.6,1.7,3.6,2.1
		c2.8,0.6,6.3,1.4,6.3,5.3c0,2.9-2.4,5.1-6.8,5.1c-2.2,0-4.3-0.6-6-1.7C2281-2413.1,2280.7-2413.6,2280.7-2414.1z M2291.4-2435.1
		c0,0.2,0,0.3-0.1,0.5l-1.9,3c-0.3,0.5-1,0.8-1.6,0.8h-0.9c-0.6,0-1.3-0.3-1.6-0.8l-1.9-3c-0.1-0.1-0.1-0.3-0.1-0.5c0-0.6,0.4-1,1-1
		c0.3,0,0.5,0.1,0.7,0.3l2.4,3.1l2.4-3.1c0.2-0.2,0.4-0.3,0.7-0.3C2291-2436.1,2291.4-2435.7,2291.4-2435.1z"/>
	<path class="st14" d="M2305.1-2428.3c4.9,0,8.1,3.8,8.1,8.1c0,1-0.7,1.7-2.1,1.7h-10.5c0.3,2.5,2.1,4.5,5.2,4.5
		c1.2,0,2.6-0.4,3.7-1.1c0.2-0.1,0.5-0.2,0.8-0.2c0.8,0,1.4,0.6,1.4,1.4c0,0.5-0.3,0.9-0.6,1.2c-1.6,1.1-3.6,1.6-5.7,1.6
		c-4.9,0-8.6-3.4-8.6-8.6C2296.8-2424.4,2300.3-2428.3,2305.1-2428.3z M2300.5-2421h9.2c-0.1-1.9-1.4-4.3-4.6-4.3
		C2302.1-2425.4,2300.7-2423,2300.5-2421z"/>
	<path class="st14" d="M2340.3-2423.3v10.2c0,1-0.8,1.8-1.8,1.8c-0.9,0-1.8-0.8-1.8-1.8v-9.1c0-1.8-0.8-2.9-2.7-2.9
		c-1.6,0-3.1,1.1-3.8,2.2v9.9c0,1-0.8,1.8-1.8,1.8c-0.9,0-1.8-0.8-1.8-1.8v-9.1c0-1.8-0.8-2.9-2.7-2.9c-1.6,0-3,1.1-3.8,2.2v9.8
		c0,1-0.8,1.8-1.8,1.8s-1.8-0.8-1.8-1.8v-13.2c0-1,0.8-1.8,1.8-1.8s1.8,0.8,1.8,1.8v0.6c0.7-1,2.8-2.6,5.3-2.6c2.4,0,3.9,1.2,4.5,3
		c0.9-1.5,3.1-3,5.6-3C2338.6-2428.3,2340.3-2426.6,2340.3-2423.3z"/>
	<path class="st14" d="M2346.8-2415.9c1.3,0,2.4,1.1,2.4,2.4c0,1.3-1.1,2.3-2.4,2.3c-1.3,0-2.3-1.1-2.3-2.3
		C2344.4-2414.8,2345.5-2415.9,2346.8-2415.9z M2345.2-2419.7l-0.5-12.4c0-1.2,0.9-2.2,2.1-2.2c1.2,0,2.1,0.9,2.1,2.2l-0.5,12.4
		c0,0.9-0.7,1.5-1.6,1.5S2345.2-2418.8,2345.2-2419.7z"/>
</g>
<g class="st15">
	<g>
		<g>
			<g>
				<g>
					<path class="st16" d="M902.9,3541.8"/>
					<path class="st16" d="M935.3,3526.5"/>
				</g>
			</g>
		</g>
		<g>
			<g>
				<g>
					<path class="st16" d="M944.9,3497.2v29.7c0,8.2,6.7,14.9,14.9,14.9s14.9-6.7,14.9-14.9v-29.7c0-8.2-6.7-14.9-14.9-14.9
						S944.9,3489,944.9,3497.2"/>
					<path class="st16" d="M944.9,3497.2"/>
				</g>
			</g>
		</g>
		<g>
			<g>
				<g>
					<path class="st16" d="M1026.4,3497.2v29.7c0,8.2,6.7,14.9,14.9,14.9s14.9-6.7,14.9-14.9v-29.7c0-8.2-6.7-14.9-14.9-14.9
						S1026.4,3489,1026.4,3497.2"/>
					<path class="st16" d="M1026.4,3497.2"/>
				</g>
			</g>
		</g>
		<g>
			<g>
				<g>
					<path class="st16" d="M984.4,3541.8"/>
					<path class="st16" d="M1016.8,3526.5"/>
				</g>
			</g>
		</g>
		<g>
			<g>
				<path class="st17" d="M861,3541.8c0,0-29.8-24.6-29.8-44.6c0-8.2,6.7-14.9,14.9-14.9s14.9,6.7,14.9,14.9
					c0-8.2,6.7-14.9,14.9-14.9s14.9,6.7,14.9,14.9C890.8,3517.2,861,3541.8,861,3541.8"/>
			</g>
		</g>
	</g>
	<path class="st16" d="M932.7,3541.8l-14.9-0.1l-14.9,0.1c0,0,29.8-24.6,29.8-44.6c0-8.2-6.7-14.9-14.9-14.9s-14.9,6.7-14.9,14.9"/>
	<path class="st16" d="M1014.2,3541.8l-14.9-0.1l-14.9,0.1c0,0,29.8-24.6,29.8-44.6c0-8.2-6.7-14.9-14.9-14.9s-14.9,6.7-14.9,14.9"
		/>
</g>
<g>
	<g>
		<g>
			<g>
				<path class="st14" d="M2261.7-2452.1c-3.9-3.5-14.2-13.7-14.2-22.2c0-4.3,3.5-7.8,7.8-7.8c4,0,7.4,3.1,7.8,7
					c0,0.1,0.1,0.1,0.1,0c0.4-3.9,3.8-7,7.8-7c4.3,0,7.9,3.5,7.8,7.9c0,8.5-10.3,18.6-14.2,22.2
					C2263.9-2451.3,2262.6-2451.3,2261.7-2452.1z"/>
			</g>
		</g>
	</g>
</g>
<g>
	<g>
		<g>
			<g>
				<path class="st18" d="M-3808,825.8c0-47.2,38.3-85.5,85.5-85.5s85.5,38.3,85.5,85.5c0-47.2,38.3-85.5,85.5-85.5
					s85.5,38.3,85.5,85.5c0,114.8-171.3,256.1-171.3,256.1l85.8-0.3c47.2,0,85.5-38.3,85.5-85.5c0,47.2,38.3,85.5,85.5,85.5
					s85.5-38.3,85.5-85.5V825.8c0-47.2-38.3-85.5-85.5-85.5s-85.5,38.3-85.5,85.5"/>
			</g>
		</g>
		<g>
			<g>
				<path class="st18" d="M-3979.3,1082c0,0-170.8-141.3-170.8-256.1c0-47.2,38.3-85.5,85.5-85.5c47.2,0,85.5,38.3,85.5,85.5
					c0-47.2,38.3-85.5,85.5-85.5s85.5,38.3,85.5,85.5C-3808,940.6-3979.3,1082-3979.3,1082l85.8-0.3c47.2,0,85.5-38.3,85.5-85.5
					c0,47.2,38.3,85.5,85.5,85.5s85.5-38.3,85.5-85.5V825.8"/>
				<path class="st18" d="M-3793.4,993.9"/>
			</g>
		</g>
	</g>
</g>
<g>
	<g>
		<path class="st19" d="M897.2-2057.3c0,0.2-0.1,0.5-0.1,0.7L892-2044c-0.4,1-1.4,1.7-2.5,1.7c-1.2,0-2.1-0.7-2.5-1.7l-5.2-12.7
			c-0.1-0.2-0.1-0.4-0.1-0.6c0-1,0.8-1.8,1.7-1.8c0.7,0,1.4,0.5,1.7,1.1l4.4,11.4l4.4-11.4c0.2-0.6,0.9-1.1,1.7-1.1
			C896.4-2059,897.2-2058.3,897.2-2057.3z"/>
		<path class="st19" d="M913.8-2053.3v9.3c0,1-0.8,1.8-1.8,1.8c-0.9,0-1.8-0.8-1.8-1.8v-0.2c-1.2,1.4-3.1,2.2-5.3,2.2
			c-2.7,0-5.7-1.8-5.7-5.4c0-3.8,3-5.3,5.7-5.3c2.2,0,4.1,0.7,5.3,2.1v-2.4c0-1.9-1.6-3-3.8-3c-1.4,0-2.6,0.4-3.8,1.2
			c-0.2,0.1-0.5,0.2-0.8,0.2c-0.8,0-1.4-0.6-1.4-1.4c0-0.5,0.3-0.9,0.6-1.2c1.8-1.3,3.8-1.9,6-1.9
			C910.6-2059.2,913.8-2057.7,913.8-2053.3z M910.2-2046.2v-2.5c-0.8-1.1-2.3-1.7-3.9-1.7c-2,0-3.5,1.2-3.5,2.9
			c0,1.8,1.5,2.9,3.5,2.9C907.9-2044.5,909.4-2045.1,910.2-2046.2z M906.3-2062.7c0-0.2,0.1-0.5,0.3-0.6l3.3-3.4
			c0.2-0.2,0.5-0.3,0.8-0.3c0.6,0,1.1,0.5,1.1,1.1c0,0.3-0.1,0.6-0.4,0.8l-3.6,3.1c-0.1,0.1-0.4,0.2-0.6,0.2
			C906.7-2061.8,906.3-2062.2,906.3-2062.7z"/>
		<path class="st19" d="M942-2054.3v10.2c0,1-0.8,1.8-1.8,1.8c-0.9,0-1.8-0.8-1.8-1.8v-9.1c0-1.8-0.8-2.9-2.7-2.9
			c-1.6,0-3.1,1.1-3.8,2.2v9.9c0,1-0.8,1.8-1.8,1.8c-0.9,0-1.8-0.8-1.8-1.8v-9.1c0-1.8-0.8-2.9-2.7-2.9c-1.6,0-3,1.1-3.8,2.2v9.8
			c0,1-0.8,1.8-1.8,1.8s-1.8-0.8-1.8-1.8v-13.2c0-1,0.8-1.8,1.8-1.8s1.8,0.8,1.8,1.8v0.6c0.7-1,2.8-2.6,5.3-2.6c2.4,0,3.9,1.2,4.5,3
			c0.9-1.5,3.1-3,5.6-3C940.3-2059.2,942-2057.6,942-2054.3z"/>
		<path class="st19" d="M969.3-2057.3c0,0.2-0.1,0.5-0.1,0.7L964-2044c-0.4,1-1.4,1.7-2.5,1.7c-1.2,0-2.1-0.7-2.5-1.7l-5.2-12.7
			c-0.1-0.2-0.1-0.4-0.1-0.6c0-1,0.8-1.8,1.7-1.8c0.7,0,1.4,0.5,1.7,1.1l4.4,11.4l4.4-11.4c0.2-0.6,0.9-1.1,1.7-1.1
			C968.5-2059,969.3-2058.3,969.3-2057.3z"/>
		<path class="st19" d="M971.2-2045c0-0.8,0.7-1.5,1.5-1.5c0.3,0,0.6,0.1,0.8,0.2c1.3,0.8,2.9,1.5,4.5,1.5c2.1,0,3.2-0.8,3.2-2
			c0-1.4-1.7-1.9-3.7-2.4c-2.8-0.6-6.2-1.4-6.2-5c0-2.7,2.3-5,6.4-5c2.2,0,4,0.6,5.5,1.6c0.4,0.3,0.6,0.7,0.6,1.2
			c0,0.8-0.6,1.4-1.4,1.4c-0.3,0-0.6-0.1-0.8-0.2c-1-0.7-2.4-1.1-3.9-1.1c-1.9,0-3,0.7-3,1.8c0,1.3,1.6,1.7,3.6,2.1
			c2.8,0.6,6.3,1.4,6.3,5.3c0,2.9-2.4,5.1-6.8,5.1c-2.2,0-4.3-0.6-6-1.7C971.5-2044.1,971.2-2044.5,971.2-2045z M981.9-2066.1
			c0,0.2,0,0.3-0.1,0.5l-1.9,3c-0.3,0.5-1,0.8-1.6,0.8h-0.9c-0.6,0-1.3-0.3-1.6-0.8l-1.9-3c-0.1-0.1-0.1-0.3-0.1-0.5
			c0-0.6,0.4-1,1-1c0.3,0,0.5,0.1,0.7,0.3l2.4,3.1l2.4-3.1c0.2-0.2,0.4-0.3,0.7-0.3C981.5-2067.1,981.9-2066.7,981.9-2066.1z"/>
		<path class="st19" d="M995.6-2059.2c4.9,0,8.1,3.8,8.1,8.1c0,1-0.7,1.7-2.1,1.7H991c0.3,2.5,2.1,4.5,5.2,4.5
			c1.2,0,2.6-0.4,3.7-1.1c0.2-0.1,0.5-0.2,0.8-0.2c0.8,0,1.4,0.6,1.4,1.4c0,0.5-0.3,0.9-0.6,1.2c-1.6,1.1-3.6,1.6-5.7,1.6
			c-4.9,0-8.6-3.4-8.6-8.6C987.3-2055.4,990.8-2059.2,995.6-2059.2z M991-2052h9.2c-0.1-1.9-1.4-4.3-4.6-4.3
			C992.6-2056.3,991.2-2054,991-2052z"/>
		<path class="st19" d="M1030.8-2054.3v10.2c0,1-0.8,1.8-1.8,1.8c-0.9,0-1.8-0.8-1.8-1.8v-9.1c0-1.8-0.8-2.9-2.7-2.9
			c-1.6,0-3.1,1.1-3.8,2.2v9.9c0,1-0.8,1.8-1.8,1.8c-0.9,0-1.8-0.8-1.8-1.8v-9.1c0-1.8-0.8-2.9-2.7-2.9c-1.6,0-3,1.1-3.8,2.2v9.8
			c0,1-0.8,1.8-1.8,1.8s-1.8-0.8-1.8-1.8v-13.2c0-1,0.8-1.8,1.8-1.8s1.8,0.8,1.8,1.8v0.6c0.7-1,2.8-2.6,5.3-2.6c2.4,0,3.9,1.2,4.5,3
			c0.9-1.5,3.1-3,5.6-3C1029.1-2059.2,1030.8-2057.6,1030.8-2054.3z"/>
		<path class="st19" d="M1037.2-2046.8c1.3,0,2.4,1.1,2.4,2.4s-1.1,2.3-2.4,2.3s-2.3-1.1-2.3-2.3
			C1034.9-2045.7,1036-2046.8,1037.2-2046.8z M1035.7-2050.7l-0.5-12.4c0-1.2,0.9-2.2,2.1-2.2s2.1,0.9,2.1,2.2l-0.5,12.4
			c0,0.9-0.7,1.5-1.6,1.5C1036.4-2049.2,1035.7-2049.8,1035.7-2050.7z"/>
	</g>
	<g>
		<g>
			<g>
				<g>
					<path class="st19" d="M854.4-2039.8c-3.9-3.5-14.2-13.7-14.2-22.2c0-4.3,3.5-7.8,7.8-7.8c4,0,7.4,3.1,7.8,7
						c0,0.1,0.1,0.1,0.1,0c0.4-3.9,3.8-7,7.8-7c4.3,0,7.9,3.5,7.8,7.9c0,8.5-10.3,18.6-14.2,22.2
						C856.6-2039.1,855.3-2039.1,854.4-2039.8z"/>
				</g>
			</g>
		</g>
	</g>
</g>
<text transform="matrix(1 0 0 1 538.4385 -2608.5339)" style="font-family:'ComicSansMS'; font-size:191.6784px;">yoursport</text>
<g>
	<g>
		<path d="M765.5-2709.7c6.8-7.6,13.7-15.1,20.3-22.8c6.2-7.2,12.1-15.1,14.2-24.6c0.7-3.1-0.9-6.6-4.2-7.4c-3-0.7-6.7,0.9-7.4,4.2
			c-0.2,1.1-0.5,2.1-0.9,3.2c-0.2,0.5-0.4,1-0.5,1.6c-0.1,0.3-0.2,0.5-0.3,0.8c0.3-0.8,0.4-0.9,0.1-0.3c-0.9,1.9-1.8,3.7-2.9,5.5
			c-0.6,0.9-1.2,1.9-1.9,2.8c-0.2,0.3-0.5,0.7-0.7,1s-1.3,1.8-0.3,0.5c-1.3,1.8-2.7,3.4-4.2,5c-6.5,7.5-13.2,14.8-19.8,22.2
			c-2.1,2.3-2.5,6.2,0,8.5C759.3-2707.6,763.2-2707.2,765.5-2709.7L765.5-2709.7z"/>
	</g>
</g>
<g>
	<g>
		<path d="M790-2756.3c1.9,4.3,4.9,7.9,7.9,11.5c0.4,0.4,0.7,0.9,1.1,1.3c0.2,0.2,0.4,0.5,0.5,0.7c-0.5-0.6-0.5-0.7-0.2-0.2
			c0.6,0.8,1.2,1.6,1.8,2.4c1.2,1.8,2.4,3.6,3.5,5.5s2.1,3.8,3,5.8c0.2,0.5,0.5,1,0.7,1.6c-0.1-0.2-0.2-0.4-0.3-0.6
			c0.1,0.3,0.2,0.5,0.3,0.8c0.4,1.1,0.8,2.1,1.2,3.2c1.4,4.1,2.5,8.3,3.2,12.5c0.5,3.1,4.5,5.1,7.4,4.2c3.4-1.1,4.7-4.1,4.2-7.4
			c-1.5-9-4.7-17.8-9.1-25.7c-2.3-4.1-5-7.9-8-11.5c-0.7-0.9-1.4-1.8-2.2-2.7c-0.2-0.2-0.4-0.5-0.5-0.7c0.5,0.6,0.5,0.7,0.2,0.2
			c-0.3-0.3-0.5-0.7-0.8-1c-1.3-1.9-2.5-3.8-3.5-5.9c-1.3-2.9-5.7-3.8-8.2-2.2C789.2-2762.6,788.6-2759.3,790-2756.3L790-2756.3z"/>
	</g>
</g>
<g>
	<g>
		<path d="M800.4-2761.9c-0.8-4.2-1.6-8.3-2.3-12.5c-0.3-2.1-0.7-4.2-1-6.3c-0.1-1-0.3-1.9-0.4-2.9c-0.1-0.5-0.1-1-0.2-1.5
			c0.2,1.5,0-0.3-0.1-0.6c-1.1-8.3-1.8-16.7-2.3-25.1c-0.2-3.1-2.6-6.2-6-6c-3.1,0.1-6.2,2.6-6,6c1,17.5,3.3,34.8,6.8,52
			c0.6,3.1,4.4,5.1,7.4,4.2C799.5-2755.6,801.1-2758.6,800.4-2761.9L800.4-2761.9z"/>
	</g>
</g>
<g>
	<g>
		<path d="M791.6-2807.9c13.6-9.1,26.9-18.5,40.1-28.3c3.8-2.8,7.5-5.6,11.3-8.5c1.3-1,2.3-1.9,2.8-3.6c0.4-1.4,0.2-3.3-0.6-4.6
			c-1.6-2.5-5.5-4.2-8.2-2.2c-13,9.9-26.2,19.5-39.7,28.8c-3.9,2.7-7.7,5.3-11.6,7.9c-2.6,1.7-4,5.4-2.2,8.2
			C785-2807.5,788.8-2806,791.6-2807.9L791.6-2807.9z"/>
	</g>
</g>
<g>
	<g>
		<path d="M790.1-2818.8c-3.7-2.2-7.4-4.5-10.8-7.3c1.3,1-0.2-0.2-0.5-0.4c-0.5-0.4-0.9-0.7-1.3-1.1c-0.8-0.6-1.6-1.3-2.3-1.9
			c-1.7-1.5-3.4-3-5-4.5c-6.4-6-12.4-12.5-18.3-18.9c-2.1-2.3-6.4-2.3-8.5,0c-2.3,2.5-2.3,6,0,8.5c12.3,13.3,24.9,26.8,40.7,36
			c2.7,1.6,6.7,0.7,8.2-2.2C793.8-2813.5,793-2817.1,790.1-2818.8L790.1-2818.8z"/>
	</g>
</g>
<g>
	<g>
		<path d="M793.4-2825.6c-0.6-0.6-1.1-1.2-1.6-1.8c-0.9-1,0.6,0.8,0.1,0.1c-0.2-0.3-0.4-0.6-0.6-0.8c-0.9-1.4-1.7-2.8-2.4-4.3
			c-0.6-1.3,0.4,1.3,0-0.1c-0.1-0.3-0.2-0.5-0.3-0.8c-0.3-0.8-0.5-1.6-0.7-2.3s-0.3-1.3-0.5-2c0-0.2-0.3-1-0.2-1.2
			c0.1,0.9,0.1,1,0.1,0.6c0-0.2,0-0.4-0.1-0.5c-0.1-0.7-0.1-1.4,0-2.1c0-0.2,0-0.5,0-0.7c0-1.3-0.3,1.5,0,0.2
			c0.1-0.6,0.3-1.2,0.5-1.8c0.3-0.8,0.4-0.2-0.2,0.4c0.2-0.1,0.6-0.9,0.7-1.1c-0.3,0.9-0.8,0.9-0.2,0.3c0.6-0.6,0.4,0-0.3,0.2
			c0.1,0,0.9-0.5,0.9-0.5c-0.2,0.1-0.5,0.2-0.7,0.3c0.2-0.1,0.5-0.1,0.7-0.2c0.8-0.3-0.1,0.4-0.5,0.1h1.1c-0.3,0-0.6-0.1-0.9-0.1
			c0.2,0,0.5,0.1,0.7,0.1c0.4,0.1,0.7,0.2,1.1,0.3c1.3,0.4-1.2-0.7,0,0c0.3,0.2,0.7,0.4,1,0.6c0.2,0.1,0.4,0.3,0.7,0.4
			c0.1,0.1,0.2,0.1,0.3,0.2c0.5,0.4,0.4,0.3-0.3-0.2c0,0,1.4,1.3,1.5,1.4c0.2,0.2,0.4,0.5,0.7,0.7c0.2,0.2,0.3,0.4,0.5,0.6
			c-0.5-0.7-0.6-0.8-0.2-0.3c0.4,0.5,0.7,1.1,1,1.6c0.2,0.3,0.3,0.7,0.5,1c0.6,1.1-0.3-1-0.1-0.2c0.2,0.7,0.4,1.3,0.6,2
			c0,0.1,0,0.2,0.1,0.4c0.1,0.7,0.1,0.5-0.1-0.5c-0.1,0.3,0.1,0.8,0.1,1.1c0,0.2-0.1,0.9,0,1.1c0-0.3,0.1-0.6,0.1-0.9
			c0,0.2-0.1,0.5-0.1,0.7c-0.1,0.2-0.1,0.5-0.2,0.7c0,0.1-0.1,0.2-0.1,0.4c-0.2,0.6-0.2,0.5,0.2-0.4c-0.1,0.1-0.9,1.4-0.9,1.5
			c0.2-0.2,0.3-0.4,0.5-0.6c-0.2,0.2-0.3,0.4-0.5,0.5c-0.2,0.2-1,0.8-1,1c0.1-0.4,1-0.7,0.4-0.3c-0.3,0.2-0.6,0.4-0.9,0.6
			c-0.2,0.1-0.9,0.4-1,0.5c0.2-0.4,1.2-0.5,0.3-0.1c-0.6,0.2-1.3,0.4-1.9,0.5c-1.3,0.3,1.4,0,0.2,0c-0.2,0-1-0.1-1.1,0
			c0.5-0.4,2,0.6,2.3,0.9c0.6,0.8,0.7,0.9,0.3,0.4c0.3,0.8,0.4,1,0.2,0.6c-0.3-0.9-0.6-1.8-0.8-2.7s-0.4-1.8-0.6-2.7
			c-0.1-0.4-0.2-0.9-0.2-1.4c0,1.6,0,0.1,0-0.2c-0.2-2-0.2-4-0.1-6c0-0.5,0.1-0.9,0.1-1.4c0-0.4,0.1-1.8,0-0.2c0-1,0.4-2.2,0.6-3.2
			c-3.3,0.9-6.7,1.8-10,2.6c-1-1.2-0.1-0.1,0.1,0.1c0.2,0.3,0.4,0.6,0.6,0.9c0.4,0.6,0.9,1.3,1.3,2c0.8,1.3,1.5,2.6,2.2,3.9
			c0.2,0.3,0.3,0.6,0.5,1c0.1,0.2,0.6,1.3,0.2,0.5c-0.4-0.8,0.1,0.3,0.2,0.5c0.2,0.4,0.3,0.8,0.4,1.2c0.5,1.5,1,3,1.3,4.5
			c0.7,2.9,3.7,4.7,6.6,4.3c3.1-0.4,4.9-2.9,5.2-5.9c0.4-3.9-0.1-7.9-1.3-11.6c-1.4,2.5-2.8,4.9-4.2,7.4c-2.5,0.5-4.6-0.9-4.7-3.5
			c0.1,3.1,2.7,6.1,6,6s6-2.6,6-6c0-3.7-0.6-7.4-1.8-10.9c-0.8-2.4-3-4.5-5.8-4.4c-2.4,0.1-5.3,1.8-5.8,4.4
			c-0.5,2.9-0.5,5.6,0.3,8.5c2.5-2.5,4.9-4.9,7.4-7.4c-0.4-0.1-0.8-0.3-1.3-0.4c-1.4-0.4,1.1,0.6-0.2-0.1c-0.8-0.4-1.5-0.8-2.3-1.3
			c-3.2-2.3-7.9,0.1-8.8,3.6c-0.9,3.1-1.2,6.5-0.9,9.7c0.2,1.6,0.6,3,1.8,4.2c1,1,2.7,1.8,4.2,1.8c3.2-0.1,6-2.6,6-6
			c0-1.6,0-3.3,0-4.9c-4,0-8,0-12,0c0,3.2,0.6,6.5,1.7,9.5c0.9,2.3,2.4,4,5,4.3c2.4,0.3,4.7-0.8,6-2.9c0.2-0.4,0.2-0.3-0.2,0.2
			c-0.2,0.3-0.4,0.6-0.7,0.7c-0.5,0.3-0.6,0.4-0.2,0.2c-0.3,0.1-0.6,0.3-1,0.4c0.9-0.3-1.4,0.1-0.7,0.1s0.4,0.2-0.7-0.2
			c1.3,0.5-1.1-0.7-0.1-0.1c0.6,0.4-1.1-1.1-0.5-0.4c-0.2-0.3-0.4-0.5-0.6-0.8c-0.4-1.1-0.5-1.3-0.3-0.7c1.6,5.7,9.9,5.7,11.6,0
			c0.4-1.4,0.8-2.7,1.2-4.1c-3.9,0-7.7,0-11.6,0c0.1,0.7,0.1,0.6,0-0.3c0,0.3,0,0.6,0,0.9c0,0.3,0,0.6-0.1,0.9c0.1-0.8,0.1-1,0-0.5
			c-0.2,0.5-0.2,1-0.4,1.5c-0.1,0.3-0.2,0.6-0.3,0.8c-0.2,0.6-0.2,0.6,0.1-0.2c0,0.1-0.5,1.1-0.6,1.2c-0.3,0.5-0.5,1.1-0.8,1.6
			c-0.1,0.2-0.2,0.4-0.3,0.6c0.2-0.2,0.4-0.5,0.5-0.7c1.7-1.4,3.4-1.7,5-0.9c-0.5-0.4-0.4-0.3,0.3,0.3c0,0-0.9-0.8-0.9-0.9
			c-1-1.1,0.5,0.9-0.1-0.1c-0.3-0.4-0.5-0.8-0.8-1.3c-0.1-0.1-0.1-0.2-0.2-0.3c-0.3-0.6-0.2-0.5,0.2,0.4c0.1-0.1-0.4-1.3-0.4-1.4
			c-0.1-0.2-0.1-0.5-0.2-0.7c0,0.3,0.1,0.6,0.1,0.8c0.1-0.3-0.1-1.1-0.1-1.5s0.3-2.2,0-0.3c-3.3,0.9-6.7,1.8-10,2.6
			c1.8,2.3,3.7,4.4,5.8,6.5c1.8,1.8,5,2.4,7.3,0.9c2.1-1.4,3.7-4.2,2.8-6.8c-1-2.8-1.8-5.8-2.2-8.7c0-0.2-0.3-1-0.2-1.1
			c-0.1,0.2,0.1,1.1,0,0.2c-0.1-0.8-0.2-1.5-0.2-2.3c-0.1-1.5-0.1-3.1-0.1-4.6c-2,2-4,4-6,6c-1.9-0.2-0.8-0.1-0.4,0
			c0.2,0.1,1.2,0.4,0.1,0c-1-0.3-0.1,0,0.1,0.1c0.1,0.1,0.3,0.2,0.4,0.3c0.4,0.3,0.2,0.1-0.6-0.5c0.2,0.3,0.8,0.9,1.1,1.1
			c-1-0.8-0.6-0.8-0.2-0.2c0.1,0.2,0.3,0.5,0.4,0.7c0.1,0.2,0.2,0.5,0.4,0.7c-0.4-0.9-0.5-1.1-0.3-0.7c0.1,0.2,0.1,0.3,0.2,0.5
			c0.2,0.5,0.3,1.1,0.5,1.6c0.1,0.3,0.1,0.7,0.2,1c-0.1-0.4-0.1-1.4-0.1-0.4c0,0.6,0.1,1.3,0,1.9c0,0.3,0,0.6-0.1,0.9
			c-0.1,0.8,0.3-1.4,0-0.3c-0.1,0.4-0.2,0.7-0.3,1c-0.1,0.2-0.3,1.2-0.1,0.3s0-0.1-0.2,0.2c-0.5,1,0.9-0.9,0.1-0.1
			c-0.7,0.7,0.9-0.5,0.3-0.2c-1,0.6,0.5-0.1,0.5-0.2c-0.1,0-0.3,0.1-0.4,0.1c-0.5,0.1-0.2,0.1,0.9-0.1c-0.2,0-1.2-0.1,0,0.1
			c1.1,0.2,0.2,0,0,0c-0.4-0.1-0.4-0.1,0.2,0.1c0.5,0.2,0.6,0.3,0.2,0.1c-0.2-0.1-0.9-0.6-0.1,0c0.5,0.4,0.5,0.4,0.2,0.1
			c0.2,0.3,0.4,0.5,0.6,0.8c-0.1-0.1-0.1-0.2-0.2-0.3c-0.2-0.4-0.1-0.1,0.4,0.9c0,0.4,0.1,0.7,0.1,1.1c0-0.6-0.1-0.3-0.2,0.8
			c-2.9,1.2-5.9,2.4-8.8,3.6c0.3,0.1,0.9,0.7,0.3,0.1c-0.6-0.6-0.8-0.9-1.2-1.7c0.8,2,2,3.6,4.2,4.2c1.9,0.5,4.6,0.1,5.8-1.5
			c1.6-2,2.9-4.2,3.4-6.7c0.5-2.6,0.5-5.1,0-7.7c-0.9-4.5-4-8.8-8.1-10.9c0.4,3.1,0.8,6.3,1.2,9.4c-1.3,1.1-0.7,0.5-0.3,0.3
			c0.7-0.3-1.3,0.3-0.6,0.2c0.2,0,0.7-0.1,0.8-0.2c-0.1,0.1-1.6,0.1-0.6,0.1c0.2,0,0.4,0,0.6,0c0.9-0.1-0.5,0-0.6-0.1
			c0.3,0.2,1.2,0.4,1.6,0.4c-1,0-1.1-0.5-0.4-0.1c0.2,0.1,0.4,0.2,0.6,0.3c0.7,0.4-1.1-1.1-0.3-0.2c0.2,0.2,0.3,0.3,0.5,0.5
			c0.4,0.3,0.2,0.7-0.3-0.4c0.1,0.2,0.3,0.4,0.4,0.7c0.1,0.2,0.2,0.5,0.4,0.7c0.7,1-0.3-1.1,0,0c0.2,0.6,0.3,1.1,0.5,1.7
			c0.3,1.3-0.1-0.2,0-0.2c0,0,0.1,0.9,0.1,0.8c0,0.5,0,1.1,0,1.6c0,0.3-0.3,1.9-0.1,2c-0.2-0.1,0.3-1.4,0-0.3c0,0.2-0.1,0.5-0.2,0.7
			c-0.1,0.7,0.8-1.2,0.1-0.3c0.3-0.5,0.6-0.8,1.1-1.1c-0.6,0.4-0.2-0.2,0.3-0.1c-0.1,0-0.6,0.2-0.8,0.2c-1,0.3-1.9,0.6-2.8,1.1
			c-4.1,1.9-6.1,7-3.8,11.1c1.3,2.2,3.7,3.8,6.3,3.8c2.8,0,5.1-1.7,6.5-3.9c1.7-2.6,2.9-5.6,4-8.5c0.6-1.6,1.2-3.3,1.1-5.1
			c-0.1-2.4-1.1-4.5-2.7-6.3c-2-2.2-4.6-4.2-7-6c-3-2.1-6.3-3.2-10-3.7c-1.4-0.2-3.3,0.8-4.2,1.8c-1,1-1.8,2.7-1.8,4.2
			c0.1,1.6,0.6,3.2,1.8,4.2c1.3,1.2,2.6,1.5,4.2,1.8c-1.7-0.2-0.1,0,0.4,0.2c0.3,0.1,0.5,0.2,0.8,0.2c0.9,0.3-0.4-0.1-0.3-0.2
			c0.3-0.2,2.6,1.5,3,1.7c0.2,0.2,0.4,0.3,0.7,0.5c0.5,0.4-0.4-0.3-0.4-0.3c0.3,0.4,0.9,0.7,1.3,1c0.9,0.8,1.7,1.5,2.6,2.3
			c0.2,0.2,0.3,0.4,0.5,0.5c0.6,0.5-0.6-1-0.2-0.3c0.4,0.6-0.3-0.7-0.3-0.9c-0.1-0.3,0.2-1.4-0.1-0.9s-0.4,1.2-0.6,1.7
			c-0.1,0.2-0.2,0.4-0.2,0.6c-0.6,1.5,0.5-1.1-0.1,0.3c-0.5,1.1-1,2.2-1.6,3.3c-0.3,0.5-0.6,0.9-0.8,1.4c-1.3,2.6,5.9-2.4,7.6,0
			c1.4,2,1,4-0.3,5.7c0.5-0.7-0.3,0.2-0.5,0.3c0.8-0.5-0.4,0.2-0.5,0.2c0.5-0.1,1-0.3,1.5-0.5c1.8-0.6,3.5-1.4,4.8-2.8
			c2.3-2.5,2.8-5.7,3-8.9c0.3-5.2-1.1-11.3-5.1-14.8c-2.5-2.2-5.4-3.4-8.7-3.8c-3.4-0.4-6.5,1-9.1,3.1c-2.9,2.4-2,7.8,1.2,9.4
			c0.4,0.2,0.7,0.4,1,0.6c0.9,0.5-1-1-0.3-0.2c0.2,0.2,0.4,0.4,0.6,0.6c1,1.1-0.5-0.9,0,0c0.3,0.5,0.6,1.1,0.9,1.6
			c-0.4-1-0.5-1.2-0.3-0.6c0.1,0.2,0.1,0.4,0.2,0.6c0.1,0.3,0.2,0.6,0.2,0.9c0.1,0.3,0.1,0.6,0.2,0.9c-0.5-1.8-0.1-0.8-0.1-0.2
			c0,0.4,0,0.7,0,1.1c0,0.7-0.4,0.9,0.1-0.4c-0.2,0.6-0.4,1.4-0.6,2c0.4-1.4,0.4-0.9,0.1-0.3c-0.2,0.4-1.1,1.6,0.1,0
			c3.3,0.9,6.7,1.8,10,2.6c-0.9-2.3-2.2-4.4-4.6-5.5c-1.8-0.8-3.4-1.1-5.3-0.3c-1.6,0.7-3.2,2.1-3.5,3.9c-0.5,3.2,0.1,6.3,2.5,8.6
			c1.9,1.9,4.6,2.9,7.3,3c5.7,0.2,10.1-4.6,11.2-9.9c1-4.8,0.3-9.6-1.8-14c-0.9-1.8-2.1-3.5-3.6-4.7c-2.4-2-4.9-2.9-7.9-3.3
			c-1.4-0.2-3.3,0.8-4.2,1.8c-1.1,1.2-1.7,2.6-1.8,4.2c-0.1,6.7,0.9,13.5,3.1,19.8c3.3-1.9,6.7-3.9,10-5.8c-2.1-2-4-4.2-5.8-6.5
			c-2.7-3.4-9.4-1.6-10,2.6c-0.6,4-0.2,7.7,1.4,11.5c1.5,3.3,4.4,6.9,8,8c2.8,0.9,5.8,0.2,7.8-1.9c1.3-1.2,2-3,2.8-4.6
			c1.9-4.1,3-8.2,2-12.7c-0.5-2.5-3.3-4.5-5.8-4.4c-2.7,0.1-5,1.8-5.8,4.4c-0.4,1.4-0.8,2.7-1.2,4.1c3.9,0,7.7,0,11.6,0
			c-2.2-7.6-12.8-8.9-16.9-2.2c3.7,0.5,7.3,1,11,1.4c-0.5-1.2-0.8-2.4-1.1-3.7c-0.1-0.3-0.1-0.6-0.2-0.9c-0.2-0.8,0.1,1.1,0,0.3
			c0-0.7-0.1-1.3-0.1-2c0-3.1-2.7-6.1-6-6c-3.2,0.1-6,2.6-6,6c0,1.6,0,3.3,0,4.9c4,0,8,0,12,0c-0.1-1.3-0.2-2.6-0.1-3.9
			c0-0.2,0.2-1.2,0-0.3c-0.2,0.8,0-0.2,0.1-0.3c0.1-0.7,0.3-1.3,0.5-2c-2.9,1.2-5.9,2.4-8.8,3.6c2,1.4,4.3,2.4,6.6,3
			c4.4,1.2,8.6-3,7.4-7.4c-0.1-0.4-0.2-0.7-0.3-1.1c-0.2-0.7,0,1.4,0,0c0-0.3,0-0.6,0-0.9c0-0.3,0.2-1.8,0-0.2c-3.9,0-7.7,0-11.6,0
			c0.5,1.4,0.9,2.9,1.2,4.4c0.2,0.9-0.1,0,0-0.3c-0.1,0.2,0.1,0.9,0.1,1.1c0.1,0.8,0.1,1.7,0.1,2.5c4,0,8,0,12,0
			c-0.1-2.3-1-4.6-2.8-6.2c-2.3-1.9-4.8-2.4-7.7-1.9c-3.1,0.6-5.1,4.5-4.2,7.4c0.2,0.7,0.5,1.5,0.6,2.2c0.1,0.4,0.2,0.9,0.3,1.4
			c0.2,1.2,0-0.8,0,0c0.1,1.6,0.2,3.2,0,4.8c3.9-0.5,7.9-1.1,11.8-1.6c-1.8-7.3-5.3-13.9-9.9-19.8c-1.3-1.6-4-2.1-5.8-1.5
			c-1.9,0.5-3.7,2.2-4.2,4.2c-1,4.5-1.5,9.3-1,13.9c0.2,2.5,0.6,5,1.3,7.5s1.5,5.2,3.3,7c4,4,10.6,2.7,15.2,0.4
			c4-2.1,7.2-5.8,8.5-10.2c2.7-8.8-2.8-18.4-10.2-23.1c-4.5-2.8-9.8-3.6-14.7-1.4c-4,1.8-6.5,6.1-7.2,10.3
			c-1.6,9.8,2.7,20.1,9.4,27.1c2.2,2.3,6.3,2.4,8.5,0C795.6-2819.6,795.7-2823.2,793.4-2825.6L793.4-2825.6z"/>
	</g>
</g>
<g>
	<path class="st19" d="M1724.2,0c-80.3,0-150.6,43.7-188.3,108.5C1498.1,43.7,1427.8,0,1347.5,0s-150.6,43.7-188.3,108.5
		C1121.5,43.7,1051.2,0,970.9,0S820.3,43.7,782.6,108.5C744.9,43.7,674.6,0,594.3,0C514.1,0,443.8,43.7,406,108.5
		C368.3,43.7,298,0,217.7,0C97.7,0,0,97.7,0,217.7c0,112.1,65.7,245.3,195.1,396c93.6,109,185.9,186,191.5,190.6
		c0.3,0.2,0.6,0.5,0.9,0.7c5.3,4.1,11.7,6.1,18,6.1l0,0h0.1l188.7-0.7c80.3,0,150.5-43.7,188.3-108.5
		c37.8,64.8,108,108.5,188.3,108.5c120.1,0,217.7-97.7,217.7-217.7v-375c0-87.6,71.3-158.9,158.9-158.9s158.9,71.3,158.9,158.9
		c0,235.9-362.8,538.3-366.4,541.3c-9.6,7.9-13.2,21-8.9,32.7c4.2,11.7,15.3,19.4,27.7,19.4h0.1l188.7-0.7
		c80.3,0,150.6-43.7,188.3-108.5c37.8,64.8,108,108.5,188.3,108.5c120.1,0,217.7-97.7,217.7-217.7v-375
		C1941.9,97.7,1844.2,0,1724.2,0z M405.5,742.9c-74.7-66-346.7-320.5-346.7-525.2c0-87.6,71.3-158.9,158.9-158.9
		s158.9,71.3,158.9,158.9c0,16.3,13.2,29.4,29.4,29.4c16.3,0,29.4-13.2,29.4-29.4c0-87.6,71.3-158.9,158.9-158.9
		s158.9,71.3,158.9,158.9C753.2,422.4,480.4,676.9,405.5,742.9z M1129.8,592.7c0,87.6-71.3,158.9-158.9,158.9S812,680.3,812,592.7
		c0-16.3-13.2-29.4-29.4-29.4s-29.4,13.2-29.4,29.4c0,87.6-71.3,158.9-159,158.9L483.1,752c36-33.7,84.4-81.7,133.2-138.3
		C746.2,463,812,329.8,812,217.7c0-87.6,71.3-158.9,158.9-158.9s158.9,71.3,158.9,158.9V592.7z M1883,592.7
		c0,87.6-71.3,158.9-158.9,158.9s-158.9-71.3-158.9-158.9c0-16.3-13.2-29.4-29.4-29.4c-16.3,0-29.4,13.2-29.4,29.4
		c0,87.6-71.3,158.9-159,158.9l-111.1,0.4c36-33.7,84.4-81.7,133.2-138.3c129.9-150.7,195.7-283.9,195.7-396
		c0-87.6,71.3-158.9,158.9-158.9S1883,130.1,1883,217.7L1883,592.7L1883,592.7z"/>
	<g>
		<path class="st19" d="M539.2,994.3c0,3.8-3.1,6.8-6.8,6.8h-13.3l-9.4,28.3h9.2c3.8,0,6.8,2.9,6.8,6.8s-3.1,7-6.8,7h-13.8
			l-8.4,24.9c-0.9,2.9-3.9,5.1-7.2,5.1c-4.1,0-7.5-3.4-7.5-7.5c0-0.9,0.2-1.9,0.3-2.6l6.8-19.9h-16.2l-8.4,24.9
			c-1,2.9-3.9,5.1-7.2,5.1c-4.3,0-7.7-3.4-7.7-7.5c0-0.9,0.2-1.9,0.5-2.6l6.6-19.9h-8.2c-3.8,0-6.8-3.1-6.8-7s3.1-6.8,6.8-6.8h13
			l9.2-28.3H462c-3.6,0-6.8-3.1-6.8-6.8c0-3.8,3.2-6.8,6.8-6.8h13.5l8.2-25.2c1-3.1,3.9-5.1,7.3-5.1c4.1,0,7.5,3.4,7.5,7.5
			c0,0.9,0,1.9-0.2,2.4l-6.8,20.5h16l8.4-25.2c0.9-2.9,3.9-5.1,7.2-5.1c4.1,0,7.5,3.4,7.5,7.5c0,0.9-0.2,1.9-0.3,2.4l-6.8,20.5h8.7
			C536.2,987.5,539.2,990.5,539.2,994.3z M503.1,1001.1h-16l-9.2,28.3h15.9L503.1,1001.1z"/>
		<path class="st19" d="M554.4,1059.1v-88c0-8.2,4.6-12.8,12.8-12.8h32.1c35.6,0,60.4,22.7,60.4,56.9S635,1072,599.3,1072h-32.1
			C559,1072,554.4,1067.4,554.4,1059.1z M599.2,1050.7c22.5,0,35.6-16.2,35.6-35.5c0-20.1-12.3-35.6-35.6-35.6h-20.6v71.1H599.2z"/>
		<path class="st19" d="M674.1,963.2c0-7.2,6-13,13-13c7.2,0,13,5.8,13,13s-5.8,13-13,13C680.1,976.2,674.1,970.4,674.1,963.2z
			 M676.3,1062.3v-62.9c0-6,4.8-10.9,10.9-10.9c5.8,0,10.7,4.9,10.7,10.9v62.9c0,6-4.9,10.9-10.9,10.9S676.3,1068.3,676.3,1062.3z"
			/>
		<path class="st19" d="M794.6,1062.3c0,6.3-4.6,10.9-10.7,10.9c-3.2,0-6.1-1.2-8.4-3.8l-24.2-29l-10.2,9.5v12.3
			c0,6-4.9,10.9-10.9,10.9s-10.7-4.9-10.7-10.9V968c0-6,4.8-10.9,10.9-10.9c5.8,0,10.7,4.9,10.7,10.9v58l34.1-34.6
			c2-2,4.6-2.9,7.2-2.9c5.6,0,10.1,4.6,10.1,10.1c0,2.6-1,5.3-2.9,7.2l-22.3,21.8l25.2,28.1C793.8,1057,794.6,1059.7,794.6,1062.3z"
			/>
		<path class="st19" d="M816.5,1086.3c0.3,0,0.7-0.2,1-0.2c5.6-0.2,9.2-1.5,11.3-6l3.1-7l-28.3-70.1c-0.5-1.2-0.7-2.6-0.7-3.9
			c0-6,4.6-10.7,10.6-10.7c4.4,0,8.5,2.6,9.9,6.6l19.8,52.5l19.6-52.5c1.5-4.1,5.6-6.6,10.1-6.6c6.1,0,10.7,4.8,10.7,10.7
			c0,1.4-0.3,2.9-0.9,4.1l-33.4,82.2c-6.1,15.3-17.6,19.8-29.8,19.9c-0.7,0-1.5,0-2.4-0.2c-5.8-0.2-9.7-4.4-9.7-9.7
			S811.5,1086.5,816.5,1086.3z"/>
		<path class="st19" d="M892,1059.4c0-4.1,2.2-7.8,5.3-10.1c43.3-31.5,56.1-42.8,56.1-56.4c0-9.9-9-14.8-18.6-14.8
			c-9.4,0-17.2,2.9-24,7.7c-1.7,1.2-3.8,1.9-6,1.9c-6,0-10.7-4.8-10.7-10.7c0-3.6,1.9-6.8,4.4-8.7c10.6-8,23.5-11.6,36-11.6
			c24.2,0,43.5,13.6,43.5,36.3c0,19.4-16,36.3-46.5,57.8h37.8c5.8,0,10.7,4.8,10.7,10.6c0,6-4.9,10.7-10.7,10.7h-64.6
			C897.8,1072,892,1066.4,892,1059.4z"/>
		<path class="st19" d="M1040.3,956.6c32.4,0,47.1,29.3,47.1,58.7c0,29.3-14.7,58.8-47.1,58.8c-32.6,0-47.1-29.5-47.1-58.8
			C993.3,985.9,1007.8,956.6,1040.3,956.6z M1040.3,978.1c-16.4,0-22.5,16.2-22.5,37.2c0,21,6.1,37.3,22.5,37.3
			c16.2,0,22.3-16.4,22.3-37.3S1056.5,978.1,1040.3,978.1z"/>
		<path class="st19" d="M1097.8,1059.4c0-4.1,2.2-7.8,5.3-10.1c43.3-31.5,56.1-42.8,56.1-56.4c0-9.9-9-14.8-18.6-14.8
			c-9.4,0-17.2,2.9-24,7.7c-1.7,1.2-3.8,1.9-6,1.9c-6,0-10.7-4.8-10.7-10.7c0-3.6,1.9-6.8,4.4-8.7c10.6-8,23.5-11.6,36-11.6
			c24.2,0,43.5,13.6,43.5,36.3c0,19.4-16,36.3-46.5,57.8h37.8c5.8,0,10.7,4.8,10.7,10.6c0,6-4.9,10.7-10.7,10.7h-64.6
			C1103.6,1072,1097.8,1066.4,1097.8,1059.4z"/>
		<path class="st19" d="M1246.1,956.6c32.4,0,47.1,29.3,47.1,58.7c0,29.3-14.7,58.8-47.1,58.8c-32.6,0-47.1-29.5-47.1-58.8
			C1199.1,985.9,1213.6,956.6,1246.1,956.6z M1246.1,978.1c-16.4,0-22.5,16.2-22.5,37.2c0,21,6.1,37.3,22.5,37.3
			c16.2,0,22.3-16.4,22.3-37.3S1262.3,978.1,1246.1,978.1z"/>
		<path class="st19" d="M1317.2,1046.3c7.5,0,13.8,6.3,13.8,13.8s-6.3,13.8-13.8,13.8s-13.8-6.3-13.8-13.8
			C1303.4,1052.6,1309.7,1046.3,1317.2,1046.3z"/>
		<path class="st19" d="M1387.5,987.6c10.9,0,18.9,3.1,25.1,7.7c2.6,1.7,4.3,4.8,4.3,8c0,5.3-4.4,9.7-9.7,9.7
			c-2.2,0-4.1-0.7-5.6-1.9c-3.8-2.9-8-4.3-13-4.3c-13.1,0-22.3,9.5-22.3,23.9c0,14.4,9.2,24,22.3,24c4.9,0,9.2-1.4,12.8-4.3
			c1.5-1.2,3.6-1.9,5.6-1.9c5.5,0,9.9,4.3,9.9,9.7c0,3.2-1.7,6.3-4.3,8c-6.1,4.6-14.2,7.7-25.1,7.7c-25.4,0-43.6-17.9-43.6-43.3
			C1343.8,1005.5,1362.1,987.6,1387.5,987.6z"/>
		<path class="st19" d="M1428.4,1061.1c0-2.6,0.9-4.9,2.4-6.8l36-45.7H1438c-5.3,0-9.5-4.3-9.5-9.4c0-5.3,4.3-9.5,9.5-9.5h48.9
			c5.8,0,10.4,4.6,10.4,10.4c0,2.6-0.9,4.9-2.2,6.5l-36.7,46.5h30.2c5.1,0,9.4,4.3,9.4,9.4c0,5.3-4.3,9.5-9.4,9.5h-49.4
			C1433.2,1072,1428.4,1067.1,1428.4,1061.1z"/>
	</g>
</g>
<g>
	<path class="st19" d="M4306.6,1734.4c-29,0-54.3,15.7-67.9,39.1c-13.6-23.4-39-39.1-67.9-39.1s-54.3,15.7-67.9,39.1
		c-13.6-23.4-39-39.1-67.9-39.1c-29,0-54.3,15.8-67.9,39.1c-13.6-23.4-39-39.1-67.9-39.1c-29,0-54.3,15.7-67.9,39.1
		c-13.6-23.4-39-39.1-67.9-39.1c-43.3,0-78.5,35.2-78.5,78.5c0,40.4,23.7,88.5,70.4,142.8c33.8,39.3,67,67.1,69,68.7
		c0.1,0.1,0.2,0.2,0.3,0.3c1.9,1.5,4.2,2.2,6.5,2.2l0,0l0,0l68.1-0.3c28.9,0,54.3-15.8,67.9-39.1c13.6,23.4,39,39.1,67.9,39.1
		c43.3,0,78.5-35.2,78.5-78.5v-135.2c0-31.6,25.7-57.3,57.3-57.3c31.6,0,57.3,25.7,57.3,57.3c0,85.1-130.8,194.1-132.1,195.2
		c-3.5,2.9-4.8,7.6-3.2,11.8c1.5,4.2,5.5,7,10,7l0,0l68.1-0.3c29,0,54.3-15.7,67.9-39.1c13.6,23.4,39,39.1,67.9,39.1
		c43.3,0,78.5-35.2,78.5-78.5v-135.2C4385.1,1769.6,4349.9,1734.4,4306.6,1734.4z M3831.1,2002.3c-26.9-23.8-125-115.6-125-189.4
		c0-31.6,25.7-57.3,57.3-57.3s57.3,25.7,57.3,57.3c0,5.9,4.8,10.6,10.6,10.6c5.9,0,10.6-4.8,10.6-10.6c0-31.6,25.7-57.3,57.3-57.3
		s57.3,25.7,57.3,57.3C3956.5,1886.7,3858.1,1978.5,3831.1,2002.3z M4092.3,1948.1c0,31.6-25.7,57.3-57.3,57.3s-57.3-25.7-57.3-57.3
		c0-5.9-4.8-10.6-10.6-10.6c-5.9,0-10.6,4.8-10.6,10.6c0,31.6-25.7,57.3-57.3,57.3l-40.1,0.2c13-12.1,30.5-29.5,48-49.9
		c46.8-54.3,70.6-102.4,70.6-142.8c0-31.6,25.7-57.3,57.3-57.3s57.3,25.7,57.3,57.3L4092.3,1948.1L4092.3,1948.1z M4363.9,1948.1
		c0,31.6-25.7,57.3-57.3,57.3c-31.6,0-57.3-25.7-57.3-57.3c0-5.9-4.8-10.6-10.6-10.6c-5.9,0-10.6,4.8-10.6,10.6
		c0,31.6-25.7,57.3-57.3,57.3l-40.1,0.2c13-12.1,30.5-29.5,48-49.9c46.8-54.3,70.6-102.4,70.6-142.8c0-31.6,25.7-57.3,57.3-57.3
		c31.6,0,57.3,25.7,57.3,57.3V1948.1z"/>
	<g>
		<path class="st19" d="M3879.3,2092.9c0,1.4-1.1,2.5-2.5,2.5h-4.8l-3.4,10.2h3.3c1.4,0,2.5,1,2.5,2.5s-1.1,2.5-2.5,2.5h-5l-3,9
			c-0.3,1-1.4,1.8-2.6,1.8c-1.5,0-2.7-1.2-2.7-2.7c0-0.3,0.1-0.7,0.1-0.9l2.5-7.2h-5.8l-3,9c-0.4,1-1.4,1.8-2.6,1.8
			c-1.5,0-2.8-1.2-2.8-2.7c0-0.3,0.1-0.7,0.2-0.9l2.4-7.2h-3c-1.4,0-2.5-1.1-2.5-2.5s1.1-2.5,2.5-2.5h4.7l3.3-10.2h-3.1
			c-1.3,0-2.5-1.1-2.5-2.5s1.2-2.5,2.5-2.5h4.9l3-9.1c0.4-1.1,1.4-1.8,2.6-1.8c1.5,0,2.7,1.2,2.7,2.7c0,0.3,0,0.7-0.1,0.9l-2.5,7.4
			h5.8l3-9.1c0.3-1,1.4-1.8,2.6-1.8c1.5,0,2.7,1.2,2.7,2.7c0,0.3-0.1,0.7-0.1,0.9l-2.5,7.4h3.1
			C3878.2,2090.5,3879.3,2091.6,3879.3,2092.9z M3866.3,2095.4h-5.8l-3.3,10.2h5.7L3866.3,2095.4z"/>
		<path class="st19" d="M3884.8,2116.3v-31.7c0-3,1.7-4.6,4.6-4.6h11.6c12.9,0,21.8,8.2,21.8,20.5s-8.9,20.5-21.8,20.5h-11.6
			C3886.4,2120.9,3884.8,2119.3,3884.8,2116.3z M3900.9,2113.3c8.1,0,12.9-5.8,12.9-12.8c0-7.3-4.4-12.8-12.9-12.8h-7.4v25.6H3900.9
			z"/>
		<path class="st19" d="M3927.9,2081.7c0-2.6,2.2-4.7,4.7-4.7c2.6,0,4.7,2.1,4.7,4.7c0,2.6-2.1,4.7-4.7,4.7
			C3930.1,2086.4,3927.9,2084.3,3927.9,2081.7z M3928.7,2117.4v-22.7c0-2.2,1.7-3.9,3.9-3.9c2.1,0,3.9,1.8,3.9,3.9v22.7
			c0,2.2-1.8,3.9-3.9,3.9S3928.7,2119.6,3928.7,2117.4z"/>
		<path class="st19" d="M3971.4,2117.4c0,2.3-1.7,3.9-3.9,3.9c-1.2,0-2.2-0.4-3-1.4l-8.7-10.5l-3.7,3.4v4.4c0,2.2-1.8,3.9-3.9,3.9
			c-2.2,0-3.9-1.8-3.9-3.9v-34c0-2.2,1.7-3.9,3.9-3.9c2.1,0,3.9,1.8,3.9,3.9v20.9l12.3-12.5c0.7-0.7,1.7-1,2.6-1
			c2,0,3.6,1.7,3.6,3.6c0,0.9-0.4,1.9-1,2.6l-8.1,7.9l9.1,10.1C3971.1,2115.5,3971.4,2116.5,3971.4,2117.4z"/>
		<path class="st19" d="M3979.3,2126.1c0.1,0,0.2-0.1,0.4-0.1c2-0.1,3.3-0.6,4.1-2.2l1.1-2.5l-10.2-25.3c-0.2-0.4-0.2-0.9-0.2-1.4
			c0-2.2,1.7-3.9,3.8-3.9c1.6,0,3.1,0.9,3.6,2.4l7.1,18.9l7.1-18.9c0.6-1.5,2-2.4,3.6-2.4c2.2,0,3.9,1.7,3.9,3.9
			c0,0.5-0.1,1-0.3,1.5l-12.1,29.6c-2.2,5.5-6.3,7.1-10.8,7.2c-0.2,0-0.6,0-0.9-0.1c-2.1-0.1-3.5-1.6-3.5-3.5
			S3977.5,2126.2,3979.3,2126.1z"/>
		<path class="st19" d="M4006.5,2116.4c0-1.5,0.8-2.8,1.9-3.6c15.6-11.4,20.2-15.4,20.2-20.4c0-3.6-3.3-5.3-6.7-5.3s-6.2,1-8.7,2.8
			c-0.6,0.4-1.4,0.7-2.2,0.7c-2.2,0-3.9-1.7-3.9-3.9c0-1.3,0.7-2.5,1.6-3.1c3.8-2.9,8.5-4.2,13-4.2c8.7,0,15.7,4.9,15.7,13.1
			c0,7-5.8,13.1-16.8,20.8h13.6c2.1,0,3.9,1.7,3.9,3.8c0,2.2-1.8,3.9-3.9,3.9h-23.3C4008.6,2120.9,4006.5,2118.9,4006.5,2116.4z"/>
		<path class="st19" d="M4060,2079.3c11.7,0,17,10.6,17,21.2c0,10.6-5.3,21.2-17,21.2s-17-10.6-17-21.2
			C4043,2089.9,4048.3,2079.3,4060,2079.3z M4060,2087.1c-5.9,0-8.1,5.8-8.1,13.4s2.2,13.5,8.1,13.5c5.8,0,8.1-5.9,8.1-13.5
			S4065.9,2087.1,4060,2087.1z"/>
		<path class="st19" d="M4080.7,2116.4c0-1.5,0.8-2.8,1.9-3.6c15.6-11.4,20.2-15.4,20.2-20.4c0-3.6-3.3-5.3-6.7-5.3
			c-3.4,0-6.2,1-8.7,2.8c-0.6,0.4-1.4,0.7-2.2,0.7c-2.2,0-3.9-1.7-3.9-3.9c0-1.3,0.7-2.5,1.6-3.1c3.8-2.9,8.5-4.2,13-4.2
			c8.7,0,15.7,4.9,15.7,13.1c0,7-5.8,13.1-16.8,20.8h13.6c2.1,0,3.9,1.7,3.9,3.8c0,2.2-1.8,3.9-3.9,3.9h-23.3
			C4082.8,2120.9,4080.7,2118.9,4080.7,2116.4z"/>
		<path class="st19" d="M4134.2,2079.3c11.7,0,17,10.6,17,21.2c0,10.6-5.3,21.2-17,21.2s-17-10.6-17-21.2
			C4117.3,2089.9,4122.5,2079.3,4134.2,2079.3z M4134.2,2087.1c-5.9,0-8.1,5.8-8.1,13.4s2.2,13.5,8.1,13.5c5.8,0,8.1-5.9,8.1-13.5
			S4140.1,2087.1,4134.2,2087.1z"/>
		<path class="st19" d="M4159.9,2111.7c2.7,0,5,2.3,5,5s-2.3,5-5,5s-5-2.3-5-5C4154.9,2113.9,4157.2,2111.7,4159.9,2111.7z"/>
		<path class="st19" d="M4185.2,2090.5c3.9,0,6.8,1.1,9,2.8c0.9,0.6,1.5,1.7,1.5,2.9c0,1.9-1.6,3.5-3.5,3.5c-0.8,0-1.5-0.2-2-0.7
			c-1.4-1-2.9-1.5-4.7-1.5c-4.7,0-8.1,3.4-8.1,8.6c0,5.2,3.3,8.7,8.1,8.7c1.8,0,3.3-0.5,4.6-1.5c0.6-0.4,1.3-0.7,2-0.7
			c2,0,3.6,1.5,3.6,3.5c0,1.2-0.6,2.3-1.5,2.9c-2.2,1.7-5.1,2.8-9,2.8c-9.2,0-15.7-6.5-15.7-15.6
			C4169.5,2097,4176,2090.5,4185.2,2090.5z"/>
		<path class="st19" d="M4200,2117c0-0.9,0.3-1.8,0.9-2.5l13-16.5h-10.4c-1.9,0-3.4-1.5-3.4-3.4s1.5-3.4,3.4-3.4h17.6
			c2.1,0,3.8,1.7,3.8,3.8c0,0.9-0.3,1.8-0.8,2.3l-13.2,16.8h10.9c1.8,0,3.4,1.5,3.4,3.4s-1.5,3.4-3.4,3.4H4204
			C4201.7,2120.9,4200,2119.2,4200,2117z"/>
	</g>
</g>
<path class="st19" d="M-2173.9-3165.2c-36.5,0-68.4,19.8-85.5,49.3c-17.1-29.4-49.1-49.3-85.5-49.3s-68.4,19.8-85.5,49.3
	c-17.1-29.4-49.1-49.3-85.5-49.3c-36.5,0-68.4,19.8-85.5,49.3c-17.1-29.4-49.1-49.3-85.5-49.3c-36.5,0-68.4,19.8-85.5,49.3
	c-17.1-29.4-49.1-49.3-85.5-49.3c-54.5,0-98.9,44.4-98.9,98.9c0,50.9,29.8,111.4,88.6,179.8c42.5,49.5,84.4,84.4,86.9,86.6
	c0.1,0.1,0.3,0.2,0.4,0.3c2.4,1.9,5.3,2.8,8.2,2.8l0,0c0,0,0,0,0.1,0l85.7-0.3c36.5,0,68.4-19.8,85.5-49.3
	c17.1,29.4,49.1,49.3,85.5,49.3c54.5,0,98.9-44.4,98.9-98.9v-170.3c0-39.8,32.4-72.1,72.1-72.1s72.1,32.4,72.1,72.1
	c0,107.1-164.7,244.5-166.4,245.8c-4.4,3.6-6,9.5-4.1,14.9c1.9,5.3,6.9,8.8,12.6,8.8c0,0,0,0,0.1,0l85.7-0.3
	c36.5,0,68.4-19.8,85.5-49.3c17.1,29.4,49.1,49.3,85.5,49.3c54.5,0,98.9-44.4,98.9-98.9v-170.3
	C-2075-3120.8-2119.4-3165.2-2173.9-3165.2z M-2772.7-2827.8c-33.9-30-157.4-145.6-157.4-238.5c0-39.8,32.4-72.1,72.1-72.1
	s72.1,32.4,72.1,72.1c0,7.4,6,13.4,13.4,13.4s13.4-6,13.4-13.4c0-39.8,32.4-72.1,72.1-72.1s72.1,32.4,72.1,72.1
	C-2614.8-2973.4-2738.7-2857.8-2772.7-2827.8z M-2443.8-2896c0,39.8-32.4,72.1-72.1,72.1s-72.1-32.4-72.1-72.1
	c0-7.4-6-13.4-13.4-13.4s-13.4,6-13.4,13.4c0,39.8-32.4,72.1-72.2,72.1l-50.4,0.2c16.4-15.3,38.3-37.1,60.5-62.8
	c59-68.4,88.9-128.9,88.9-179.8c0-39.8,32.4-72.1,72.1-72.1s72.1,32.4,72.1,72.1L-2443.8-2896L-2443.8-2896z M-2101.8-2896
	c0,39.8-32.4,72.1-72.1,72.1s-72.1-32.4-72.1-72.1c0-7.4-6-13.4-13.4-13.4s-13.4,6-13.4,13.4c0,39.8-32.4,72.1-72.2,72.1l-50.4,0.2
	c16.4-15.3,38.3-37.1,60.5-62.8c59-68.4,88.9-128.9,88.9-179.8c0-39.8,32.4-72.1,72.1-72.1s72.1,32.4,72.1,72.1L-2101.8-2896
	L-2101.8-2896z"/>
<text transform="matrix(1 0 0 1 -2758.0574 -2678.3518)" class="st19" style="font-family:'ArialMT'; font-size:77.4282px;">#Diky2020.cz</text>
</svg>
