<?xml version="1.0" encoding="utf-8"?>
<!-- Generator: Adobe Illustrator 23.1.0, SVG Export Plug-In . SVG Version: 6.00 Build 0)  -->
<svg version="1.1" id="Vrstva_1" xmlns="http://www.w3.org/2000/svg" xmlns:xlink="http://www.w3.org/1999/xlink" x="0px" y="0px"
	 viewBox="0 0 330.8 461.2" style="enable-background:new 0 0 330.8 461.2;" xml:space="preserve">
<style type="text/css">
	.st0{fill:#000002;}
	.st1{fill:#FE9A66;}
	.st2{fill:#FEF9ED;}
	.st3{fill:#E56E45;}
	.st4{fill:none;stroke:#030303;stroke-linecap:round;stroke-miterlimit:2;}
	.st5{fill:none;stroke:#FFFAF2;stroke-linecap:round;stroke-miterlimit:10;}
	.st6{fill:none;stroke:#030303;stroke-width:2;stroke-linecap:round;stroke-miterlimit:2;}
	.st7{fill:#030303;}
	.st8{fill:none;stroke:#030303;stroke-linecap:round;stroke-linejoin:round;}
</style>
<title>objeti</title>
<g>
	<path class="st0" d="M147.6,118.7c0,0,12.5-27.3-6.4-58.6s-40.3-35.3-56-31.3c0.2-4.6,1.9-8.8-2-10s-10.4,3-11,9.8
		c0.1,1.4-7.1,1.8-16.3,6.5c-9.2,4.8-32.4,22.7-32.8,48.9s18.9,25,18.9,25l20.9,14.7L147.6,118.7z"/>
	<path class="st1" d="M42,109.1c0,0,13.8,21.4,18.6,24.2s8.9,3.3,10.3,4.8s-1.3,4.3,0,7.6S95.3,167,95.3,167l71.5-16.4l-23.2-48.9
		c0,0,1.4-22.7-3.9-25.7s-7.3,1-8,4.3s-0.6,15.8-4.1,16.3s-6.9-10-9-10.2s-6.8,13.8-12,11.6S99.8,67.1,94,66.4s-17.1,8.5-25.3,21.7
		S49.2,109.9,42,109.1z"/>
	<path class="st0" d="M80.2,913.6c0,0-17.4,24.1-25.4,27.8s-21.1,0.2-31.2,7.9s-6.7,17.1-4.2,18.9s55.4-1.6,62.1-4.3
		s14-6.2,14.9-11.6s-6-39.4-6-39.4L80.2,913.6z"/>
	<path class="st0" d="M121.9,953.4c0,0-3.8-7.4-19.4-4s-15.2,8.2-15.9,12.1s-3.9,32.9,5,37.3s22,1.8,25.8-0.7s19.6-10.5,27.3-12
		s11.4-28.5,11.4-28.5s-18.7,1.6-24.5,3.1s-8.3-0.7-8.3-0.7L121.9,953.4z"/>
	<path class="st0" d="M154.8,959.2c-14.5,0-20.2-0.2-21.2,3.8s3.4,25,3,32.5c-0.4,7.5-1.8,12.5,0.4,15.3s35.5-2.2,52.3-1.6
		s37.1,3.2,41.6,0s7.7-12.3,4.6-15.5s-43.6-8.1-46.8-8.3s-19.4-9.9-19.8-12.3s2.6-12.3,1.6-13.9S154.8,959.2,154.8,959.2z"/>
	<path class="st1" d="M87.6,918.2l4.4,40.2c4.3,2.7,9.5,3.7,14.5,2.8c8.3-1.6,11.1-7.8,11.1-7.8v-39.9L87.6,918.2z"/>
	<path class="st1" d="M138.9,925.2v39c5.5,1.5,11.3,2,17,1.6c9.3-0.8,11.7-3.4,11.7-3.4v-39.6L138.9,925.2z"/>
	<path class="st0" d="M273.6,450.4L259.5,934c0,0,1,4.5-2.7,4.9c0.3,7.3,1.2,32.5-5,38.3s-78.6,15.8-82.3,11.6s-2.8-15.5,12.2-21.5
		s38.5-9.8,42.2-13.8s-1.4-14.4-1.4-14.4s-4.4,0.4-6.7-6.5s-42-450.6-42-450.6L273.6,450.4z"/>
	<path class="st2" d="M31.1,580.6l54.7,357.9c6.8,3.2,14.3,4.6,21.8,4.2c8.2-0.6,16.3-2.1,24.2-4.4v10.9c0,0,10.1,6.3,26,3.6
		s23-7.9,23-7.9l29.1-369c0,0-51.9-17.4-96.3-15.8S31.1,580.6,31.1,580.6z"/>
	<path class="st3" d="M78.3,471.2c0,0,53.5,38.8,118.1,24.6s82-41.2,82-41.2s2.8-289.3-11.5-309.1c-18.2-25.4-173.2,11.5-199.3,38
		S78.3,471.2,78.3,471.2z"/>
	<path class="st1" d="M108.8,156.1c0,0-36.9,8.3-48,20.2s-13.9,115.3-8.7,145s5.6,44.7,5.6,44.7c-12.6,29.2-22.3,59.5-29,90.5
		c-11.1,51.5-15.4,135.1-15.4,135.1s20.6,20.2,51.5,27s36.9,6,36.9,6s4.4-17.4,11.5-29.7c9.1,9.9,14.3,36.9,14.3,36.9
		s25.8,7.1,55.1-2.4s39.6-17.8,39.6-17.8s-2.8-107.8-9.9-153.4s-13.9-66.6-13.9-66.6s7.9-19.8,15.8-53.9s10.3-46.4,10.3-46.4
		s20.3-70.2,16.9-78.5c-7-17-81.1-27.7-92.6-36S108.8,156.1,108.8,156.1z"/>
	<path class="st1" d="M218.4,283.7c0,0,47.8,73.7,58.8,80.8s24.7,4.2,28.8-8s-2.7-35.4-8-49.3s-23.8-46.1-23.8-46.1l-3.8,13.2
		l-10.8-13.2c0,0-7.1,11-15.6,11.6s-20.4-10.1-20.4-10.1L218.4,283.7z"/>
	<path class="st0" d="M128.4,137.1c-0.7-0.7-16.4,0.3-13.8-23.8s13.2-40.6,30.9-44.1c17.6-3.5,20.3,5.7,20.3,5.7s5-14.8,28.8-21.1
		s44.9-2.7,55.1,11.7s15.6,29.6,12,42.8s-24.2,25.2-24.2,25.2l-55,37.6C182.5,171.1,133.4,141.6,128.4,137.1z"/>
	<path class="st1" d="M216.5,176.9c0.5-0.1,8.8,2,15.4-8.4s6.4-15.3,7.7-15.8s6.8,1.4,9-2.4s0.7-7.4-1.9-9.9s-6.9-3.6-7-8.8
		c-0.1-5.2,9.3-9.6,10-26.7s-8.3-21.5-12.6-22.2s-22.8,1.2-35.5,19.1s-12,23.6-18.4,23.3s-3.3-5.8-5.2-9.4s-8.4-5.5-10.5,1.8
		s-1.8,14.2,1.6,16.4s6.8,0.6,7.9,1.9s-2.6,13.5-1,17.9S192.4,181.1,216.5,176.9z"/>
	<path class="st2" d="M128.8,134.6c-10.7,1.6-20.4,18.1-18.6,23s24.1,27.8,41.5,33s45,8.7,49.4,9.5s10.7-1.2,10.7-1.2
		s7.9-9.4,5-19.9s-12.6-11.7-15.8-12.4s-20.9-2.1-29.2-5.7s-21.4-12.3-26.2-17.6S128.8,134.6,128.8,134.6z"/>
	<path class="st2" d="M141.2,189.8c0,0-17.2-10.4-26.2-12.7s-21.1-2.8-23.2,1.9s20,5.9,19.4,9.2s-47.7-1.5-47.5,24.8
		s47.3,15.6,52.6,16.1s17.2,2.9,17.2,2.9L141.2,189.8z"/>
	<path class="st3" d="M220.9,205.2l-80.8-16.9c0,0-9.5,7.1-13.1,22.6s5.1,23.2,5.1,23.2s124.1,49.5,139.1,45.3s4.7-44.8,4.7-44.8
		S246.2,210.8,220.9,205.2z"/>
	<path class="st2" d="M62.8,355.4c0,0,1.9,1.5,6.5,0s41.9-27.9,47.3-23.3s-18.1,17.8-14.7,22.1s37.3-2.4,44.3,10.5
		s3.9,28.1-12.3,32.3s-50.5-3.7-61.2-6.2s-16.2-0.3-16.2-0.3s-10.5-7-5.9-18.7S62.8,355.4,62.8,355.4z"/>
	<path class="st3" d="M59,179.3c0,0-37.4,88.6-41.8,130.3s11.9,66.6,21,73.7c5.9,4.4,12.7,7.3,20,8.3c0,0-6.5-11.2-3.4-19.5
		s10-16.3,10-16.3s-4.1-12.9-6.6-33.1S57.4,195.9,59,179.3z"/>
	<path class="st4" d="M258.9,221c0,0-20-9.4-30-13.5s-88.6-19.2-88.6-19.2s-11.5,8.9-13.1,22.6s2.5,19.8,5.1,23.2
		c4.4,2.6,56.2,21.8,75.9,28.5s58,21.9,65.3,16s7.1-27.7,3-42.5c-0.8-18.4-3.7-75.7-7.7-86.7c-4.5-12.4-26-11.9-26-11.9"/>
	<path class="st4" d="M213.9,196.8c0,0,12.9,3.6,18.8,7.8s9.4,7.3,9.4,7.3"/>
	<path class="st4" d="M216.2,177c2.3,0,4.5-0.2,6.8-0.7c9.8-2.3,15.7-21.8,16.1-22.9s0.5-0.7,4-0.6s5.1-1.3,6.5-4.9
		c1.5-3.7-3.6-7.4-6.5-10.2c-2.7-2.6-3-3.9-3.3-6.8s6.6-10,8.3-16.1s5.8-25.9-11.3-32.4c0,0-16.6,1.4-27.6,11.2
		c-12.8,11.3-18,28.8-22.4,31s-7.2-0.9-7.2-0.9s0.6-5.5-1.9-8.5s-8.4-3.9-10.1,2.4s-2.3,15.2,2.5,16.9s5.5,0.1,6.7,1.1
		s-2,14.2-1,17.1s5,9,6.9,10.4"/>
	<path class="st4" d="M173.7,117.6c0,0,3,4,3,8.4c0,4.4-1,6.1-1,6.1"/>
	<path class="st4" d="M200.9,200.4c3.7-0.3,7.4-0.8,11-1.5c5.8-4,6.8-17.4,3.1-24.5s-12.6-7.6-20.2-8.8s-17.4-3-25.7-6.1
		s-20.7-13.7-25-17.9s-15.2-7-15.2-7s-8.3,1.4-12.9,8.8s-6.9,10.6-5.7,14.2s16.7,19.4,25.4,24.6c8.7,5.3,13.5,7.7,13.5,7.7"/>
	<path class="st4" d="M156.6,182.7c0.3,0,15,9.8,32.8,11.4s26.9-2.8,26.9-2.8"/>
	<path class="st4" d="M129.7,142.7c0,0,3.4,11.3,25.1,24.9s52.2,7.6,52.2,7.6"/>
	<path class="st4" d="M139.2,188.7c0,0-13-8.4-22.9-11.1s-24.5-3.2-24.5,1.5s19.8,6.4,19.4,8.8s-47,1.3-47.2,22.1
		c-0.2,18.2,9.3,19.8,25.2,20.8c12.8,0.8,27.2-1.6,27.2-1.6l14.1,2.3"/>
	<path class="st4" d="M118.8,201.9c-2.7,4.7-4,10.1-3.8,15.6c0.6,8.7,1.3,11.7,1.3,11.7"/>
	<path class="st4" d="M217.5,281.4c0,0,32.4,51.9,47.7,69.8s21.6,20.8,32.1,15.4s14.4-22,3.8-51s-22.4-46.8-22.4-46.8"/>
	<line class="st4" x1="273.3" y1="278.5" x2="284.6" y2="293.4"/>
	<path class="st4" d="M152.6,389.7c0,0,18.3,7.3,30.9,5.5s14.9-3.7,14.9-3.7s25.1-79,25.8-98.7"/>
	<path class="st4" d="M60,177.4c0,0-44,104-43.5,138.8s8.7,53.7,18.8,64.3c6,6.4,14.1,10.3,22.8,11c-2-3.4-3.7-9.6-4.1-16.2
		s10.7-19.6,10.7-19.6s-5.4-14.4-7.2-40.2C55.9,290.7,55.6,187.5,60,177.4c4.8-11,50.1-19.7,50.1-19.7"/>
	<path class="st4" d="M64.8,355.7c1.4,0.1,2.8,0.1,4.1,0c1.5-0.2,38-25.8,46.6-24.1s-15.7,17.5-14,22s31,0.4,39.6,6.4
		s13.1,25.1,2.2,32.2s-24.8,6.5-34.8,5.1s-33-6.6-39-7.2c-3.9-0.3-7.9-0.3-11.8,0"/>
	<path class="st4" d="M65.8,361.8c0,0-5.9,8.5-4.8,15.8s3.2,8.3,3.2,8.3"/>
	<path class="st4" d="M48.4,389.3c0,0-20.3,56-25.6,101.9s-9.4,100.5-9.4,100.5s20.9,18.5,43.1,24.7c14.9,4,30,6.7,45.3,8.2
		c0,0,7.2-24.7,11.5-29.7c0,0,12,18.4,14.3,36.9c18.7,7.7,47.9,1.7,66.1-6.2c9.8-4.1,19.3-8.8,28.6-14c0,0-2.5-85.9-6.8-127.3
		s-17-92.7-17-92.7"/>
	<path class="st4" d="M206.4,619.7l-25.7,325.1c-8.1,4.8-17.2,7.8-26.6,8.6c-15.7,1.5-22.4-4.3-22.4-4.3l-18.6-354.3"/>
	<path class="st4" d="M35.2,607.1l50.6,331.3c0,0,8.6,5.2,22.5,4.1c7.8-0.5,15.5-1.9,22.9-4.2"/>
	<path class="st4" d="M116.6,801.5c0,0-4.7,4.3-19.5,4.5s-22.1-4.5-22.1-4.5"/>
	<path class="st4" d="M112.2,404.2c0,0,12,2,20.7-0.7s11-5.3,11-5.3"/>
	<path class="st4" d="M138.9,952.4v11.8c5.2,1.4,10.5,2,15.8,1.7c4.5-0.3,8.9-1.5,12.9-3.5v-11.8"/>
	<path class="st4" d="M90,940.3l2,18.2c4.7,3.1,10.5,4,15.9,2.4c9-2.6,9.6-7.5,9.6-7.5v-11.6"/>
	<path class="st5" d="M136.8,973.1c0,0,7.7,4.2,14.4,3.5s17.6-5,17.6-5"/>
	<path class="st5" d="M85.9,969.1c0,0,10.7,7.3,21,4.4s16.5-13.5,16.5-13.5"/>
	<path class="st4" d="M278.5,364.9l-0.1,89.6c0,0-24.3,28.3-62.5,36.1"/>
	<path class="st4" d="M224.2,375.4c0,0,5.2,17.2,21.6,24.5s27.8,1.7,27.8,1.7"/>
	<path class="st4" d="M42,109.1c0,0,12.9,21.2,17.9,23.8s10.1,3.3,11.1,5.6s-1.5,4.2-0.2,7.2s18.5,16.6,18.5,16.6"/>
	<path class="st4" d="M58.2,397.3c0,0,10.5-1.9,16.9,0.9c3.8,1.7,7.7,2.8,11.8,3.4"/>
	<path class="st4" d="M41.6,296.9c0,0,11.6-0.4,15.6,7.3"/>
	<path class="st4" d="M62,345.9c0,0-13.8,4.8-18.6,16.6s-0.6,24.1-0.6,24.1"/>
	<path class="st4" d="M157.5,191.6c0,0-10.3,9.4-13.2,22.9c-1.7,8.4-1,17,1.9,25"/>
	<path class="st4" d="M58.8,134.6c0,0-0.6-4.9,6.4-8.9"/>
	<path class="st4" d="M80.6,117.6c0,0,0.7-3.7,6.4-7.6c3.2-2.3,7-3.6,10.9-3.8"/>
	<line class="st6" x1="70.1" y1="137.4" x2="76.1" y2="132.9"/>
	<line class="st6" x1="90.2" y1="124.9" x2="99.3" y2="117.6"/>
	<path class="st4" d="M72,123.2c0,0,12.7,24.4,17.2,28.9s10.9-5.3,10.9-5.3"/>
	
		<ellipse transform="matrix(0.2974 -0.9548 0.9548 0.2974 40.2831 307.0123)" class="st7" cx="228.7" cy="126.1" rx="5.2" ry="3.3"/>
	<path class="st4" d="M222.4,115.4c0,0,2-3.4,8.8-3.4s7.9,2.8,7.9,2.8"/>
	<path class="st8" d="M217.1,149.8c0.8-1.3,2.3-2.1,3.8-1.9"/>
	<path class="st8" d="M220.4,152.5c0,0,0.4,6.8,6.2,10.1c4.9,2.8,7.8,2.1,7.8,2.1"/>
	<path class="st5" d="M160.3,74.9c0,0-8.5,3-7.2,23.9c1.7-10,7.4-18.4,10.4-19.8"/>
	<path class="st4" d="M75.5,34.1c-1.1-3.2-3.8-5.6-7.2-6.1c-6-1.3-9.5,1.5-9.5,1.5"/>
	<path class="st5" d="M222.1,495.1c0,0,3.8,27.9,19.6,41.1s22.2,13.3,22.2,13.3"/>
	<path class="st5" d="M211.2,759.8c0,0,10.7,9.2,21.4,9.9s22-15.6,22-15.6"/>
	<path class="st4" d="M240,212.2c0,0,10.8-1.4,17.5-2.1"/>
</g>
</svg>
