<?xml version="1.0" encoding="utf-8"?>
<!-- Generator: Adobe Illustrator 23.1.0, SVG Export Plug-In . SVG Version: 6.00 Build 0)  -->
<svg version="1.1" id="Vrstva_1" xmlns="http://www.w3.org/2000/svg" xmlns:xlink="http://www.w3.org/1999/xlink" x="0px" y="0px"
	 viewBox="0 0 668.6 1006.2" style="enable-background:new 0 0 668.6 1006.2;" xml:space="preserve">
<style type="text/css">
	.st0{fill:#FE9A66;}
	.st1{fill:#FFFAF0;}
	.st2{fill:#030303;}
	.st3{fill:#FFFAF2;}
	.st4{fill:#ED7B50;}
	.st5{fill:none;stroke:#030303;stroke-linecap:round;stroke-miterlimit:10;}
	.st6{fill:none;stroke:#030303;stroke-linecap:round;stroke-linejoin:round;}
	.st7{fill:none;stroke:#030303;stroke-miterlimit:10;}
	.st8{fill:none;stroke:#030303;stroke-linecap:round;stroke-miterlimit:2;}
	.st9{fill:none;stroke:#030303;stroke-miterlimit:2;}
	.st10{fill:none;stroke:#FFFAF2;stroke-linecap:round;stroke-miterlimit:10;}
</style>
<title>samozivitelka</title>
<g id="Vrstva_5">
	<path class="st0" d="M114.5,982.4c-11.4,10.9-19.8,10.3-19.8,10.3s-6.4-1.1-9.5-8.9s23.1-36.3,23.1-36.3l-5.9-31.5l-17.3-92.5
		l40.4,8.9c0,0,1.8,47.3,3.6,84.1c1.1,22.2,2.1,40.5,2.8,42.4C133.8,964,126,971.5,114.5,982.4z"/>
	<path class="st0" d="M185.6,972.4c1.1,14.5-4.5,23.7-17,23.1s-11.1-29.3-10.6-45.4c0.2-4.9-0.5-17.5-1.4-32.7
		c-2.2-35.3-6.1-84.6-6.1-84.6l39.6-17.3l-7.6,100.9l-1.6,20.9C180.9,937.2,184.5,957.9,185.6,972.4z"/>
	<path class="st0" d="M186.3,574.4c0,0,23.6,41.8,37.2,47s100.2-24.7,100.2-24.7l-8.9-17.3c0,0-72.5,20.4-78.1,16.4
		c-7.2-5.3-21.5-35.9-21.5-35.9L186.3,574.4z"/>
	<path class="st1" d="M218.8,563.2c0,0-6.3,1.5-15.6,10.7s-10,14.9-10,14.9l-12.6-17l-6.7-9L74,581.6l-9,12.7l1.9,14.6
		c0,0-26.3-13.1-36.8-13.9c0,0-2.1-34,17.8-53.6l0,0c1.5-1.5,3.1-2.9,4.8-4.1c4.1-2.9,8.6-5.3,13.2-7.1l0,0
		c23.7-9.8,62.2-15.5,87.2-16.4c9.3-0.3,16.7,0.1,20.8,1.2c0.5,0.1,1,0.3,1.4,0.5l0,0C192.7,522,218.8,563.2,218.8,563.2z"/>
	<path class="st2" d="M88.8,499.5c-0.4-0.1-9.2-2.5-10.7-1.9s-2.9,3.8-2.9,3.8s6.8,8.5,2.5,17.6S52,535.7,51.3,532.5s2.5,0.3,4-4.9
		s-4.5-13.4,3-23.1s11.7-9.6,11.7-9.6v-3.1c0,0-17.9-15.9-18.8-38.6s19.3-38.7,32.6-40.3s16.5,0,16.5,0s9.9-3.9,18.1-2.9
		s18.8,11.6,19,27.2c0,10.2-0.8,20.4-2.5,30.5l5.4,11.3c0,0,2.4-4,9.1-0.4s6.1,10.3,9.2,10.9c1.9,0.3,3.8-0.3,5.2-1.6
		c0,0,3.4,12.6-10.3,15s-23.3-7.7-23.3-7.7L88.8,499.5z"/>
	<path class="st0" d="M80.9,525.3c0,0,11.9-1.5,10.7-9.8s-4.6-22.6-14.9-25.8c-5.7,7.1-14.1,2.7-16-3.8s-1.4-11.9,4.5-12.5
		s7.1,8.9,10.5,6.5s-2-16-1.6-23.4s3.5-11,3.5-11s-2.4,9.7,1.1,18c7.2-4.2,21.2-14.3,33.8-15.1s18.8,2.1,18.8,2.1s-0.7,1.5,0.4,5.4
		s11.4,15.9,11.1,30.7c-0.1,8.6-4.2,16.7-11.2,21.8c0,0,2.7,5.8,8.1,8c3,1.3,6.3,1.7,9.5,1.1c0,0-10.2,11.3-34.3,12.4
		S80.9,525.3,80.9,525.3z"/>
	<path d="M383.2,457.5c0,0-7.8,64.1,6.1,143.8S417.3,714,417.3,714s8.4,97.6,11.1,134.9s7.8,83.1,7.8,83.1s1.7,3.2,8.2,3.9
		c-2.8,8.5-20.4,29-22.7,40.7s-1.7,20.3,9.8,20.1s43.3-33.1,45.2-37.3s1.9-414.8,1.9-414.8h3.8c0,0,13.7,376.9,15.6,382.4
		s10,6.7,10,6.7s-1.5,18.2,1.9,24.2c3.3,5.9,12.3,8.2,16.7,15.6s17.1,28.3,32,23.2s13-19.9,5.2-32.2s-20.4-33.8-20.4-33.8
		s0-55,2.8-87.3s5.8-127.7,5.8-127.7s11.5-55.2,20.4-115.4s15.6-117.6,10.9-146.3L383.2,457.5z"/>
	<path class="st0" d="M596.6,505.8c0,0-8.9,3.9-16.9,17.8S557,559.9,559,563.5s3.9,5.6,7.1,4.3s9.1-17.5,14.5-22.5s7.1-5.8,7.1-5.8
		s0,20.5-3,28.6s-18.8,19.7-19.1,24.9s4.1,6,4.1,6l5-4.3c0,0-4.1,3.3-3.5,6.3s4.1,3.2,4.1,3.2s6.6-2.8,14.3-11
		c2-2.1,9.5-11.8,9.9-12.2c16.2-19.4,19.3-47.9,19.3-47.9s-3.6-17.3-10.2-22.2S596.6,505.8,596.6,505.8z"/>
	<path d="M488.1,162.3c0,0-1.4-4.5,5.6-20.6s22.9-39,8.9-65.2c-13.9-26.2-27-30.7-30.4-32.3c-2.5-6.4,3.1-30.1-25.9-28.4
		c-23.1,1.3-22.9,14.5-15.6,25.4c-30.1-4.2-54.4,13.4-53.8,42.4c0.4,17.5,6.3,34.5,16.7,48.5L488.1,162.3z"/>
	<path class="st0" d="M319.7,513.8c0,0-7.1,30.1-10,47.2s-3.9,21.4-2.4,24.2s8.6,15.1,11,15.4s3.2-0.9,3.2-0.9s4,7.5,6.8,8.3
		c1.7,0.4,3.4-0.1,4.6-1.3c0,0,6.5,11.1,9.8,9.6s6-7.3,6-7.3s-0.6-20.4-0.7-27.4s1.8-19.2,2.7-19.7s8.1,10,9,13.9s-0.5,12.7,1.8,16
		s5,2.5,5.6,1.8s2.9-17.4,0.7-24.4s-6-13.2-7.9-18.6s-9.8-17.1-13.1-19.6l2.6-25.4C349.4,505.5,327.9,507.2,319.7,513.8z"/>
	<path class="st3" d="M311.6,517c0,0,10,5.6,29.1,0.6s24-11.7,24-11.7l25.8-90.5l-7.3,42.1c0,0,45.4,28.2,103.7,21.5
		s96.2-25.1,96.2-25.1v57.7c0,0,4.7-4.3,14.6-0.4s21,26,21,26s13-183.4-3.3-252.2s-41.1-95-67.4-96.5l-128.8,17
		c0,0-62.5,3.4-77.4,104.1S311.6,517,311.6,517z"/>
	<path class="st0" d="M405.5,69.5c0,0-13.7-2.2-16.7,16.2s5.8,27,4.7,32.1s-3.7,20.8,6.2,44.6c5.7,13.7,20.8,28.1,33.1,27
		c11.4-1,15-3.3,15-3.3s-0.6,9.8-11.1,14.5s-17.6,5-17.6,5s17.8,20.4,68.6,10.6s60.2-27.6,60.2-27.6s-36.2-2.5-47.4-15.1
		s-23.1-39.9-20.9-43.5s14.8-7,11.4-21.5s-14.8-10.6-17-4.5s-2.1,6.7-8.4,9.8c0,0-28.4,6.1-42.7-10.9
		C404.4,80.5,405.5,69.5,405.5,69.5z"/>
	<path class="st4" d="M216.3,836.3c-3.4,3.1-11.1,5.3-23.4,4.5s-16.7,10-44.9,13.1s-40.7-17.8-56.9-20.1s-20.4,5.6-33.2,4.7
		s-15.6-10-15.6-10s26.8-166.2,26.8-187.6s-5.6-47-5.6-47s3.9-21.6,0.3-37.2c-3.6-15.6-16-15.4-16-15.4l0,0c1.5-1.5,3.1-2.9,4.8-4.1
		c4.1-2.9,8.6-5.3,13.2-7.1l0,0c13.8,6.3,23.8,37.4,23.8,37.4l69.1-6.8c0,0,5-2.9,3.6-23.5c-0.9-12.8-5.8-19.9-9.4-23.5
		c9.3-0.3,16.7,0.1,20.8,1.2c0.5,0.1,1,0.3,1.4,0.5l0,0c4.2,6.3,5.4,32.4,5.2,56.3c-0.1,19.2-1.1,37-1.9,42.1
		c2,7.8,11.7,76.9,14.8,108.7S218.8,831,218.8,831S219.6,833.3,216.3,836.3z"/>
	<path class="st0" d="M58.1,604.5c0.1-2.7-24.7-10-25-9.1s-1.1,56.3,7,88.5s27.9,60.1,32.3,73s12.1,29.8,15,30.7
		c1.7,0.5,3.5-0.2,4.5-1.7c0,0,3.4,7.5,6,6.2c1.5-0.8,2.5-2.4,2.6-4.1c0,0,0.2,1.4,3,2.8s6.2-1.3,4.8-3.3s-8.6-13.3-9.6-17.1
		c-0.5-2.8-0.5-5.6,0.1-8.4c0,0,6.3,4.9,6.6,6.9s-0.9,6.9,0.4,8.5c0.8,1.2,2.5,1.4,3.6,0.6c0.1-0.1,0.3-0.2,0.4-0.3
		c0.6-0.8,2.7-15.9-3-22.5s-13.2-7.8-16.7-11s-20.2-35.6-26.2-66.1C63.9,678.2,57.1,635.1,58.1,604.5z"/>
	<path class="st0" d="M352.4,571.6c-1.6-1.2-18.5-3.6-19.7-0.7s0.7,3.6,2.3,4s16.5,2.8,17.4,2S354.3,573,352.4,571.6z"/>
	<path class="st0" d="M334.9,577.8c-1.6,0.3-1.7,2.2,0,3.5s17.2,4.3,18.5,3.1s1.9-3-0.4-4.5S337.6,577.2,334.9,577.8z"/>
	<path class="st0" d="M337.2,585.3c-1.2,0.9-1.3,2.6,0,3.2s13.3,3.8,15.2,2.5s2.5-4.3,0.6-5.1S337.2,585.3,337.2,585.3z"/>
	<path class="st0" d="M342.9,596.1c-0.6,1.7,2.2,3,5.6,2s4-1.5,3.6-2.7s-0.5-2.2-2.6-2.1S343.4,594.7,342.9,596.1z"/>
	<path class="st1" d="M114.5,982.4c-11.4,10.9-19.8,10.3-19.8,10.3s-6.4-1.1-9.5-8.9s22.4-35.4,23.1-36.2l0,0l-5.9-31.5
		c4.7,1.5,9.6,2.3,14.6,2.3c4.1-0.1,8.2-0.7,12.2-1.8c0.5,10.9,1.1,20.9,1.5,28.5c0.5,7.8,0.9,13,1.2,14
		C133.8,964,126,971.5,114.5,982.4z"/>
	<path class="st1" d="M168.6,995.5c-12.5-0.6-11.1-29.3-10.6-45.4c0.1-2.7-0.1-7.9-0.4-14.6c-0.2-5.2-0.6-11.4-1-18.1
		c4.4,1.2,9.1,1.6,13.7,1.2c4.1-0.3,8.2-1,12.2-2.2l-1.6,20.9c0,0,3.6,20.6,4.7,35.1S181.2,996.1,168.6,995.5z"/>
	<path class="st2" d="M114.5,982.4c-11.4,10.9-19.8,10.3-19.8,10.3s-6.4-1.1-9.5-8.9s22.4-35.4,23.1-36.2
		c-0.5,0.7-15.8,21.8-13.9,23s9.5,5.2,14.2,4s19.1-17.4,20.3-21.1c0.8-2.8,1.5-5.6,1.9-8.5l0,0c0.5,7.8,0.9,13,1.2,14
		C133.8,964,126,971.5,114.5,982.4z"/>
	<path class="st2" d="M168.6,995.5c-12.5-0.6-11.1-29.3-10.6-45.4c0.1-2.7-0.1-7.9-0.4-14.6c0,0,2.1,3.5,2.3,5.4s0.9,27.7,3.6,29.4
		s17.4,1.7,18.7-0.7s-1.4-32.3-1.4-32.3s3.6,20.6,4.7,35.1S181.2,996.1,168.6,995.5z"/>
	<path class="st2" d="M66.6,479.4c2.6,2.1,4.1,5.4,3.9,8.8c0,0.4,0.2,0.9,0.7,0.8s0.6-0.8,0.6-1.1c0.2-4-1.5-7.8-4.5-10.3
		c-0.4-0.3-0.8,0.3-0.9,0.5C66.2,478.6,66.3,479.1,66.6,479.4z"/>
	<path class="st5" d="M111,489.9c0,0,5.2,5.7,10.7,4.8c3.3-0.7,6.2-2.9,7.7-5.9"/>
	<path class="st6" d="M116.7,461.6c0,0,2.4,5.1,6.2,7.6s7.9,5.3,6.5,8.3c-1.7,3.6-5.6,2.9-7.5,2.1"/>
	<path class="st5" d="M108.1,486.1c0,0-1.4,1.1-1.3,2.3"/>
	<path class="st5" d="M95.8,461.6c0.9-2,2.2-3.8,3.7-5.3c1.1-1.2,2.6-1.9,4.2-2"/>
	<path class="st5" d="M120.9,449.4c1.2-0.2,2.3-0.2,3.5,0c1,0.1,1.9,0.3,2.8,0.7"/>
	<path class="st7" d="M73.3,527.4c0,0,15.5,15,49.2,10s31.9-22.4,31.9-22.4"/>
	<path class="st7" d="M80.4,525.2c0,0,19.2,7.3,38.2,4.6c17.4-2.5,27.5-7.8,30.7-12.1c-3.8,0.8-7.7,0.1-11-1.9
		c-6-3.4-6.9-7.3-6.9-7.3"/>
	<path class="st7" d="M65.6,530c6,3.6,10.9,8.8,14.1,15c5.2,10.1,10.2,22.6,10.2,22.6l69.1-6.9c0,0,4.5-7.1,3.5-22.3
		c-1.1-16.7-9.4-24.7-9.4-24.7"/>
	<path class="st6" d="M102.6,506c0,0,9.3,5.2,19.1,4.8s12.9-4.8,12.9-4.8s7.2-6,8.3-19.3c1-12-9.9-27.9-11.1-30.7
		c-0.8-1.7-0.9-3.6-0.4-5.4c-8.8-3.5-18.6-3.6-27.5-0.5c-9,3.2-17.5,7.7-25.1,13.5c0,0-3.5-12-1.1-18c-6.1,10.1-3,16.8-2.1,21.8
		s2.9,12.7-0.5,12.9s-2-3.5-6.5-6s-11.6,0.1-7.9,11.5c3.7,11.4,15.1,7.6,16.1,4c4.4,1.7,7.9,5,10,9.2c3.6,7.2,6.7,18.2,3.6,22.1
		s-19,4.8-29.4,11.2c-4.5,2.8-8.9,5.1-13,8.6c-5.4,4.6-10.2,11.3-13.9,23.7c-6.4,21.8-6.1,30.8-6.1,30.8s7-0.3,19.2,3.8
		c12.2,4.1,19.3,9.5,19.3,9.5l-3-15.9c0,0,4.2-26.6-0.6-38.8s-15.3-12.7-15.3-12.7"/>
	<path class="st8" d="M52.4,582.8c0.2,0.2,11.2,10,11.2,10l-5.9-13.3"/>
	<path class="st9" d="M136.5,514.6c0,0,15.8-0.9,23.2-1s10.9-0.2,19.7,3.8s39.3,45.7,39.3,45.7s-11,4.6-16.6,11.2
		c-3.6,4.4-6.6,9.2-9,14.4l-12.6-17c0,0-0.3-21.3-0.7-31.1s-3.9-24.7-3.9-24.7"/>
	<path class="st9" d="M57.5,727.5c-7.2,49.2-15.1,101.1-15.1,101.1s2.4,8.2,15.6,10s9.7-5.3,31.4-5c18.3,0.3,23.9,20.9,54.4,20.6
		s29.1-11.5,44.4-13.1c12.5-1.3,15,0.4,20.8-1.3c9.5-2.7,10-7.8,10-7.8s-19.3-74.1-24.1-99.1s-13.3-113-16.2-119.1
		c1.2-7,1.9-42.1,1.9-42.1"/>
	<path class="st9" d="M65.8,607.9c0,0,3.7,20.8,3.3,34.2c-0.1,3.6-2,18.5-4.9,38.5"/>
	<path class="st7" d="M87.2,833.6l21.1,113.3c0,0-10.6,12.4-15.2,19.3s-8.3,14-8.1,15.8s1.2,7.9,9.6,10.3s23.3-13,26.9-16.6
		s10.9-10.4,10.8-14.6s-0.9-7.9-1.4-16.7s-4.4-92.7-4.4-92.7"/>
	<path class="st7" d="M102.8,916.2c4.5,1.5,9.1,2.3,13.9,2.2c4.3,0,8.5-0.6,12.6-1.8"/>
	<path class="st7" d="M108.4,946.8c0,0-14.8,21.4-14.1,23.4s10.1,5.8,14.4,4.3s18.9-16.4,20-20.6s2.2-8.1,2.2-8.1"/>
	<path class="st7" d="M152.1,853.8L158,945c0,0-3.4,45.5,6.9,49.3s18.3-2.4,19.5-9.2s1.8-8.4,0.7-17.8s-4.2-30.6-4.2-30.6l7.2-95.6"
		/>
	<path class="st7" d="M156.2,917.3c4.4,1.1,9,1.6,13.6,1.3c4.3-0.3,8.6-1.1,12.7-2.4"/>
	<path class="st7" d="M157.6,935.5c0.9,1.5,1.7,3.1,2.2,4.8c0.6,2.3,0.7,25.4,3.3,29.5s18.3,1.1,18.9,0c1-1.8-0.6-29.2-0.6-29.2"/>
	<path class="st7" d="M138.6,501.1c0,0,8.1,4.3,16,1.5s10.4-7,8.9-14.7c-0.5,0.4-3.5,2.9-5.7,1.4s-2.1-6-7-9.6s-8.9-2.1-8.9-2.1"/>
	<path class="st5" d="M69.9,493.4v1.5c0,0-8.2,2.2-13.1,11.6s-0.2,17.2-1.5,20.8s-2.3,3.4-2.8,3.5s-1.9,0.2-1.2,2s14.2-3.1,19.1-6.6
		s8.7-7.1,8.6-14c0-4-1.4-7.8-3.9-10.9c0,0,1-3.2,3.1-3.8s8.6,1.5,8.6,1.5"/>
	<path class="st5" d="M135.5,462.7c0,0,5-27-1.5-39.6c-6.9-13.4-19.7-16.3-33.8-10.2c-15.1-3.8-35.5,4.3-42.7,18.1
		s-10.1,31,2.2,47.7"/>
	<path class="st5" d="M306.5,581.7c0,0-64.3,17.5-69.9,14.2s-19.4-31.5-19.4-31.5"/>
	<path class="st5" d="M194,587.2c0,0,18.9,31.5,29.4,34.2c15.9,4.2,92.9-22.3,92.9-22.3"/>
	<path class="st5" d="M58.1,603.8c0,0-0.2,57.2,7.5,81.7s18.8,53,24.5,58.8s13.2,4.9,17,11.3s4.5,18,2.8,22c-2.5,3.2-4.9,0.2-4.7-3
		s0.1-6.1,0.1-6.1c-1.9-2.2-4-4.3-6.2-6.3c-3.5,8.1,7.1,22.8,9.2,25.5c0.2,0.3,0.3,0.8,0.2,1.2c-0.3,1.3-1.3,2.2-2.6,2.3
		c-2.8,0.3-5.4-3.1-5.4-3.1s-0.2,4-3.1,4.2s-5.6-6.4-5.6-6.4c-0.7,1.2-2,1.9-3.4,1.8c-2.4-0.1-8.3-10.2-13.9-25.1
		c-6.5-15.4-27.6-51.9-35-80.9s-6.6-85.8-6.6-85.8"/>
	<path class="st5" d="M348.4,593.4c0,0-6.7,0.8-7.2,1.7c-0.6,1.2-0.2,2.6,0.8,3.5c1.1,0.8,8.5-0.2,10-2S350.9,592.7,348.4,593.4z"/>
	<path class="st5" d="M352.2,591.1c-1.9,0.9-13.4-0.3-13.5-1.8s-0.1-3.1,1-3.8s12.2-0.5,13.5,0.5c1.2,1.3,1.2,3.3,0,4.5
		C352.9,590.8,352.6,591,352.2,591.1z"/>
	<path class="st5" d="M354.1,580.8c-1.9-2.9-12.6-2.8-13.5-2.1s-1.2,3.2-0.2,4.1s11.2,2.5,12.9,1.7c1.2-0.6,1.7-2,1.2-3.2
		C354.3,581.1,354.2,580.9,354.1,580.8z"/>
	<path class="st5" d="M352.7,572c-1.3-1.6-10.2-1.9-10.9-1.5s-1.8,2.9-0.4,4.3s9.8,2.8,11,1.9S354.2,573.9,352.7,572z"/>
	<ellipse transform="matrix(0.866 -0.5 0.5 0.866 -219.7599 115.2069)" class="st2" cx="105.1" cy="467.7" rx="2.5" ry="4.2"/>
	
		<ellipse transform="matrix(0.9152 -0.4031 0.4031 0.9152 -175.3943 89.794)" class="st2" cx="125.6" cy="461.6" rx="2.5" ry="4.2"/>
	<path class="st10" d="M74.3,499.7c-0.7-1.6-1.8-2.9-3.2-4c2.1-0.1,4.2,0.1,6.1,0.8"/>
	<path class="st6" d="M92.6,772.5c0,0,4.3,11.1,7.9,15.5"/>
	<path class="st6" d="M88.1,776.9c0,0,2,5,3.8,8.8"/>
	<path class="st10" d="M75.4,504.3c0,0,2.9,9.3,0,14.4c-1.6,3-4,5.4-6.9,7.1"/>
	<path class="st10" d="M122.2,441.9c0,0,3.2-7.8-1.3-17.8c4.6,5.1,6.9,11.9,6.4,18.8"/>
	<path class="st7" d="M28.7,588.7c7,0,14,1.2,20.6,3.6c5.7,2.1,11,5,15.8,8.6"/>
	<path class="st7" d="M215.9,559.5c-6.3,0.8-12.1,3.7-16.5,8.3c-4.4,4.7-7.7,10.2-9.8,16.2"/>
	<path class="st9" d="M62.1,531.7c0,0,9.1,4.8,13.5,13.7s10.3,28,10.3,28l75-7.5c0,0,10.2-9.5,7.5-27.8s-10-24.3-10-24.3"/>
	<path class="st8" d="M76.6,625.1c17.2-5.5,34.9-9.1,52.9-10.5c28.5-2.1,37.7,0,37.7,0"/>
	<polyline class="st8" points="189.1,763.6 172.3,713 171.7,766.8 	"/>
	<path class="st8" d="M104.4,925.9c3.9,1.7,8.1,2.5,12.4,2.4c4.4,0,8.8-0.6,13.1-2"/>
	<path class="st8" d="M156.8,926.5c4.1,2.6,8.9,3.8,13.8,3.4c8.2-0.5,11-2.9,11-2.9"/>
	<path class="st8" d="M574.2,595.1c0,0,10.8-9.1,13.3-11.8c1.7-1.9,3.2-4,4.4-6.3"/>
	<path class="st8" d="M618.2,536.3c0,0-4.7-10.9-11.2-17.2s-9-9.1-16-9.5c-3.1,3.1-6.1,6.5-8.8,10c-5.1,6.5-23.8,36.8-23.4,42.3
		s4.6,7.2,7.7,5.6s7.6-12.5,11.2-18.8c2.4-3.9,5.8-7.1,9.9-9.2c0,0-0.6,20.9-3.4,29.6S567.2,586,565.7,592s3.9,7,3.9,7l4.5-3.8
		c-1.1,1-1.9,2.1-2.6,3.4c-1.3,2.3,0.9,6.1,3.5,5.6c5.3-1.3,15.6-12,15.6-12S614.6,566.3,618.2,536.3c0.8-7.1,17.2-195.5-8-270.6
		s-52.5-77-62.2-77s-34.1-4.1-46.1-13.8c-12-9.7-22.9-41.4-22.4-44.3s5.8-2.4,9.3-8.7c6.4-10.2,1.1-22.4-6.5-23.3s-9.3,8.6-10,10.3
		s-1.5,3.5-7,5.1s-21.1,1.8-31.9-3.1s-28.6-30.3-27.9-41.3c-8.1-1-15,4.7-16.8,16.9s-0.9,10.7,4.9,30.5c-2.9,22.5,1.5,32,1.5,32
		c6.9,26.9,26.3,39.2,33.4,40.3s19.4-3.1,19.4-3.1s-0.4,5.8-4.2,9.4s-5.2,7.6-24.5,10.1s-40.7,17.8-51.5,33.4s-18.7,38.6-26.5,74.8
		S311.6,517,311.6,517s1,1.5,6.8,2.2c4.6,0.4,9.1,0.4,13.7,0c18.3-1.3,32-12.8,32-12.8s26.2-90.6,35.7-123.2s10.1-87.6,8.6-97.1"/>
	<path class="st8" d="M419.2,205.5c0,0,20.3,21.4,71,10.1s57.8-27.1,57.8-27.1"/>
	<path class="st8" d="M469.6,190.5c0.8,0.4,8.1,1.9,14-2"/>
	<path class="st8" d="M480.9,106.5c0,0-4.2,6.1-3.5,13.5"/>
	<ellipse transform="matrix(0.972 -0.2351 0.2351 0.972 -18.07 97.7408)" class="st2" cx="400.8" cy="124.6" rx="2.5" ry="4.2"/>
	<ellipse transform="matrix(0.972 -0.2351 0.2351 0.972 -16.2387 104.0063)" class="st2" cx="428" cy="120.1" rx="2.5" ry="4.2"/>
	<path class="st8" d="M411.4,116c0,0-8.6,31.4-3.1,34.2c6.9,3.5,10-2.5,10-2.5"/>
	<path class="st8" d="M418.8,108.6c0,0,3.2-4.1,7.8-2.6"/>
	<path class="st8" d="M405.2,111.8c-2.1-1.6-4.7-2.3-7.3-1.9c-2.3,0.3-4.2,2-4.9,4.3"/>
	<path class="st8" d="M415.4,163.5c0,0,8.3,5.2,18.2-0.9c5.7-3.4,8.9-9.8,8.3-16.5"/>
	<path class="st8" d="M441,142c1.2-0.4,2.5,0,3.4,0.9"/>
	<path class="st8" d="M463.8,174.2c0,0,10.6-3.8,12.8-19.7s2.9-24,2.9-24"/>
	<path class="st8" d="M562.4,267.4c0,0,16.2,154,20.7,186.5s7.9,55.7,7.9,55.7"/>
	<path class="st8" d="M569.3,268.9c-3,3.7-4.8,8.1-5.3,12.8"/>
	<path class="st8" d="M398.2,292.5c0,0,9.5,5.6,10.8,17.2"/>
	<path class="st8" d="M318.4,519.2c0,0-13.7,59.2-11.2,63.8s8.3,17.1,11.2,17.6s3-1.1,3-1.1s3.7,8.3,7.5,8.6s3.9-1.4,3.9-1.4
		s5.8,10.3,9.6,9.7s6.2-6.5,6.3-8c0.2-2.4-0.2-9.9-0.2-9.9"/>
	<path class="st8" d="M336.9,583.9c0,0,2.9,18.4,5.9,22.9"/>
	<path class="st8" d="M324,576.9c-0.6,1.8-0.6,3.8,0,5.7c1,3.3,8.9,24.1,8.9,24.1"/>
	<path class="st8" d="M314.9,583.2c0.1,0.3,6.5,16.3,6.5,16.3"/>
	<line class="st8" x1="348.2" y1="578.5" x2="348.2" y2="576.7"/>
	<line class="st8" x1="348.3" y1="591.4" x2="348.4" y2="593.3"/>
	<path class="st8" d="M348.8,570.6c0,0,0.8-8.7,2-8.8s8,10,8.9,13.5s-0.9,15,2.8,17.5s4.7,0.7,4.7,0.7s3-16.6,1-23.5
		s-8-20.5-10.9-25s-7.4-11.5-10.3-14c0.6-5.4,1.4-15.3,1.4-15.3"/>
	<path class="st8" d="M389.9,417.5c0,0-5.3,23.2-6.7,40.1c0,0,35.9,23.7,90.7,22.4s109.2-26,109.2-26"/>
	<path class="st10" d="M504.7,717.6c0,0,13.5,11,20.2,11.5s16.3-7.3,16.3-7.3"/>
	<path class="st10" d="M430.1,719.5c0,0,8.8,12.4,18.9,14.3s18.9-3.7,18.9-3.7"/>
	<path class="st10" d="M469.1,44.1c0,0-15-3.8-25.6-3.3c6-3.6,23.5-3.7,23.5-3.7"/>
	<path class="st8" d="M399.8,211.8c0,0-3.1,17.4,49.5,21.5s107-20,117.2-39.1"/>
	<path class="st8" d="M373.6,473.8c0,0-14,8.6-30.7,11.4s-26.8,0-26.8,0l4.3,34l8.9-32.5l4.7,32.3l7.5-33.4l3.7,30.7l7.7-33.3
		l3.1,28.5l7.8-32.6l0.1,27.5"/>
	<path class="st8" d="M586.3,476.9c6.7-3.7,14.6-4.4,21.9-1.9c12.7,4.1,13.4,14.1,13.4,14.1"/>
	<path class="st8" d="M579,419.6c0,0-29.9,17.3-93,23.8s-98.2-15.6-98.2-15.6l6.8,35.7l15.1-26.3l3.5,33.5l17.5-28.5l4.7,34.3
		l17.2-31.9l5.6,34.9l18.8-35.2l14,34.3l9.4-36.8l15.5,33.1l5-36.5l20,30.2l3.3-35.8l20.6,28.1l-0.2-34.6l18.3,27.3"/>
	<path class="st8" d="M383.2,457.5c0,0-5.7,72,6,142.9c12.5,76.1,27.8,113.1,27.8,113.1l19.2,218.4c0,0,2.2,3.6,8.2,3.9
		c-3.7,8.8-17.5,28.5-20.9,35.3s-6.9,24.9,6.5,25.4s44.5-33.2,46.8-37.3l1.9-414.7h3.8l15.6,382.4c0,0,2,6,10,6.7
		c0,0-1,17.5,1.2,22.7s10.7,8.9,14,13s14.6,26,28.5,28.1c11.5,1.7,18.2-8.7,18-15s-4.5-16.6-9.9-24.3s-16.5-27.5-16.5-27.5l0.9-52.3
		l7.7-162.6c0,0,20.4-104.7,20.1-113.2"/>
	<path class="st8" d="M583.4,456.1c0,0,0.3,60.1-1.2,63.5"/>
	<polyline class="st8" points="586.4,477.5 594.2,509.6 594.4,474.2 598.2,511.3 603.5,474.1 604.2,516 615,478.4 609.6,522 
		621.1,486.7 615.4,530.6 619.2,524.5 	"/>
	<polyline class="st6" points="416.1,206.1 403.6,218.8 427.2,211.2 420.4,228.5 439.6,216.2 438,231.7 453.4,218.8 456.6,233.7 
		466.7,218.9 474.2,233.2 482.9,217 492.7,230.9 498.1,213.8 512.2,226.3 514.8,208.8 529.9,219.9 529.5,202.7 548,211.1 
		543.9,193.2 562.2,200.2 555.7,189.3 	"/>
	<path class="st8" d="M489,156.5c1.6-8,4.5-15.7,8.4-22.9c6.6-11.9,14.5-31.8,9-47.7s-16.2-29.1-21.2-33.2c-4.1-3.2-8.5-6-13.1-8.6
		c0,0-1.6-21.2-9.4-25.2c-7-3.6-26.6-5.7-33.7,2.7c-7.6,9.1,1.5,19.5,1.5,19.5s-25.5-1.5-37.7,8.2c-13.1,10.5-18.7,22.2-15.5,43.1
		s15.2,38.1,15.2,38.1"/>
</g>
</svg>
