<?xml version="1.0" standalone="no"?>
<!DOCTYPE svg PUBLIC "-//W3C//DTD SVG 20010904//EN"
 "http://www.w3.org/TR/2001/REC-SVG-20010904/DTD/svg10.dtd">
<svg version="1.0" xmlns="http://www.w3.org/2000/svg"
 width="1116.000000pt" height="1116.000000pt" viewBox="0 0 1116.000000 1116.000000"
 preserveAspectRatio="xMidYMid meet">
<metadata>
Created by potrace 1.11, written by Peter Selinger 2001-2013
</metadata>
<g transform="translate(0.000000,1116.000000) scale(0.100000,-0.100000)"
fill="#000000" stroke="none">
<path d="M1098 8745 c-2 -2 -16 -5 -33 -8 -214 -36 -431 -130 -585 -252 -31
-24 -187 -181 -215 -215 -36 -44 -120 -184 -145 -240 -14 -30 -29 -58 -35 -62
-5 -4 -7 -8 -2 -8 4 0 0 -16 -8 -36 -26 -62 -50 -161 -65 -268 -10 -65 -7
-333 4 -386 3 -14 9 -50 15 -80 5 -30 12 -66 15 -80 3 -14 8 -38 11 -55 7 -32
33 -130 43 -155 3 -8 6 -17 7 -20 4 -18 28 -88 35 -105 4 -11 15 -38 23 -60
39 -104 156 -349 230 -480 128 -227 352 -552 541 -785 34 -41 68 -83 76 -94 8
-10 20 -23 25 -30 6 -6 35 -40 65 -76 30 -36 57 -67 60 -70 3 -3 23 -25 44
-50 168 -193 528 -560 726 -740 57 -52 117 -107 132 -121 15 -15 46 -42 68
-60 23 -19 58 -49 78 -67 20 -17 51 -37 68 -42 33 -11 1253 -7 1309 4 321 64
503 154 709 351 50 48 160 185 181 226 9 16 19 29 23 29 4 -1 23 -26 42 -56
19 -31 43 -64 53 -75 10 -10 15 -19 12 -19 -16 0 192 -193 255 -236 146 -99
319 -175 459 -201 14 -2 27 -6 31 -8 26 -16 272 -24 375 -11 108 13 121 15
148 25 15 6 27 8 27 5 0 -4 7 -1 15 6 8 7 15 10 15 7 0 -10 113 34 201 77 95
48 206 118 257 166 18 16 36 30 40 31 12 1 131 142 182 215 51 73 110 181 110
200 0 6 7 17 15 24 9 7 14 15 11 17 -2 3 2 21 11 41 8 20 17 43 19 51 36 145
44 189 50 261 4 47 8 596 9 1220 1 624 5 1158 8 1185 8 70 61 227 99 294 115
206 289 354 506 430 34 12 72 24 85 27 12 2 33 7 47 10 34 10 277 10 320 2 19
-4 44 -10 55 -12 98 -20 265 -100 345 -164 171 -137 302 -342 336 -527 2 -11
8 -42 13 -68 9 -50 7 -282 -3 -314 -3 -10 -8 -38 -11 -63 -10 -83 -73 -306
-112 -400 -8 -19 -19 -44 -23 -55 -112 -273 -297 -591 -529 -905 -38 -52 -74
-99 -78 -105 -5 -5 -44 -54 -86 -108 -75 -94 -232 -280 -289 -342 -15 -16 -62
-68 -105 -115 -109 -118 -501 -510 -602 -600 -45 -41 -93 -84 -105 -95 -12
-11 -53 -47 -91 -80 -94 -83 -96 -85 -112 -122 -25 -62 -9 -138 40 -183 55
-52 45 -52 712 -46 341 2 636 7 655 11 29 5 59 11 155 31 82 17 272 101 352
155 23 16 46 29 51 29 6 0 12 3 14 8 2 4 17 18 33 30 91 70 257 255 303 338 6
10 12 17 14 14 2 -3 17 -25 33 -50 54 -83 89 -124 174 -209 232 -231 564 -363
891 -355 52 1 113 5 135 8 22 4 57 9 79 12 21 3 50 10 65 15 14 6 27 10 29 9
9 -6 155 49 226 85 131 66 222 132 325 236 53 53 101 102 106 110 6 8 22 31
38 51 15 20 27 41 27 47 0 6 5 11 10 11 6 0 10 4 10 10 0 5 13 31 29 57 30 51
97 211 105 253 2 14 7 32 10 40 7 19 15 60 24 125 9 65 9 2445 0 2510 -9 65
-17 106 -24 125 -3 8 -8 26 -10 39 -3 13 -19 60 -36 105 -160 416 -542 725
-978 793 -61 9 -314 10 -370 0 -93 -15 -107 -18 -186 -42 -249 -76 -486 -242
-639 -450 -17 -22 -33 -41 -37 -43 -5 -2 -8 -8 -8 -13 0 -5 -7 -21 -16 -34
l-16 -25 -54 78 c-48 71 -185 219 -243 265 -177 139 -378 227 -607 264 -63 10
-293 10 -364 0 -95 -13 -212 -47 -295 -83 -22 -10 -42 -18 -45 -18 -8 -2 -165
-89 -170 -95 -3 -3 -25 -20 -50 -36 -73 -49 -231 -214 -285 -297 -48 -74 -65
-92 -65 -67 0 16 -85 134 -135 188 -117 128 -230 215 -371 285 -111 56 -237
99 -329 113 -16 2 -47 8 -67 13 -20 4 -97 7 -170 7 -261 0 -487 -70 -712 -219
-101 -68 -225 -192 -308 -310 l-62 -87 -59 87 c-58 86 -196 231 -252 268 -17
10 -34 24 -38 31 -4 7 -14 13 -21 13 -8 0 -19 7 -26 16 -8 8 -27 21 -44 29
-17 8 -42 21 -56 29 -24 14 -59 30 -162 74 -25 11 -49 18 -51 15 -3 -2 -14 0
-25 6 -18 9 -54 18 -107 26 -11 2 -40 8 -65 14 -47 10 -308 8 -370 -3 -19 -4
-47 -9 -62 -11 -41 -6 -240 -74 -265 -91 -12 -7 -29 -14 -38 -14 -8 0 -15 -4
-15 -8 0 -4 -16 -14 -35 -21 -19 -7 -35 -16 -35 -20 0 -5 -8 -11 -17 -15 -18
-5 -53 -26 -63 -36 -3 -3 -23 -18 -45 -35 -40 -30 -175 -162 -207 -202 -35
-45 -88 -126 -88 -134 0 -19 -31 -8 -39 14 -5 12 -18 33 -28 45 -10 13 -38 49
-63 80 -76 97 -230 233 -310 274 -14 7 -27 16 -30 19 -3 3 -43 24 -90 46 -98
46 -209 83 -297 99 -13 2 -35 7 -50 11 -28 6 -339 14 -345 8z m4597 -341 c95
-12 106 -14 125 -24 10 -5 26 -10 35 -10 26 0 176 -73 242 -118 68 -46 164
-137 208 -197 17 -22 34 -43 40 -47 5 -4 6 -8 1 -8 -5 0 -2 -8 6 -17 36 -41
113 -228 123 -296 2 -12 6 -47 11 -77 9 -66 10 -2267 1 -2362 -25 -261 -173
-506 -397 -657 -74 -50 -190 -106 -260 -126 -69 -19 -126 -26 -241 -29 -180
-4 -362 49 -516 151 -53 35 -223 193 -223 207 0 3 -13 25 -30 48 -38 52 -83
148 -109 230 -27 85 -36 136 -45 273 -2 28 -8 62 -14 76 -10 24 -74 89 -90 89
-4 1 -24 3 -44 6 -62 9 -112 -15 -165 -79 -14 -17 -21 -55 -28 -157 -5 -84 -7
-96 -26 -160 -7 -25 -14 -53 -16 -63 -6 -37 -86 -189 -128 -246 -75 -102 -243
-251 -283 -251 -6 0 -12 -4 -14 -8 -8 -20 -171 -83 -271 -104 -31 -6 -204 -12
-428 -14 l-376 -3 246 247 c136 136 278 282 316 325 39 43 81 91 95 106 14 15
48 54 77 86 28 33 61 71 73 85 12 14 43 51 68 82 26 32 50 58 55 58 4 0 7 6 7
14 0 8 4 16 9 18 11 4 241 309 307 406 69 103 172 263 184 287 6 11 20 36 31
55 40 65 99 175 133 245 62 130 98 208 100 219 2 6 9 27 18 46 8 19 21 53 28
75 7 22 17 46 23 53 5 6 7 12 4 12 -4 0 1 19 9 43 18 49 60 216 68 267 3 19 8
46 10 60 12 66 17 125 22 245 3 72 7 141 10 155 2 14 7 41 10 60 5 39 54 189
65 205 4 6 22 37 38 69 17 32 50 82 73 110 44 54 158 166 170 166 4 0 13 7 21
15 21 20 132 80 197 105 85 33 158 50 245 57 44 3 81 7 83 8 3 2 38 -1 117
-11z m-4275 -8 c236 -44 452 -189 592 -398 49 -73 118 -225 118 -260 0 -10 4
-27 9 -36 9 -18 20 -108 25 -203 2 -32 11 -70 22 -87 45 -77 146 -108 223 -67
24 12 87 75 76 75 -3 0 -2 8 4 18 5 9 12 58 15 108 10 155 45 273 120 405 111
192 276 329 492 408 101 37 133 42 279 46 156 4 268 -19 401 -80 278 -128 477
-394 521 -695 7 -54 7 -239 -1 -295 -22 -163 -21 -156 -61 -295 -56 -193 -144
-397 -273 -630 -85 -153 -350 -549 -374 -558 -4 -2 -8 -10 -8 -17 0 -7 -4 -15
-8 -17 -4 -1 -30 -32 -57 -68 -78 -103 -248 -306 -335 -401 -14 -15 -54 -60
-90 -101 -84 -95 -508 -518 -628 -628 -52 -47 -105 -95 -118 -107 -31 -29 -37
-29 -71 3 -248 226 -763 738 -763 759 0 2 -15 19 -32 37 -44 46 -105 114 -153
173 -22 27 -47 56 -55 65 -8 8 -27 32 -42 52 -15 20 -34 42 -41 50 -11 12
-154 197 -200 259 -39 53 -144 207 -177 259 -19 30 -38 57 -42 58 -5 2 -8 8
-8 13 0 5 -16 33 -35 63 -19 30 -35 59 -35 65 0 5 -3 11 -8 13 -10 4 -62 100
-128 238 -133 275 -208 519 -229 750 -10 117 -5 262 12 315 4 11 7 25 8 30 2
23 27 97 51 152 68 154 220 327 359 408 74 43 195 98 195 88 0 -3 6 -1 13 4
14 12 44 20 112 29 28 3 52 8 54 10 6 6 230 -3 271 -10z m8655 -1 c156 -36
226 -64 337 -138 71 -46 122 -92 202 -178 29 -31 105 -156 130 -214 26 -58 56
-157 62 -208 2 -15 6 -39 9 -55 7 -36 7 -2280 0 -2357 -4 -33 -15 -94 -26
-135 -20 -74 -96 -245 -121 -272 -7 -7 -26 -31 -43 -53 -98 -132 -253 -243
-419 -300 -88 -30 -99 -32 -171 -41 -289 -36 -559 54 -765 255 -78 75 -184
227 -197 281 -3 14 -9 30 -14 35 -23 31 -57 202 -64 326 -4 68 -24 109 -69
144 -64 49 -161 42 -218 -17 -39 -40 -47 -64 -53 -166 -5 -84 -9 -115 -19
-150 -3 -9 -7 -28 -10 -42 -8 -46 -78 -214 -96 -230 -3 -3 -22 -30 -43 -61
-126 -187 -371 -340 -602 -376 -16 -3 -197 -6 -402 -8 l-372 -4 222 222 c202
201 358 365 463 487 21 25 41 47 44 50 6 6 152 178 215 255 22 26 46 58 54 69
8 12 18 23 21 26 15 13 192 257 267 368 111 166 226 359 291 487 8 17 19 37
23 45 5 8 13 24 18 35 5 11 23 52 41 90 92 200 177 474 204 660 12 79 18 144
21 235 3 110 14 220 22 233 2 4 6 19 9 33 11 59 91 246 113 264 3 3 19 25 36
49 41 61 134 152 209 206 95 67 222 121 361 153 62 14 263 12 330 -3z"/>
<path d="M3907 3279 c-27 -16 -38 -53 -26 -88 10 -29 24 -39 67 -47 45 -9 92
71 64 112 -20 30 -73 42 -105 23z"/>
<path d="M5310 3247 c-25 -5 -51 -9 -57 -9 -7 -1 -13 -5 -13 -10 0 -4 -8 -8
-17 -8 -22 -1 -81 -50 -83 -70 -3 -25 11 -58 28 -66 29 -12 36 -11 79 13 24
13 68 26 102 29 55 6 64 4 95 -19 29 -23 33 -31 31 -66 -5 -67 -63 -129 -251
-269 -88 -64 -104 -86 -92 -128 13 -50 37 -55 259 -53 218 2 239 7 239 58 0
58 -15 64 -149 65 -66 0 -121 1 -121 1 0 1 27 23 59 49 138 108 192 182 197
271 8 147 -135 246 -306 212z"/>
<path d="M5900 3242 c-55 -18 -111 -61 -130 -99 -8 -15 -21 -36 -30 -47 -8
-10 -14 -20 -12 -22 1 -2 2 -5 1 -6 -18 -61 -21 -216 -4 -272 19 -61 55 -124
89 -153 52 -45 88 -58 167 -57 63 0 83 5 121 27 95 56 146 167 143 313 0 49
-5 98 -9 109 -27 71 -54 120 -79 147 -60 62 -171 88 -257 60z m155 -146 c22
-23 35 -51 42 -85 12 -60 8 -169 -7 -215 -12 -36 -54 -85 -75 -87 -59 -5 -83
0 -109 24 -80 74 -72 328 12 380 15 9 44 17 66 17 31 0 45 -7 71 -34z"/>
<path d="M6501 3249 c-29 -4 -79 -20 -109 -36 -45 -22 -58 -35 -66 -61 -7 -25
-5 -36 8 -51 27 -30 51 -31 98 -3 30 18 61 26 105 28 55 3 66 0 93 -22 70 -59
24 -144 -150 -274 -18 -14 -38 -30 -44 -35 -6 -6 -34 -27 -62 -48 -70 -51 -81
-83 -44 -130 l20 -25 205 -1 c216 0 250 5 257 43 12 66 -21 82 -164 81 l-107
-1 37 33 c20 18 41 33 46 33 17 0 132 126 151 165 31 64 34 94 16 158 -31 107
-146 165 -290 146z"/>
<path d="M7128 3255 c-2 -2 -15 -6 -30 -9 -119 -21 -198 -142 -204 -311 -4
-118 25 -210 87 -276 44 -48 86 -68 154 -75 132 -15 238 64 279 207 15 53 22
164 13 204 -3 11 -8 34 -12 50 -20 80 -86 162 -152 190 -33 14 -127 28 -135
20z m93 -142 c55 -32 83 -164 59 -279 -18 -88 -57 -129 -117 -127 -41 1 -52 5
-73 23 -58 50 -75 227 -32 331 25 63 103 87 163 52z"/>
<path d="M2781 3220 c-5 -17 -11 -34 -12 -38 -25 -77 -36 -96 -62 -103 -15 -4
-27 -3 -27 2 0 5 -13 3 -30 -6 -51 -26 -35 -72 27 -77 l32 -2 -14 -33 c-8 -18
-12 -33 -9 -33 3 0 0 -9 -6 -21 -6 -11 -13 -30 -15 -41 -3 -11 -6 -23 -9 -25
-9 -9 -67 -9 -72 -1 -7 11 -44 -30 -44 -47 0 -19 23 -34 57 -37 l31 -2 -15
-41 c-8 -22 -16 -48 -18 -59 -3 -10 -7 -21 -9 -24 -13 -13 17 -42 43 -42 23 0
32 7 45 34 9 19 16 39 16 45 0 6 7 29 16 51 16 39 18 40 60 38 42 -1 43 -2 37
-27 -3 -14 -9 -31 -14 -37 -18 -22 -18 -82 0 -98 30 -28 62 0 86 74 26 85 28
86 71 88 57 2 74 11 74 37 0 27 -14 39 -50 41 -14 1 -28 2 -32 3 -3 1 5 37 20
80 18 54 32 81 44 84 10 3 18 2 18 -3 0 -9 51 0 68 13 6 5 12 15 12 23 0 20
-31 46 -50 41 -34 -9 -38 7 -17 72 22 70 17 94 -22 99 -22 3 -52 -13 -49 -26
1 -4 -8 -37 -20 -73 -24 -70 -39 -82 -90 -70 -26 7 -27 9 -2 74 24 63 14 97
-29 97 -23 0 -31 -6 -40 -30z m105 -233 c-5 -29 -48 -147 -54 -148 -34 -5 -77
-2 -77 6 0 6 9 40 19 78 15 54 24 69 42 73 13 3 27 3 33 0 5 -4 12 -2 16 4 8
13 24 4 21 -13z"/>
<path d="M3228 3241 c-39 -13 -42 -37 -43 -326 0 -349 -14 -322 171 -323 187
-1 262 21 340 96 66 64 88 121 88 227 1 77 -3 98 -25 145 -28 59 -75 112 -124
138 -16 9 -32 16 -35 17 -3 0 -9 3 -15 6 -29 19 -314 34 -357 20z m293 -130
c40 -13 103 -73 118 -113 5 -14 8 -56 7 -91 -7 -131 -88 -194 -249 -192 l-72
0 0 200 c0 110 3 202 6 205 13 10 155 3 190 -9z"/>
<path d="M4155 3234 c-19 -14 -20 -27 -20 -313 0 -329 0 -331 64 -331 39 0 61
31 61 87 0 33 6 48 27 68 15 14 30 25 33 25 3 -1 22 -22 43 -48 106 -133 138
-155 180 -122 42 33 29 72 -53 160 -89 95 -88 82 -10 156 73 70 88 102 60 134
-36 41 -63 27 -175 -87 l-105 -107 0 175 c0 142 -3 179 -16 197 -18 26 -59 29
-89 6z"/>
<path d="M4647 3063 c-15 -7 -28 -20 -28 -28 -3 -31 -2 -41 6 -60 40 -105 89
-226 100 -250 7 -16 23 -55 35 -85 21 -53 21 -56 4 -87 -9 -18 -21 -34 -26
-34 -4 -1 -12 -3 -18 -4 -5 -1 -18 -3 -27 -4 -28 -2 -41 -14 -48 -43 -10 -41
23 -69 77 -64 24 2 54 8 68 14 24 10 101 82 88 82 -4 0 4 26 18 58 14 31 30
67 35 80 5 12 13 32 18 45 5 12 21 48 35 80 14 31 23 57 20 57 -3 0 2 12 10
28 8 15 27 58 42 96 24 63 25 72 13 95 -18 33 -59 43 -85 22 -16 -13 -45 -66
-50 -91 0 -3 -4 -12 -7 -20 -30 -72 -64 -171 -66 -192 -1 -5 -5 -8 -10 -8 -8
0 -23 35 -98 230 -14 36 -29 70 -34 76 -16 19 -44 22 -72 7z"/>
<path d="M7908 3069 c-58 -16 -121 -67 -157 -129 -20 -34 -26 -132 -11 -185
26 -94 118 -164 224 -171 52 -3 130 18 159 44 22 20 22 64 -1 85 -24 22 -29
21 -80 -3 -24 -12 -54 -19 -70 -16 -15 2 -31 5 -35 5 -5 1 -23 16 -41 35 -109
111 11 283 148 214 31 -16 44 -18 63 -9 30 14 44 50 29 74 -27 44 -156 76
-228 56z"/>
<path d="M3906 3054 c-18 -17 -18 -15 -20 -238 -1 -178 6 -217 44 -226 33 -8
68 8 76 34 4 12 6 109 5 216 -1 163 -4 197 -18 212 -20 22 -66 23 -87 2z"/>
<path d="M8255 3062 c-42 -8 -59 -60 -29 -89 12 -12 38 -16 109 -17 62 0 91
-4 86 -11 -4 -5 -52 -65 -105 -133 -106 -134 -122 -171 -87 -201 19 -17 40
-19 182 -19 148 0 161 1 179 20 21 23 18 57 -7 76 -18 13 -33 14 -130 12 -35
-1 -63 2 -63 5 0 6 81 113 115 152 5 6 21 26 35 44 14 18 33 41 43 51 9 10 15
18 12 18 -2 0 0 11 5 24 7 19 5 30 -9 48 -18 21 -25 22 -167 23 -82 0 -158 -1
-169 -3z"/>
<path d="M7540 2733 c-47 -17 -64 -84 -30 -120 28 -31 55 -36 94 -18 88 42 28
172 -64 138z"/>
</g>
</svg>
